{
classes = (
{
code = "A Aacute Acircumflex Adieresis Agrave Aring Atilde AE B C Ccedilla D Eth E Eacute Ecircumflex Edieresis Egrave F G H I Iacute Icircumflex Idieresis Igrave J K L Lslash M N Ntilde O Oacute Ocircumflex Odieresis Ograve Oslash Otilde OE P Thorn Q R S Scaron T U Uacute Ucircumflex Udieresis Ugrave V W X Y Yacute Ydieresis Z Zcaron";
name = Uppercase;
}
);
copyright = "Copyright (c) 2014, Omnibus-Type (www.omnibus-type.com omnibus.type@gmail.com) with Reserved Font Name 'Asap'";
customParameters = (
{
name = license;
value = "This Font Software is licensed under the SIL Open Font License, Version 1.1. ";
},
{
name = licenseURL;
value = "http://scripts.sil.org/OFL";
},
{
name = "Family Alignment Zones";
value = (
"{700, 8}",
"{523, 8}",
"{0, 20}",
);
},
{
name = vendorID;
value = OMNI;
},
{
name = fsType;
value = (
    3
);
},
{
name = "Make morx table";
value = 1;
},
{
name = description;
value = "Asap Symbol is being developed from Asap Typeface";
}
);
date = "2014-11-19 04:36:41 +0000";
designer = "Tania Quind\U00F3s, Elena Gonz\U00E1lez Miranda, Marcela Romero, Pablo Cosgaya";
designerURL = "www.omnibus-type.com";
familyName = "Asap Symbol";
featurePrefixes = (
{
automatic = 1;
code = "languagesystem DFLT dflt;\012languagesystem grek dflt;\012languagesystem latn dflt;\012";
name = Languagesystems;
},
{
automatic = 1;
code = "";
name = morx;
}
);
features = (
{
automatic = 1;
code = "feature sups;\012feature frac;\012feature ordn;\012feature salt;\012feature ss01;\012feature ss02;\012feature ss03;\012feature ss04;\012feature ss05;\012";
name = aalt;
},
{
automatic = 1;
code = "sub one by onesuperior;\012sub two by twosuperior;\012sub three by threesuperior;\012";
name = sups;
},
{
automatic = 1;
code = "sub one slash four by onequarter;\012sub one slash two by onehalf;\012sub three slash four by threequarters;\012";
name = frac;
},
{
automatic = 1;

glyphs = (
{
color = 11;
glyphname = A;
lastChange = "2014-11-19 04:29:10 +0000";
layers = (
{
anchors = (
{
name = bottom;
position = "{310, 0}";
},
{
name = ogonek;
position = "{570, 0}";
},
{
name = top;
position = "{307, 700}";
}
);
layerId = "166CCA77-1BE6-4372-BC61-BAE07403C72D";
name = Regular;
paths = (
{
closed = 1;
nodes = (
"287 702 LINE SMOOTH",
"264 702 OFFCURVE",
"245 698 OFFCURVE",
"240 684 CURVE SMOOTH",
"10 33 LINE SMOOTH",
"8 26 OFFCURVE",
"7 22 OFFCURVE",
"7 17 CURVE SMOOTH",
"7 5 OFFCURVE",
"23 -2 OFFCURVE",
"58 -2 CURVE SMOOTH",
"78 -2 LINE SMOOTH",
"100 -2 OFFCURVE",
"116 3 OFFCURVE",
"121 16 CURVE SMOOTH",
"170 162 LINE",
"439 162 LINE",
"490 16 LINE SMOOTH",
"494 2 OFFCURVE",
"513 -2 OFFCURVE",
"537 -2 CURVE SMOOTH",
"560 -2 LINE SMOOTH",
"593 -2 OFFCURVE",
"606 5 OFFCURVE",
"606 17 CURVE SMOOTH",
"606 22 OFFCURVE",
"605 26 OFFCURVE",
"603 32 CURVE SMOOTH",
"374 684 LINE SMOOTH",
"369 698 OFFCURVE",
"350 702 OFFCURVE",
"326 702 CURVE SMOOTH"
);
},
{
closed = 1;
nodes = (
"311 549 OFFCURVE",
"315 527 OFFCURVE",
"321 508 CURVE SMOOTH",
"405 262 LINE",
"205 262 LINE",
"290 508 LINE SMOOTH",
"297 528 OFFCURVE",
"301 549 OFFCURVE",
"305 569 CURVE",
"308 569 LINE"
);
}
);
width = 613;
}
);
unicode = 0041;
},
{
color = 11;
glyphname = AE;
lastChange = "2014-11-19 04:29:10 +0000";
layers = (
{
anchors = (
{
name = top;
position = "{458, 700}";
}
);
layerId = "166CCA77-1BE6-4372-BC61-BAE07403C72D";
name = Regular;
paths = (
{
closed = 1;
nodes = (
"363 700 LINE SMOOTH",
"342 700 OFFCURVE",
"329 692 OFFCURVE",
"319 673 CURVE SMOOTH",
"-2 34 LINE SMOOTH",
"-5 28 OFFCURVE",
"-6 22 OFFCURVE",
"-6 17 CURVE SMOOTH",
"-6 5 OFFCURVE",
"8 -2 OFFCURVE",
"43 -2 CURVE SMOOTH",
"62 -2 LINE SMOOTH",
"83 -2 OFFCURVE",
"98 4 OFFCURVE",
"105 16 CURVE SMOOTH",
"176 162 LINE",
"448 162 LINE",
"475 29 LINE SMOOTH",
"479 9 OFFCURVE",
"490 0 OFFCURVE",
"511 0 CURVE SMOOTH",
"817 0 LINE SMOOTH",
"834 0 OFFCURVE",
"842 12 OFFCURVE",
"842 39 CURVE SMOOTH",
"842 61 LINE SMOOTH",
"842 88 OFFCURVE",
"834 100 OFFCURVE",
"817 100 CURVE SMOOTH",
"578 100 LINE",
"535 308 LINE",
"788 308 LINE SMOOTH",
"805 308 OFFCURVE",
"812 320 OFFCURVE",
"812 347 CURVE SMOOTH",
"812 369 LINE SMOOTH",
"812 397 OFFCURVE",
"805 408 OFFCURVE",
"788 408 CURVE SMOOTH",
"514 408 LINE",
"474 600 LINE",
"816 600 LINE SMOOTH",
"833 600 OFFCURVE",
"841 612 OFFCURVE",
"841 639 CURVE SMOOTH",
"841 661 LINE SMOOTH",
"841 688 OFFCURVE",
"833 700 OFFCURVE",
"816 700 CURVE SMOOTH"
);
},
{
closed = 1;
nodes = (
"377 509 LINE",
"428 262 LINE",
"226 262 LINE",
"348 510 LINE",
"372 578 LINE",
"375 578 LINE"
);
}
);
width = 915;
}
);
unicode = 00C6;
},
{
color = 11;
glyphname = B;
lastChange = "2014-11-19 04:29:10 +0000";
layers = (
{
layerId = "166CCA77-1BE6-4372-BC61-BAE07403C72D";
name = Regular;
paths = (
{
closed = 1;
nodes = (
"119 700 LINE SMOOTH",
"95 700 OFFCURVE",
"85 690 OFFCURVE",
"85 666 CURVE SMOOTH",
"85 34 LINE SMOOTH",
"85 10 OFFCURVE",
"95 0 OFFCURVE",
"119 0 CURVE SMOOTH",
"309 0 LINE SMOOTH",
"477 0 OFFCURVE",
"565 67 OFFCURVE",
"565 202 CURVE SMOOTH",
"565 310 OFFCURVE",
"462 360 OFFCURVE",
"427 367 CURVE",
"427 371 LINE",
"486 391 OFFCURVE",
"536 456 OFFCURVE",
"536 523 CURVE SMOOTH",
"536 628 OFFCURVE",
"464 700 OFFCURVE",
"307 700 CURVE SMOOTH"
);
},
{
closed = 1;
nodes = (
"399 308 OFFCURVE",
"445 272 OFFCURVE",
"445 208 CURVE SMOOTH",
"445 141 OFFCURVE",
"403 100 OFFCURVE",
"327 100 CURVE SMOOTH",
"202 100 LINE",
"202 308 LINE",
"310 308 LINE SMOOTH"
);
},
{
closed = 1;
nodes = (
"379 600 OFFCURVE",
"416 570 OFFCURVE",
"416 507 CURVE SMOOTH",
"416 452 OFFCURVE",
"369 408 OFFCURVE",
"297 408 CURVE SMOOTH",
"202 408 LINE",
"202 600 LINE",
"296 600 LINE SMOOTH"
);
}
);
width = 593;
}
);
unicode = 0042;
},
{
color = 11;
glyphname = C;
lastChange = "2014-11-19 04:29:11 +0000";
layers = (
{
anchors = (
{
name = bottom;
position = "{366, 0}";
},
{
name = top;
position = "{361, 700}";
}
);
layerId = "166CCA77-1BE6-4372-BC61-BAE07403C72D";
name = Regular;
paths = (
{
closed = 1;
nodes = (
"163 707 OFFCURVE",
"52 589 OFFCURVE",
"52 351 CURVE SMOOTH",
"52 106 OFFCURVE",
"156 -7 OFFCURVE",
"377 -7 CURVE SMOOTH",
"478 -7 OFFCURVE",
"591 29 OFFCURVE",
"591 70 CURVE SMOOTH",
"591 85 OFFCURVE",
"567 139 OFFCURVE",
"546 139 CURVE SMOOTH",
"532 139 OFFCURVE",
"477 93 OFFCURVE",
"377 93 CURVE SMOOTH",
"238 93 OFFCURVE",
"172 176 OFFCURVE",
"172 350 CURVE SMOOTH",
"172 526 OFFCURVE",
"239 606 OFFCURVE",
"380 606 CURVE SMOOTH",
"476 606 OFFCURVE",
"520 568 OFFCURVE",
"532 568 CURVE SMOOTH",
"550 568 OFFCURVE",
"579 620 OFFCURVE",
"579 641 CURVE SMOOTH",
"579 675 OFFCURVE",
"475 707 OFFCURVE",
"380 707 CURVE SMOOTH"
);
}
);
width = 619;
}
);
unicode = 0043;
},
{
color = 11;
glyphname = D;
lastChange = "2014-11-19 04:29:11 +0000";
layers = (
{
anchors = (
{
name = bottom;
position = "{329, 0}";
},
{
name = center;
position = "{348, 350}";
},
{
name = top;
position = "{321, 700}";
}
);
layerId = "166CCA77-1BE6-4372-BC61-BAE07403C72D";
name = Regular;
paths = (
{
closed = 1;
nodes = (
"119 700 LINE SMOOTH",
"95 700 OFFCURVE",
"85 690 OFFCURVE",
"85 666 CURVE SMOOTH",
"85 34 LINE SMOOTH",
"85 10 OFFCURVE",
"95 0 OFFCURVE",
"119 0 CURVE SMOOTH",
"331 0 LINE SMOOTH",
"518 0 OFFCURVE",
"645 105 OFFCURVE",
"645 350 CURVE SMOOTH",
"645 595 OFFCURVE",
"518 700 OFFCURVE",
"331 700 CURVE SMOOTH"
);
},
{
closed = 1;
nodes = (
"444 600 OFFCURVE",
"524 524 OFFCURVE",
"524 350 CURVE SMOOTH",
"524 175 OFFCURVE",
"444 100 OFFCURVE",
"327 100 CURVE SMOOTH",
"202 100 LINE",
"202 600 LINE",
"327 600 LINE SMOOTH"
);
}
);
width = 695;
}
);
unicode = 0044;
},
{
color = 11;
glyphname = Eth;
lastChange = "2014-11-19 04:29:11 +0000";
layers = (
{
layerId = "166CCA77-1BE6-4372-BC61-BAE07403C72D";
name = Regular;
paths = (
{
closed = 1;
nodes = (
"113 700 LINE SMOOTH",
"89 700 OFFCURVE",
"79 690 OFFCURVE",
"79 666 CURVE SMOOTH",
"79 407 LINE",
"29 407 LINE SMOOTH",
"12 407 OFFCURVE",
"5 395 OFFCURVE",
"5 368 CURVE SMOOTH",
"5 346 LINE SMOOTH",
"5 319 OFFCURVE",
"12 307 OFFCURVE",
"29 307 CURVE SMOOTH",
"79 307 LINE",
"79 34 LINE SMOOTH",
"79 10 OFFCURVE",
"89 0 OFFCURVE",
"113 0 CURVE SMOOTH",
"332 0 LINE SMOOTH",
"519 0 OFFCURVE",
"647 105 OFFCURVE",
"647 350 CURVE SMOOTH",
"647 595 OFFCURVE",
"519 700 OFFCURVE",
"332 700 CURVE SMOOTH"
);
},
{
closed = 1;
nodes = (
"445 600 OFFCURVE",
"527 524 OFFCURVE",
"527 350 CURVE SMOOTH",
"527 175 OFFCURVE",
"445 100 OFFCURVE",
"328 100 CURVE SMOOTH",
"196 100 LINE",
"196 307 LINE",
"284 307 LINE SMOOTH",
"301 307 OFFCURVE",
"308 319 OFFCURVE",
"308 346 CURVE SMOOTH",
"308 368 LINE SMOOTH",
"308 395 OFFCURVE",
"301 407 OFFCURVE",
"284 407 CURVE SMOOTH",
"196 407 LINE",
"196 600 LINE",
"328 600 LINE SMOOTH"
);
}
);
width = 696;
}
);
unicode = 00D0;
},
{
color = 11;
glyphname = E;
lastChange = "2014-11-19 04:29:10 +0000";
layers = (
{
anchors = (
{
name = bottom;
position = "{294, 0}";
},
{
name = ogonek;
position = "{475, 0}";
},
{
name = top;
position = "{296, 700}";
}
);
layerId = "166CCA77-1BE6-4372-BC61-BAE07403C72D";
name = Regular;
paths = (
{
closed = 1;
nodes = (
"119 700 LINE SMOOTH",
"95 700 OFFCURVE",
"85 690 OFFCURVE",
"85 666 CURVE SMOOTH",
"85 34 LINE SMOOTH",
"85 10 OFFCURVE",
"95 0 OFFCURVE",
"119 0 CURVE SMOOTH",
"477 0 LINE SMOOTH",
"494 0 OFFCURVE",
"501 12 OFFCURVE",
"501 39 CURVE SMOOTH",
"501 61 LINE SMOOTH",
"501 88 OFFCURVE",
"494 100 OFFCURVE",
"477 100 CURVE SMOOTH",
"202 100 LINE",
"202 308 LINE",
"447 308 LINE SMOOTH",
"464 308 OFFCURVE",
"471 320 OFFCURVE",
"471 347 CURVE SMOOTH",
"471 369 LINE SMOOTH",
"471 397 OFFCURVE",
"464 408 OFFCURVE",
"447 408 CURVE SMOOTH",
"202 408 LINE",
"202 600 LINE",
"476 600 LINE SMOOTH",
"493 600 OFFCURVE",
"500 612 OFFCURVE",
"500 639 CURVE SMOOTH",
"500 661 LINE SMOOTH",
"500 688 OFFCURVE",
"493 700 OFFCURVE",
"476 700 CURVE SMOOTH"
);
}
);
width = 546;
}
);
unicode = 0045;
},
{
color = 11;
glyphname = F;
lastChange = "2014-11-19 04:29:11 +0000";
layers = (
{
layerId = "166CCA77-1BE6-4372-BC61-BAE07403C72D";
name = Regular;
paths = (
{
closed = 1;
nodes = (
"119 700 LINE SMOOTH",
"95 700 OFFCURVE",
"85 690 OFFCURVE",
"85 666 CURVE SMOOTH",
"85 24 LINE SMOOTH",
"85 7 OFFCURVE",
"100 -2 OFFCURVE",
"134 -2 CURVE SMOOTH",
"153 -2 LINE SMOOTH",
"187 -2 OFFCURVE",
"202 7 OFFCURVE",
"202 24 CURVE SMOOTH",
"202 308 LINE",
"429 308 LINE SMOOTH",
"447 308 OFFCURVE",
"454 319 OFFCURVE",
"454 347 CURVE SMOOTH",
"454 369 LINE SMOOTH",
"454 396 OFFCURVE",
"447 408 OFFCURVE",
"429 408 CURVE SMOOTH",
"202 408 LINE",
"202 600 LINE",
"443 600 LINE SMOOTH",
"460 600 OFFCURVE",
"467 612 OFFCURVE",
"467 639 CURVE SMOOTH",
"467 661 LINE SMOOTH",
"467 688 OFFCURVE",
"460 700 OFFCURVE",
"443 700 CURVE SMOOTH"
);
}
);
width = 503;
}
);
unicode = 0046;
},
{
color = 11;
glyphname = G;
lastChange = "2014-11-19 04:29:11 +0000";
layers = (
{
anchors = (
{
name = bottom;
position = "{373, 0}";
},
{
name = top;
position = "{342, 700}";
}
);
layerId = "166CCA77-1BE6-4372-BC61-BAE07403C72D";
name = Regular;
paths = (
{
closed = 1;
nodes = (
"166 707 OFFCURVE",
"52 592 OFFCURVE",
"52 347 CURVE SMOOTH",
"52 106 OFFCURVE",
"160 -7 OFFCURVE",
"370 -7 CURVE SMOOTH",
"465 -7 OFFCURVE",
"597 7 OFFCURVE",
"597 68 CURVE SMOOTH",
"597 339 LINE SMOOTH",
"597 363 OFFCURVE",
"587 373 OFFCURVE",
"563 373 CURVE SMOOTH",
"376 373 LINE SMOOTH",
"358 373 OFFCURVE",
"351 362 OFFCURVE",
"351 334 CURVE SMOOTH",
"351 312 LINE SMOOTH",
"351 284 OFFCURVE",
"358 273 OFFCURVE",
"376 273 CURVE SMOOTH",
"480 273 LINE",
"480 104 LINE",
"453 97 OFFCURVE",
"415 93 OFFCURVE",
"373 93 CURVE SMOOTH",
"223 93 OFFCURVE",
"172 200 OFFCURVE",
"172 352 CURVE SMOOTH",
"172 516 OFFCURVE",
"229 606 OFFCURVE",
"380 606 CURVE SMOOTH",
"476 606 OFFCURVE",
"522 568 OFFCURVE",
"534 568 CURVE SMOOTH",
"552 568 OFFCURVE",
"581 620 OFFCURVE",
"581 641 CURVE SMOOTH",
"581 675 OFFCURVE",
"475 707 OFFCURVE",
"380 707 CURVE SMOOTH"
);
}
);
width = 672;
}
);
unicode = 0047;
},
{
color = 11;
glyphname = H;
lastChange = "2014-11-19 04:29:10 +0000";
layers = (
{
anchors = (
{
name = bottom;
position = "{378, 0}";
},
{
name = center;
position = "{373, 523}";
},
{
name = top;
position = "{367, 700}";
}
);
layerId = "166CCA77-1BE6-4372-BC61-BAE07403C72D";
name = Regular;
paths = (
{
closed = 1;
nodes = (
"579 702 LINE SMOOTH",
"545 702 OFFCURVE",
"530 693 OFFCURVE",
"530 676 CURVE SMOOTH",
"530 408 LINE",
"208 408 LINE",
"208 676 LINE SMOOTH",
"208 693 OFFCURVE",
"194 702 OFFCURVE",
"160 702 CURVE SMOOTH",
"140 702 LINE SMOOTH",
"106 702 OFFCURVE",
"91 693 OFFCURVE",
"91 676 CURVE SMOOTH",
"91 24 LINE SMOOTH",
"91 7 OFFCURVE",
"106 -2 OFFCURVE",
"140 -2 CURVE SMOOTH",
"160 -2 LINE SMOOTH",
"194 -2 OFFCURVE",
"208 7 OFFCURVE",
"208 24 CURVE SMOOTH",
"208 308 LINE",
"530 308 LINE",
"530 24 LINE SMOOTH",
"530 7 OFFCURVE",
"545 -2 OFFCURVE",
"579 -2 CURVE SMOOTH",
"599 -2 LINE SMOOTH",
"633 -2 OFFCURVE",
"647 7 OFFCURVE",
"647 24 CURVE SMOOTH",
"647 676 LINE SMOOTH",
"647 693 OFFCURVE",
"633 702 OFFCURVE",
"599 702 CURVE SMOOTH"
);
}
);
width = 733;
}
);
unicode = 0048;
},
{
color = 11;
glyphname = I;
lastChange = "2014-11-19 04:29:10 +0000";
layers = (
{
anchors = (
{
name = bottom;
position = "{140, 0}";
},
{
name = ogonek;
position = "{173, 0}";
},
{
name = top;
position = "{141, 700}";
}
);
layerId = "166CCA77-1BE6-4372-BC61-BAE07403C72D";
name = Regular;
paths = (
{
closed = 1;
nodes = (
"131 702 LINE SMOOTH",
"97 702 OFFCURVE",
"82 693 OFFCURVE",
"82 676 CURVE SMOOTH",
"82 24 LINE SMOOTH",
"82 7 OFFCURVE",
"97 -2 OFFCURVE",
"131 -2 CURVE SMOOTH",
"151 -2 LINE SMOOTH",
"185 -2 OFFCURVE",
"199 7 OFFCURVE",
"199 24 CURVE SMOOTH",
"199 676 LINE SMOOTH",
"199 693 OFFCURVE",
"185 702 OFFCURVE",
"151 702 CURVE SMOOTH"
);
}
);
width = 282;
}
);
unicode = 0049;
},
{
color = 11;
glyphname = J;
lastChange = "2014-11-19 04:29:10 +0000";
layers = (
{
anchors = (
{
name = top;
position = "{267, 700}";
}
);
layerId = "166CCA77-1BE6-4372-BC61-BAE07403C72D";
name = Regular;
paths = (
{
closed = 1;
nodes = (
"258 702 LINE SMOOTH",
"223 702 OFFCURVE",
"209 693 OFFCURVE",
"209 676 CURVE SMOOTH",
"209 209 LINE SMOOTH",
"209 129 OFFCURVE",
"175 94 OFFCURVE",
"93 94 CURVE SMOOTH",
"61 94 OFFCURVE",
"42 103 OFFCURVE",
"33 103 CURVE SMOOTH",
"11 102 OFFCURVE",
"3 41 OFFCURVE",
"3 31 CURVE SMOOTH",
"3 -3 OFFCURVE",
"82 -7 OFFCURVE",
"114 -7 CURVE SMOOTH",
"266 -7 OFFCURVE",
"326 77 OFFCURVE",
"326 204 CURVE SMOOTH",
"326 676 LINE SMOOTH",
"326 693 OFFCURVE",
"311 702 OFFCURVE",
"277 702 CURVE SMOOTH"
);
}
);
width = 402;
}
);
unicode = 004A;
},
{
color = 11;
glyphname = K;
lastChange = "2014-11-19 04:29:10 +0000";
layers = (
{
anchors = (
{
name = bottom;
position = "{292, 0}";
},
{
name = top;
position = "{297, 700}";
}
);
layerId = "166CCA77-1BE6-4372-BC61-BAE07403C72D";
name = Regular;
paths = (
{
closed = 1;
nodes = (
"477 702 LINE SMOOTH",
"452 702 OFFCURVE",
"430 699 OFFCURVE",
"421 686 CURVE SMOOTH",
"206 386 LINE",
"202 386 LINE",
"202 676 LINE SMOOTH",
"202 693 OFFCURVE",
"188 702 OFFCURVE",
"154 702 CURVE SMOOTH",
"134 702 LINE SMOOTH",
"100 702 OFFCURVE",
"85 693 OFFCURVE",
"85 676 CURVE SMOOTH",
"85 24 LINE SMOOTH",
"85 7 OFFCURVE",
"100 -2 OFFCURVE",
"134 -2 CURVE SMOOTH",
"154 -2 LINE SMOOTH",
"188 -2 OFFCURVE",
"202 7 OFFCURVE",
"202 24 CURVE SMOOTH",
"202 327 LINE",
"206 328 LINE",
"449 14 LINE SMOOTH",
"460 0 OFFCURVE",
"482 -2 OFFCURVE",
"507 -2 CURVE SMOOTH",
"539 -2 LINE SMOOTH",
"574 -2 OFFCURVE",
"588 2 OFFCURVE",
"588 12 CURVE SMOOTH",
"588 17 OFFCURVE",
"586 22 OFFCURVE",
"580 31 CURVE SMOOTH",
"313 363 LINE",
"539 668 LINE SMOOTH",
"545 676 OFFCURVE",
"548 683 OFFCURVE",
"548 688 CURVE SMOOTH",
"548 696 OFFCURVE",
"534 702 OFFCURVE",
"504 702 CURVE SMOOTH"
);
}
);
width = 576;
}
);
unicode = 004B;
},
{
color = 11;
glyphname = L;
lastChange = "2014-11-19 04:29:10 +0000";
layers = (
{
anchors = (
{
name = bottom;
position = "{265, 0}";
},
{
name = caron;
position = "{252, 700}";
},
{
name = center;
position = "{313, 335}";
},
{
name = top;
position = "{147, 701}";
}
);
layerId = "166CCA77-1BE6-4372-BC61-BAE07403C72D";
name = Regular;
paths = (
{
closed = 1;
nodes = (
"134 702 LINE SMOOTH",
"100 702 OFFCURVE",
"85 693 OFFCURVE",
"85 676 CURVE SMOOTH",
"85 34 LINE SMOOTH",
"85 10 OFFCURVE",
"95 0 OFFCURVE",
"119 0 CURVE SMOOTH",
"454 0 LINE SMOOTH",
"471 0 OFFCURVE",
"478 12 OFFCURVE",
"478 39 CURVE SMOOTH",
"478 61 LINE SMOOTH",
"478 88 OFFCURVE",
"471 100 OFFCURVE",
"454 100 CURVE SMOOTH",
"202 100 LINE",
"202 676 LINE SMOOTH",
"202 693 OFFCURVE",
"187 702 OFFCURVE",
"153 702 CURVE SMOOTH"
);
}
);
width = 484;
}
);
unicode = 004C;
},
{
color = 11;
glyphname = Lslash;
lastChange = "2014-11-19 04:29:10 +0000";
layers = (
{
layerId = "166CCA77-1BE6-4372-BC61-BAE07403C72D";
name = Regular;
paths = (
{
closed = 1;
nodes = (
"127 702 LINE SMOOTH",
"93 702 OFFCURVE",
"79 693 OFFCURVE",
"79 676 CURVE SMOOTH",
"79 388 LINE",
"32 361 LINE SMOOTH",
"17 352 OFFCURVE",
"10 341 OFFCURVE",
"10 324 CURVE SMOOTH",
"10 312 LINE SMOOTH",
"10 301 OFFCURVE",
"14 295 OFFCURVE",
"20 295 CURVE SMOOTH",
"23 295 OFFCURVE",
"27 296 OFFCURVE",
"32 300 CURVE SMOOTH",
"79 327 LINE",
"79 34 LINE SMOOTH",
"79 10 OFFCURVE",
"89 0 OFFCURVE",
"113 0 CURVE SMOOTH",
"457 0 LINE SMOOTH",
"474 0 OFFCURVE",
"481 12 OFFCURVE",
"481 39 CURVE SMOOTH",
"481 61 LINE SMOOTH",
"481 88 OFFCURVE",
"474 100 OFFCURVE",
"457 100 CURVE SMOOTH",
"195 100 LINE",
"195 398 LINE",
"294 458 LINE SMOOTH",
"309 466 OFFCURVE",
"316 478 OFFCURVE",
"316 495 CURVE SMOOTH",
"316 507 LINE SMOOTH",
"316 517 OFFCURVE",
"312 523 OFFCURVE",
"306 523 CURVE SMOOTH",
"303 523 OFFCURVE",
"299 521 OFFCURVE",
"294 518 CURVE SMOOTH",
"195 459 LINE",
"195 676 LINE SMOOTH",
"195 693 OFFCURVE",
"181 702 OFFCURVE",
"147 702 CURVE SMOOTH"
);
}
);
width = 486;
}
);
unicode = 0141;
},
{
color = 11;
glyphname = M;
lastChange = "2014-11-19 04:29:11 +0000";
layers = (
{
layerId = "166CCA77-1BE6-4372-BC61-BAE07403C72D";
name = Regular;
paths = (
{
closed = 1;
nodes = (
"672 702 LINE SMOOTH",
"646 702 OFFCURVE",
"629 695 OFFCURVE",
"621 680 CURVE SMOOTH",
"441 363 LINE",
"422 323 LINE",
"404 365 LINE",
"224 680 LINE SMOOTH",
"216 695 OFFCURVE",
"199 702 OFFCURVE",
"173 702 CURVE SMOOTH",
"130 702 LINE SMOOTH",
"96 702 OFFCURVE",
"81 693 OFFCURVE",
"81 676 CURVE SMOOTH",
"81 24 LINE SMOOTH",
"81 7 OFFCURVE",
"96 -2 OFFCURVE",
"130 -2 CURVE SMOOTH",
"146 -2 LINE SMOOTH",
"180 -2 OFFCURVE",
"195 7 OFFCURVE",
"195 24 CURVE SMOOTH",
"195 512 LINE",
"198 510 LINE",
"375 198 LINE SMOOTH",
"382 188 OFFCURVE",
"391 183 OFFCURVE",
"405 183 CURVE SMOOTH",
"440 183 LINE SMOOTH",
"455 183 OFFCURVE",
"463 188 OFFCURVE",
"470 198 CURVE SMOOTH",
"645 506 LINE",
"648 508 LINE",
"648 24 LINE SMOOTH",
"648 7 OFFCURVE",
"663 -2 OFFCURVE",
"697 -2 CURVE SMOOTH",
"714 -2 LINE SMOOTH",
"748 -2 OFFCURVE",
"762 7 OFFCURVE",
"762 24 CURVE SMOOTH",
"762 676 LINE SMOOTH",
"762 693 OFFCURVE",
"748 702 OFFCURVE",
"714 702 CURVE SMOOTH"
);
}
);
width = 843;
}
);
unicode = 004D;
},
{
color = 11;
glyphname = N;
lastChange = "2014-11-19 04:29:11 +0000";
layers = (
{
anchors = (
{
name = bottom;
position = "{360, 0}";
},
{
name = top;
position = "{360, 700}";
}
);
layerId = "166CCA77-1BE6-4372-BC61-BAE07403C72D";
name = Regular;
paths = (
{
closed = 1;
nodes = (
"573 702 LINE SMOOTH",
"539 702 OFFCURVE",
"524 693 OFFCURVE",
"524 676 CURVE SMOOTH",
"524 200 LINE",
"496 249 LINE",
"213 680 LINE SMOOTH",
"201 697 OFFCURVE",
"185 702 OFFCURVE",
"160 702 CURVE SMOOTH",
"130 702 LINE SMOOTH",
"96 702 OFFCURVE",
"81 693 OFFCURVE",
"81 676 CURVE SMOOTH",
"81 24 LINE SMOOTH",
"81 7 OFFCURVE",
"96 -2 OFFCURVE",
"130 -2 CURVE SMOOTH",
"146 -2 LINE SMOOTH",
"180 -2 OFFCURVE",
"195 7 OFFCURVE",
"195 24 CURVE SMOOTH",
"195 506 LINE",
"219 463 LINE",
"513 18 LINE SMOOTH",
"523 3 OFFCURVE",
"538 -2 OFFCURVE",
"562 -2 CURVE SMOOTH",
"590 -2 LINE SMOOTH",
"624 -2 OFFCURVE",
"638 7 OFFCURVE",
"638 24 CURVE SMOOTH",
"638 676 LINE SMOOTH",
"638 693 OFFCURVE",
"624 702 OFFCURVE",
"590 702 CURVE SMOOTH"
);
}
);
width = 719;
}
);
unicode = 004E;
},
{
color = 11;
glyphname = O;
lastChange = "2014-11-19 04:29:10 +0000";
layers = (
{
anchors = (
{
name = bottom;
position = "{367, 0}";
},
{
name = horn;
position = "{479, 682}";
},
{
name = ogonek;
position = "{443, 0}";
},
{
name = top;
position = "{366, 700}";
}
);
layerId = "166CCA77-1BE6-4372-BC61-BAE07403C72D";
name = Regular;
paths = (
{
closed = 1;
nodes = (
"163 707 OFFCURVE",
"52 584 OFFCURVE",
"52 351 CURVE SMOOTH",
"52 118 OFFCURVE",
"163 -7 OFFCURVE",
"366 -7 CURVE SMOOTH",
"569 -7 OFFCURVE",
"679 118 OFFCURVE",
"679 351 CURVE SMOOTH",
"679 584 OFFCURVE",
"569 707 OFFCURVE",
"366 707 CURVE SMOOTH"
);
},
{
closed = 1;
nodes = (
"492 606 OFFCURVE",
"559 519 OFFCURVE",
"559 351 CURVE SMOOTH",
"559 183 OFFCURVE",
"492 93 OFFCURVE",
"365 93 CURVE SMOOTH",
"239 93 OFFCURVE",
"172 183 OFFCURVE",
"172 351 CURVE SMOOTH",
"172 519 OFFCURVE",
"239 606 OFFCURVE",
"365 606 CURVE SMOOTH"
);
}
);
width = 731;
}
);
unicode = 004F;
},
{
color = 11;
glyphname = Oslash;
lastChange = "2014-11-19 04:29:11 +0000";
layers = (
{
anchors = (
{
name = top;
position = "{366, 700}";
}
);
layerId = "166CCA77-1BE6-4372-BC61-BAE07403C72D";
name = Regular;
paths = (
{
closed = 1;
nodes = (
"162 707 OFFCURVE",
"51 584 OFFCURVE",
"51 351 CURVE SMOOTH",
"51 256 OFFCURVE",
"69 180 OFFCURVE",
"105 122 CURVE",
"35 44 LINE SMOOTH",
"29 38 OFFCURVE",
"27 32 OFFCURVE",
"27 27 CURVE SMOOTH",
"27 14 OFFCURVE",
"48 -5 OFFCURVE",
"60 -5 CURVE SMOOTH",
"66 -5 OFFCURVE",
"72 -1 OFFCURVE",
"78 6 CURVE SMOOTH",
"141 76 LINE",
"193 21 OFFCURVE",
"268 -7 OFFCURVE",
"365 -7 CURVE SMOOTH",
"568 -7 OFFCURVE",
"679 118 OFFCURVE",
"679 351 CURVE SMOOTH",
"679 458 OFFCURVE",
"655 542 OFFCURVE",
"610 601 CURVE",
"666 664 LINE SMOOTH",
"672 670 OFFCURVE",
"674 675 OFFCURVE",
"674 680 CURVE SMOOTH",
"674 693 OFFCURVE",
"653 712 OFFCURVE",
"641 712 CURVE SMOOTH",
"635 712 OFFCURVE",
"629 709 OFFCURVE",
"623 702 CURVE SMOOTH",
"570 642 LINE",
"519 684 OFFCURVE",
"450 707 OFFCURVE",
"365 707 CURVE SMOOTH"
);
},
{
closed = 1;
nodes = (
"548 469 OFFCURVE",
"559 416 OFFCURVE",
"559 351 CURVE SMOOTH",
"559 183 OFFCURVE",
"492 93 OFFCURVE",
"366 93 CURVE SMOOTH",
"301 93 OFFCURVE",
"251 117 OFFCURVE",
"219 163 CURVE",
"528 509 LINE"
);
},
{
closed = 1;
nodes = (
"420 606 OFFCURVE",
"463 590 OFFCURVE",
"495 558 CURVE",
"192 219 LINE",
"179 255 OFFCURVE",
"172 299 OFFCURVE",
"172 351 CURVE SMOOTH",
"172 519 OFFCURVE",
"239 606 OFFCURVE",
"365 606 CURVE SMOOTH"
);
}
);
width = 731;
}
);
unicode = 00D8;
},
{
color = 11;
glyphname = OE;
lastChange = "2014-11-19 04:29:11 +0000";
layers = (
{
anchors = (
{
name = top;
position = "{511, 700}";
}
);
layerId = "166CCA77-1BE6-4372-BC61-BAE07403C72D";
name = Regular;
paths = (
{
closed = 1;
nodes = (
"161 707 OFFCURVE",
"52 584 OFFCURVE",
"52 351 CURVE SMOOTH",
"52 118 OFFCURVE",
"161 -7 OFFCURVE",
"361 -7 CURVE SMOOTH",
"457 -7 OFFCURVE",
"532 22 OFFCURVE",
"585 81 CURVE",
"561 116 LINE",
"561 35 LINE SMOOTH",
"561 10 OFFCURVE",
"572 0 OFFCURVE",
"596 0 CURVE SMOOTH",
"955 0 LINE SMOOTH",
"972 0 OFFCURVE",
"979 12 OFFCURVE",
"979 39 CURVE SMOOTH",
"979 61 LINE SMOOTH",
"979 88 OFFCURVE",
"972 100 OFFCURVE",
"955 100 CURVE SMOOTH",
"678 100 LINE",
"678 308 LINE",
"925 308 LINE SMOOTH",
"942 308 OFFCURVE",
"949 320 OFFCURVE",
"949 347 CURVE SMOOTH",
"949 369 LINE SMOOTH",
"949 397 OFFCURVE",
"942 408 OFFCURVE",
"925 408 CURVE SMOOTH",
"678 408 LINE",
"678 600 LINE",
"954 600 LINE SMOOTH",
"971 600 OFFCURVE",
"978 612 OFFCURVE",
"978 639 CURVE SMOOTH",
"978 661 LINE SMOOTH",
"978 688 OFFCURVE",
"971 700 OFFCURVE",
"954 700 CURVE SMOOTH",
"596 700 LINE SMOOTH",
"572 700 OFFCURVE",
"561 690 OFFCURVE",
"561 667 CURVE SMOOTH",
"561 586 LINE",
"585 620 LINE",
"531 678 OFFCURVE",
"458 707 OFFCURVE",
"361 707 CURVE SMOOTH"
);
},
{
closed = 1;
nodes = (
"492 606 OFFCURVE",
"559 519 OFFCURVE",
"559 351 CURVE SMOOTH",
"559 183 OFFCURVE",
"492 93 OFFCURVE",
"365 93 CURVE SMOOTH",
"239 93 OFFCURVE",
"172 183 OFFCURVE",
"172 351 CURVE SMOOTH",
"172 519 OFFCURVE",
"239 606 OFFCURVE",
"365 606 CURVE SMOOTH"
);
}
);
width = 1021;
}
);
unicode = 0152;
},
{
color = 11;
glyphname = P;
lastChange = "2014-11-19 04:29:10 +0000";
layers = (
{
layerId = "166CCA77-1BE6-4372-BC61-BAE07403C72D";
name = Regular;
paths = (
{
closed = 1;
nodes = (
"112 700 LINE SMOOTH",
"88 700 OFFCURVE",
"78 690 OFFCURVE",
"78 666 CURVE SMOOTH",
"78 24 LINE SMOOTH",
"78 7 OFFCURVE",
"93 -2 OFFCURVE",
"127 -2 CURVE SMOOTH",
"146 -2 LINE SMOOTH",
"180 -2 OFFCURVE",
"195 7 OFFCURVE",
"195 24 CURVE SMOOTH",
"195 282 LINE",
"328 282 LINE SMOOTH",
"381 282 OFFCURVE",
"548 307 OFFCURVE",
"548 494 CURVE SMOOTH",
"548 673 OFFCURVE",
"406 700 OFFCURVE",
"318 700 CURVE SMOOTH"
);
},
{
closed = 1;
nodes = (
"364 600 OFFCURVE",
"428 581 OFFCURVE",
"428 494 CURVE SMOOTH",
"428 401 OFFCURVE",
"361 383 OFFCURVE",
"322 383 CURVE SMOOTH",
"195 383 LINE",
"195 600 LINE",
"314 600 LINE SMOOTH"
);
}
);
width = 570;
}
);
unicode = 0050;
},
{
color = 11;
glyphname = Thorn;
lastChange = "2014-11-19 04:29:11 +0000";
layers = (
{
layerId = "166CCA77-1BE6-4372-BC61-BAE07403C72D";
name = Regular;
paths = (
{
closed = 1;
nodes = (
"127 702 LINE SMOOTH",
"93 702 OFFCURVE",
"78 693 OFFCURVE",
"78 676 CURVE SMOOTH",
"78 24 LINE SMOOTH",
"78 7 OFFCURVE",
"93 -2 OFFCURVE",
"127 -2 CURVE SMOOTH",
"146 -2 LINE SMOOTH",
"180 -2 OFFCURVE",
"195 7 OFFCURVE",
"195 24 CURVE SMOOTH",
"195 167 LINE",
"331 167 LINE SMOOTH",
"384 167 OFFCURVE",
"551 191 OFFCURVE",
"551 379 CURVE SMOOTH",
"551 558 OFFCURVE",
"409 585 OFFCURVE",
"321 585 CURVE SMOOTH",
"195 585 LINE",
"195 676 LINE SMOOTH",
"195 693 OFFCURVE",
"180 702 OFFCURVE",
"146 702 CURVE SMOOTH"
);
},
{
closed = 1;
nodes = (
"366 485 OFFCURVE",
"430 466 OFFCURVE",
"430 379 CURVE SMOOTH",
"430 286 OFFCURVE",
"363 267 OFFCURVE",
"324 267 CURVE SMOOTH",
"194 267 LINE",
"194 485 LINE",
"316 485 LINE SMOOTH"
);
}
);
width = 567;
}
);
unicode = 00DE;
},
{
color = 11;
glyphname = Q;
lastChange = "2014-11-19 04:29:11 +0000";
layers = (
{
layerId = "166CCA77-1BE6-4372-BC61-BAE07403C72D";
name = Regular;
paths = (
{
closed = 1;
nodes = (
"163 707 OFFCURVE",
"52 582 OFFCURVE",
"52 348 CURVE SMOOTH",
"52 172 OFFCURVE",
"115 59 OFFCURVE",
"238 10 CURVE SMOOTH",
"432 -67 OFFCURVE",
"631 -147 OFFCURVE",
"642 -147 CURVE SMOOTH",
"669 -147 OFFCURVE",
"689 -76 OFFCURVE",
"689 -62 CURVE SMOOTH",
"689 -55 OFFCURVE",
"684 -50 OFFCURVE",
"675 -47 CURVE SMOOTH",
"498 12 LINE",
"498 16 LINE",
"615 59 OFFCURVE",
"679 172 OFFCURVE",
"679 348 CURVE SMOOTH",
"679 581 OFFCURVE",
"569 707 OFFCURVE",
"366 707 CURVE SMOOTH"
);
},
{
closed = 1;
nodes = (
"490 606 OFFCURVE",
"559 515 OFFCURVE",
"559 348 CURVE SMOOTH",
"559 181 OFFCURVE",
"490 90 OFFCURVE",
"365 90 CURVE SMOOTH",
"241 90 OFFCURVE",
"172 180 OFFCURVE",
"172 348 CURVE SMOOTH",
"172 516 OFFCURVE",
"241 606 OFFCURVE",
"365 606 CURVE SMOOTH"
);
}
);
width = 731;
}
);
unicode = 0051;
},
{
color = 11;
glyphname = R;
lastChange = "2014-11-19 04:29:11 +0000";
layers = (
{
anchors = (
{
name = bottom;
position = "{305, 0}";
},
{
name = top;
position = "{305, 700}";
}
);
layerId = "166CCA77-1BE6-4372-BC61-BAE07403C72D";
name = Regular;
paths = (
{
closed = 1;
nodes = (
"119 700 LINE SMOOTH",
"95 700 OFFCURVE",
"85 690 OFFCURVE",
"85 666 CURVE SMOOTH",
"85 24 LINE SMOOTH",
"85 7 OFFCURVE",
"100 -2 OFFCURVE",
"134 -2 CURVE SMOOTH",
"153 -2 LINE SMOOTH",
"187 -2 OFFCURVE",
"202 7 OFFCURVE",
"202 24 CURVE SMOOTH",
"202 293 LINE",
"270 293 LINE SMOOTH",
"342 293 OFFCURVE",
"372 273 OFFCURVE",
"398 212 CURVE SMOOTH",
"475 16 LINE SMOOTH",
"480 4 OFFCURVE",
"499 -2 OFFCURVE",
"523 -2 CURVE SMOOTH",
"546 -2 LINE SMOOTH",
"581 -2 OFFCURVE",
"596 5 OFFCURVE",
"596 16 CURVE SMOOTH",
"596 20 OFFCURVE",
"595 25 OFFCURVE",
"592 32 CURVE SMOOTH",
"510 239 LINE SMOOTH",
"488 295 OFFCURVE",
"462 337 OFFCURVE",
"428 350 CURVE",
"428 354 LINE",
"497 381 OFFCURVE",
"544 436 OFFCURVE",
"544 518 CURVE SMOOTH",
"544 642 OFFCURVE",
"463 700 OFFCURVE",
"299 700 CURVE SMOOTH"
);
},
{
closed = 1;
nodes = (
"379 600 OFFCURVE",
"424 567 OFFCURVE",
"424 501 CURVE SMOOTH",
"424 443 OFFCURVE",
"376 394 OFFCURVE",
"318 394 CURVE SMOOTH",
"202 394 LINE",
"202 600 LINE",
"311 600 LINE SMOOTH"
);
}
);
width = 610;
}
);
unicode = 0052;
},
{
color = 11;
glyphname = S;
lastChange = "2014-11-19 04:29:10 +0000";
layers = (
{
anchors = (
{
name = bottom;
position = "{250, 0}";
},
{
name = top;
position = "{250, 700}";
}
);
layerId = "166CCA77-1BE6-4372-BC61-BAE07403C72D";
name = Regular;
paths = (
{
closed = 1;
nodes = (
"145 707 OFFCURVE",
"43 638 OFFCURVE",
"43 514 CURVE SMOOTH",
"43 388 OFFCURVE",
"122 349 OFFCURVE",
"200 316 CURVE SMOOTH",
"277 284 OFFCURVE",
"353 261 OFFCURVE",
"353 190 CURVE SMOOTH",
"353 125 OFFCURVE",
"299 93 OFFCURVE",
"238 93 CURVE SMOOTH",
"145 93 OFFCURVE",
"92 142 OFFCURVE",
"77 142 CURVE SMOOTH",
"61 142 OFFCURVE",
"30 95 OFFCURVE",
"30 73 CURVE SMOOTH",
"30 43 OFFCURVE",
"117 -7 OFFCURVE",
"249 -7 CURVE SMOOTH",
"373 -7 OFFCURVE",
"473 59 OFFCURVE",
"473 198 CURVE SMOOTH",
"473 334 OFFCURVE",
"373 374 OFFCURVE",
"287 408 CURVE SMOOTH",
"221 434 OFFCURVE",
"164 453 OFFCURVE",
"164 518 CURVE SMOOTH",
"164 569 OFFCURVE",
"201 606 OFFCURVE",
"277 606 CURVE SMOOTH",
"351 606 OFFCURVE",
"385 574 OFFCURVE",
"399 574 CURVE SMOOTH",
"415 574 OFFCURVE",
"441 622 OFFCURVE",
"441 642 CURVE SMOOTH",
"441 677 OFFCURVE",
"350 707 OFFCURVE",
"272 707 CURVE SMOOTH"
);
}
);
width = 500;
}
);
unicode = 0053;
},
{
color = 11;
glyphname = T;
lastChange = "2014-11-19 04:29:11 +0000";
layers = (
{
anchors = (
{
name = bottom;
position = "{275, 0}";
},
{
name = center;
position = "{275, 350}";
},
{
name = top;
position = "{275, 700}";
}
);
layerId = "166CCA77-1BE6-4372-BC61-BAE07403C72D";
name = Regular;
paths = (
{
closed = 1;
nodes = (
"39 700 LINE SMOOTH",
"22 700 OFFCURVE",
"15 688 OFFCURVE",
"15 661 CURVE SMOOTH",
"15 639 LINE SMOOTH",
"15 612 OFFCURVE",
"22 600 OFFCURVE",
"39 600 CURVE SMOOTH",
"217 600 LINE",
"217 24 LINE SMOOTH",
"217 7 OFFCURVE",
"232 -2 OFFCURVE",
"266 -2 CURVE SMOOTH",
"285 -2 LINE SMOOTH",
"320 -2 OFFCURVE",
"334 7 OFFCURVE",
"334 24 CURVE SMOOTH",
"334 600 LINE",
"510 600 LINE SMOOTH",
"527 600 OFFCURVE",
"534 612 OFFCURVE",
"534 639 CURVE SMOOTH",
"534 661 LINE SMOOTH",
"534 688 OFFCURVE",
"527 700 OFFCURVE",
"510 700 CURVE SMOOTH"
);
}
);
width = 549;
}
);
unicode = 0054;
},
{
color = 11;
glyphname = U;
lastChange = "2014-11-19 04:29:10 +0000";
layers = (
{
anchors = (
{
name = bottom;
position = "{357, 0}";
},
{
name = horn;
position = "{569, 702}";
},
{
name = ogonek;
position = "{438, 0}";
},
{
name = top;
position = "{356, 700}";
}
);
layerId = "166CCA77-1BE6-4372-BC61-BAE07403C72D";
name = Regular;
paths = (
{
closed = 1;
nodes = (
"569 702 LINE SMOOTH",
"535 702 OFFCURVE",
"520 693 OFFCURVE",
"520 676 CURVE SMOOTH",
"520 231 LINE SMOOTH",
"520 151 OFFCURVE",
"452 93 OFFCURVE",
"356 93 CURVE SMOOTH",
"261 93 OFFCURVE",
"193 150 OFFCURVE",
"193 231 CURVE SMOOTH",
"193 676 LINE SMOOTH",
"193 693 OFFCURVE",
"178 702 OFFCURVE",
"144 702 CURVE SMOOTH",
"125 702 LINE SMOOTH",
"91 702 OFFCURVE",
"76 693 OFFCURVE",
"76 676 CURVE SMOOTH",
"76 228 LINE SMOOTH",
"76 80 OFFCURVE",
"177 -7 OFFCURVE",
"356 -7 CURVE SMOOTH",
"535 -7 OFFCURVE",
"637 80 OFFCURVE",
"637 228 CURVE SMOOTH",
"637 676 LINE SMOOTH",
"637 693 OFFCURVE",
"622 702 OFFCURVE",
"588 702 CURVE SMOOTH"
);
}
);
width = 712;
}
);
unicode = 0055;
},
{
color = 11;
glyphname = V;
lastChange = "2014-11-19 04:29:11 +0000";
layers = (
{
layerId = "166CCA77-1BE6-4372-BC61-BAE07403C72D";
name = Regular;
paths = (
{
closed = 1;
nodes = (
"534 702 LINE SMOOTH",
"510 702 OFFCURVE",
"491 696 OFFCURVE",
"486 680 CURVE SMOOTH",
"321 191 LINE",
"310 146 LINE",
"306 146 LINE",
"296 190 LINE",
"133 680 LINE SMOOTH",
"127 697 OFFCURVE",
"108 702 OFFCURVE",
"84 702 CURVE SMOOTH",
"65 702 LINE SMOOTH",
"30 702 OFFCURVE",
"14 695 OFFCURVE",
"14 683 CURVE SMOOTH",
"14 678 OFFCURVE",
"15 674 OFFCURVE",
"17 668 CURVE SMOOTH",
"241 16 LINE SMOOTH",
"245 2 OFFCURVE",
"264 -2 OFFCURVE",
"288 -2 CURVE SMOOTH",
"328 -2 LINE SMOOTH",
"352 -2 OFFCURVE",
"370 2 OFFCURVE",
"375 16 CURVE SMOOTH",
"598 667 LINE SMOOTH",
"600 674 OFFCURVE",
"601 678 OFFCURVE",
"601 683 CURVE SMOOTH",
"601 695 OFFCURVE",
"586 702 OFFCURVE",
"551 702 CURVE SMOOTH"
);
}
);
width = 617;
}
);
unicode = 0056;
},
{
color = 11;
glyphname = W;
lastChange = "2014-11-19 04:29:10 +0000";
layers = (
{
anchors = (
{
name = top;
position = "{441, 700}";
}
);
layerId = "166CCA77-1BE6-4372-BC61-BAE07403C72D";
name = Regular;
paths = (
{
closed = 1;
nodes = (
"816 702 LINE SMOOTH",
"788 702 OFFCURVE",
"768 695 OFFCURVE",
"764 679 CURVE SMOOTH",
"662 263 LINE",
"654 228 OFFCURVE",
"644 185 OFFCURVE",
"634 143 CURVE",
"628 168 OFFCURVE",
"618 225 OFFCURVE",
"609 261 CURVE SMOOTH",
"505 683 LINE SMOOTH",
"502 698 OFFCURVE",
"484 702 OFFCURVE",
"459 702 CURVE SMOOTH",
"433 702 LINE SMOOTH",
"408 702 OFFCURVE",
"391 698 OFFCURVE",
"387 683 CURVE SMOOTH",
"283 263 LINE",
"275 230 OFFCURVE",
"263 189 OFFCURVE",
"255 146 CURVE",
"249 173 OFFCURVE",
"239 232 OFFCURVE",
"231 262 CURVE SMOOTH",
"127 679 LINE SMOOTH",
"123 695 OFFCURVE",
"104 702 OFFCURVE",
"75 702 CURVE SMOOTH",
"58 702 LINE SMOOTH",
"23 702 OFFCURVE",
"7 694 OFFCURVE",
"7 681 CURVE SMOOTH",
"7 677 OFFCURVE",
"8 672 OFFCURVE",
"10 667 CURVE SMOOTH",
"175 16 LINE SMOOTH",
"178 3 OFFCURVE",
"196 -2 OFFCURVE",
"221 -2 CURVE SMOOTH",
"276 -2 LINE SMOOTH",
"299 -2 OFFCURVE",
"319 3 OFFCURVE",
"323 16 CURVE SMOOTH",
"421 397 LINE",
"440 500 LINE",
"459 397 LINE",
"556 16 LINE SMOOTH",
"559 3 OFFCURVE",
"579 -2 OFFCURVE",
"603 -2 CURVE SMOOTH",
"658 -2 LINE SMOOTH",
"681 -2 OFFCURVE",
"701 3 OFFCURVE",
"704 16 CURVE SMOOTH",
"873 667 LINE SMOOTH",
"874 672 OFFCURVE",
"876 678 OFFCURVE",
"876 681 CURVE SMOOTH",
"876 694 OFFCURVE",
"860 702 OFFCURVE",
"824 702 CURVE SMOOTH"
);
}
);
width = 882;
}
);
unicode = 0057;
},
{
color = 11;
glyphname = X;
lastChange = "2014-11-19 04:29:10 +0000";
layers = (
{
layerId = "166CCA77-1BE6-4372-BC61-BAE07403C72D";
name = Regular;
paths = (
{
closed = 1;
nodes = (
"505 702 LINE SMOOTH",
"482 702 OFFCURVE",
"463 699 OFFCURVE",
"454 686 CURVE SMOOTH",
"309 468 LINE",
"169 685 LINE SMOOTH",
"160 699 OFFCURVE",
"143 702 OFFCURVE",
"118 702 CURVE SMOOTH",
"92 702 LINE SMOOTH",
"54 702 OFFCURVE",
"39 695 OFFCURVE",
"39 684 CURVE SMOOTH",
"39 678 OFFCURVE",
"42 671 OFFCURVE",
"47 663 CURVE SMOOTH",
"240 365 LINE",
"24 37 LINE SMOOTH",
"18 28 OFFCURVE",
"15 21 OFFCURVE",
"15 16 CURVE SMOOTH",
"15 4 OFFCURVE",
"31 -2 OFFCURVE",
"68 -2 CURVE SMOOTH",
"90 -2 LINE SMOOTH",
"112 -2 OFFCURVE",
"131 0 OFFCURVE",
"140 14 CURVE SMOOTH",
"305 264 LINE",
"467 15 LINE SMOOTH",
"476 1 OFFCURVE",
"493 -2 OFFCURVE",
"518 -2 CURVE SMOOTH",
"544 -2 LINE SMOOTH",
"582 -2 OFFCURVE",
"597 4 OFFCURVE",
"597 16 CURVE SMOOTH",
"597 22 OFFCURVE",
"594 29 OFFCURVE",
"589 37 CURVE SMOOTH",
"375 367 LINE",
"570 663 LINE SMOOTH",
"575 671 OFFCURVE",
"579 679 OFFCURVE",
"579 684 CURVE SMOOTH",
"579 696 OFFCURVE",
"563 702 OFFCURVE",
"525 702 CURVE SMOOTH"
);
}
);
width = 611;
}
);
unicode = 0058;
},
{
color = 11;
glyphname = Y;
lastChange = "2014-11-19 04:29:10 +0000";
layers = (
{
anchors = (
{
name = bottom;
position = "{280, 0}";
},
{
name = top;
position = "{280, 700}";
}
);
layerId = "166CCA77-1BE6-4372-BC61-BAE07403C72D";
name = Regular;
paths = (
{
closed = 1;
nodes = (
"459 702 OFFCURVE",
"439 699 OFFCURVE",
"431 686 CURVE SMOOTH",
"283 453 LINE",
"137 685 LINE SMOOTH",
"129 699 OFFCURVE",
"111 702 OFFCURVE",
"87 702 CURVE SMOOTH",
"62 702 LINE SMOOTH",
"23 702 OFFCURVE",
"8 695 OFFCURVE",
"8 684 CURVE SMOOTH",
"8 678 OFFCURVE",
"11 671 OFFCURVE",
"17 663 CURVE SMOOTH",
"222 349 LINE",
"222 24 LINE SMOOTH",
"222 7 OFFCURVE",
"236 -2 OFFCURVE",
"270 -2 CURVE SMOOTH",
"290 -2 LINE SMOOTH",
"324 -2 OFFCURVE",
"338 7 OFFCURVE",
"338 24 CURVE SMOOTH",
"338 346 LINE",
"544 663 LINE SMOOTH",
"548 671 OFFCURVE",
"552 678 OFFCURVE",
"552 684 CURVE SMOOTH",
"552 695 OFFCURVE",
"537 701 OFFCURVE",
"502 702 CURVE",
"483 702 LINE"
);
}
);
width = 559;
}
);
unicode = 0059;
},
{
color = 11;
glyphname = Z;
lastChange = "2014-11-19 04:29:10 +0000";
layers = (
{
anchors = (
{
name = bottom;
position = "{310, 0}";
},
{
name = top;
position = "{308, 700}";
}
);
layerId = "166CCA77-1BE6-4372-BC61-BAE07403C72D";
name = Regular;
paths = (
{
closed = 1;
nodes = (
"89 700 LINE SMOOTH",
"72 700 OFFCURVE",
"64 688 OFFCURVE",
"64 659 CURVE SMOOTH",
"64 641 LINE SMOOTH",
"64 612 OFFCURVE",
"72 600 OFFCURVE",
"89 600 CURVE SMOOTH",
"413 600 LINE",
"36 80 LINE SMOOTH",
"34 77 OFFCURVE",
"33 73 OFFCURVE",
"33 69 CURVE SMOOTH",
"33 46 OFFCURVE",
"50 0 OFFCURVE",
"64 0 CURVE",
"549 0 LINE SMOOTH",
"566 0 OFFCURVE",
"574 12 OFFCURVE",
"574 41 CURVE SMOOTH",
"574 59 LINE SMOOTH",
"574 88 OFFCURVE",
"566 100 OFFCURVE",
"549 100 CURVE SMOOTH",
"196 100 LINE",
"573 620 LINE SMOOTH",
"574 622 OFFCURVE",
"575 625 OFFCURVE",
"575 630 CURVE SMOOTH",
"575 653 OFFCURVE",
"557 700 OFFCURVE",
"546 700 CURVE SMOOTH"
);
}
);
width = 616;
}
);
unicode = 005A;
},
{
color = 1;
glyphname = A.ss02;
lastChange = "2014-11-22 05:19:21 +0000";
layers = (
{
background = {
paths = (
{
closed = 1;
nodes = (
"72 31 OFFCURVE",
"79 0 OFFCURVE",
"132 0 CURVE SMOOTH",
"185 0 OFFCURVE",
"200 31 OFFCURVE",
"246 31 CURVE SMOOTH",
"291 31 OFFCURVE",
"311 0 OFFCURVE",
"361 0 CURVE SMOOTH",
"410 0 OFFCURVE",
"430 31 OFFCURVE",
"476 31 CURVE SMOOTH",
"522 31 OFFCURVE",
"537 0 OFFCURVE",
"590 0 CURVE SMOOTH",
"643 0 OFFCURVE",
"650 31 OFFCURVE",
"701 31 CURVE SMOOTH",
"714 31 OFFCURVE",
"720 41 OFFCURVE",
"720 65 CURVE",
"720 78 LINE SMOOTH",
"720 99 OFFCURVE",
"716 113 OFFCURVE",
"701 113 CURVE SMOOTH",
"650 113 OFFCURVE",
"643 81 OFFCURVE",
"590 81 CURVE SMOOTH",
"537 81 OFFCURVE",
"522 113 OFFCURVE",
"476 113 CURVE SMOOTH",
"430 113 OFFCURVE",
"410 81 OFFCURVE",
"361 81 CURVE SMOOTH",
"311 81 OFFCURVE",
"291 113 OFFCURVE",
"246 113 CURVE SMOOTH",
"200 113 OFFCURVE",
"185 81 OFFCURVE",
"132 81 CURVE SMOOTH",
"79 81 OFFCURVE",
"72 113 OFFCURVE",
"19 113 CURVE",
"4 113 OFFCURVE",
"0 99 OFFCURVE",
"0 78 CURVE SMOOTH",
"0 65 LINE",
"0 41 OFFCURVE",
"6 31 OFFCURVE",
"19 31 CURVE"
);
},
{
closed = 1;
nodes = (
"144 495 LINE",
"129 487 OFFCURVE",
"123 480 OFFCURVE",
"123 471 CURVE SMOOTH",
"123 465 OFFCURVE",
"126 457 OFFCURVE",
"132 446 CURVE SMOOTH",
"148 419 OFFCURVE",
"160 402 OFFCURVE",
"179 331 CURVE",
"224 143 LINE",
"231 144 OFFCURVE",
"238 145 OFFCURVE",
"246 145 CURVE SMOOTH",
"289 145 OFFCURVE",
"306 119 OFFCURVE",
"347 114 CURVE",
"347 602 LINE"
);
},
{
closed = 1;
nodes = (
"536 592 LINE SMOOTH",
"536 605 OFFCURVE",
"529 606 OFFCURVE",
"509 606 CURVE",
"509 672 LINE SMOOTH",
"509 687 OFFCURVE",
"495 690 OFFCURVE",
"468 690 CURVE SMOOTH",
"409 690 LINE",
"409 734 LINE SMOOTH",
"409 758 OFFCURVE",
"386 763 OFFCURVE",
"361 763 CURVE SMOOTH",
"335 763 OFFCURVE",
"312 758 OFFCURVE",
"312 734 CURVE SMOOTH",
"312 690 LINE",
"253 690 LINE SMOOTH",
"226 690 OFFCURVE",
"213 687 OFFCURVE",
"213 672 CURVE SMOOTH",
"213 606 LINE",
"192 606 OFFCURVE",
"185 605 OFFCURVE",
"185 592 CURVE SMOOTH",
"185 546 LINE",
"361 638 LINE",
"536 546 LINE"
);
},
{
closed = 1;
nodes = (
"574 419 OFFCURVE",
"561 402 OFFCURVE",
"543 331 CURVE",
"497 143 LINE",
"491 144 OFFCURVE",
"483 145 OFFCURVE",
"475 145 CURVE SMOOTH",
"433 145 OFFCURVE",
"416 119 OFFCURVE",
"374 114 CURVE",
"374 602 LINE",
"374 602 OFFCURVE",
"558 504 OFFCURVE",
"577 495 CURVE",
"592 487 OFFCURVE",
"598 480 OFFCURVE",
"598 471 CURVE SMOOTH",
"598 465 OFFCURVE",
"595 457 OFFCURVE",
"589 446 CURVE"
);
}
);
};
layerId = "166CCA77-1BE6-4372-BC61-BAE07403C72D";
name = Regular;
paths = (
{
closed = 1;
nodes = (
"72 31 OFFCURVE",
"79 0 OFFCURVE",
"132 0 CURVE SMOOTH",
"159.438 0 OFFCURVE",
"176.692 8.308 OFFCURVE",
"193.334 16.323 CURVE SMOOTH",
"208.839 23.789 OFFCURVE",
"223.814 31 OFFCURVE",
"246 31 CURVE SMOOTH",
"267.907 31 OFFCURVE",
"283.89 23.653 OFFCURVE",
"300.293 16.112 CURVE SMOOTH",
"317.584 8.164 OFFCURVE",
"335.342 0 OFFCURVE",
"361 0 CURVE SMOOTH",
"385.887 0 OFFCURVE",
"403.293 7.997 OFFCURVE",
"420.424 15.867 CURVE SMOOTH",
"437.023 23.493 OFFCURVE",
"453.363 31 OFFCURVE",
"476 31 CURVE SMOOTH",
"498.186 31 OFFCURVE",
"513.161 23.789 OFFCURVE",
"528.666 16.323 CURVE SMOOTH",
"545.308 8.308 OFFCURVE",
"562.562 0 OFFCURVE",
"590 0 CURVE SMOOTH",
"616.755 0 OFFCURVE",
"631.787 7.9 OFFCURVE",
"646.675 15.724 CURVE SMOOTH",
"661.28 23.398 OFFCURVE",
"675.745 31 OFFCURVE",
"701 31 CURVE SMOOTH",
"714 31 OFFCURVE",
"720 41 OFFCURVE",
"720 65 CURVE SMOOTH",
"720 78 LINE SMOOTH",
"720 99 OFFCURVE",
"716 113 OFFCURVE",
"701 113 CURVE SMOOTH",
"675.745 113 OFFCURVE",
"661.28 105.153 OFFCURVE",
"646.675 97.231 CURVE SMOOTH",
"631.787 89.155 OFFCURVE",
"616.755 81 OFFCURVE",
"590 81 CURVE SMOOTH",
"562.562 81 OFFCURVE",
"545.308 89.576 OFFCURVE",
"528.666 97.849 CURVE SMOOTH",
"513.161 105.556 OFFCURVE",
"498.186 113 OFFCURVE",
"476 113 CURVE SMOOTH",
"453.363 113 OFFCURVE",
"437.023 105.251 OFFCURVE",
"420.424 97.379 CURVE SMOOTH",
"403.293 89.255 OFFCURVE",
"385.887 81 OFFCURVE",
"361 81 CURVE SMOOTH",
"335.342 81 OFFCURVE",
"317.584 89.427 OFFCURVE",
"300.293 97.632 CURVE SMOOTH",
"283.89 105.416 OFFCURVE",
"267.907 113 OFFCURVE",
"246 113 CURVE SMOOTH",
"223.814 113 OFFCURVE",
"208.839 105.556 OFFCURVE",
"193.334 97.849 CURVE SMOOTH",
"176.692 89.576 OFFCURVE",
"159.438 81 OFFCURVE",
"132 81 CURVE SMOOTH",
"105.5 81 OFFCURVE",
"90.5 89 OFFCURVE",
"75.5 97 CURVE SMOOTH",
"60.5 105 OFFCURVE",
"45.5 113 OFFCURVE",
"19 113 CURVE SMOOTH",
"4 113 OFFCURVE",
"0 99 OFFCURVE",
"0 78 CURVE SMOOTH",
"0 65 LINE SMOOTH",
"0 41 OFFCURVE",
"6 31 OFFCURVE",
"19 31 CURVE SMOOTH"
);
},
{
closed = 1;
nodes = (
"144 495 LINE SMOOTH",
"129 487 OFFCURVE",
"123 480 OFFCURVE",
"123 471 CURVE SMOOTH",
"123 463.935 OFFCURVE",
"130.023 449.292 OFFCURVE",
"135.425 440.254 CURVE SMOOTH",
"149.779 416.248 OFFCURVE",
"161.379 396.846 OFFCURVE",
"179 331 CURVE SMOOTH",
"224 143 LINE",
"231 144 OFFCURVE",
"238 145 OFFCURVE",
"246 145 CURVE SMOOTH",
"269.3 145 OFFCURVE",
"284.966 137.366 OFFCURVE",
"300.953 129.576 CURVE SMOOTH",
"314.47 122.989 OFFCURVE",
"328.216 116.291 OFFCURVE",
"347 114 CURVE",
"347 602 LINE"
);
},
{
closed = 1;
nodes = (
"536 592 LINE SMOOTH",
"536 605 OFFCURVE",
"529 606 OFFCURVE",
"509 606 CURVE",
"509 672 LINE SMOOTH",
"509 687 OFFCURVE",
"495 690 OFFCURVE",
"468 690 CURVE SMOOTH",
"409 690 LINE",
"409 734 LINE SMOOTH",
"409 758 OFFCURVE",
"386 763 OFFCURVE",
"361 763 CURVE SMOOTH",
"335 763 OFFCURVE",
"312 758 OFFCURVE",
"312 734 CURVE SMOOTH",
"312 690 LINE",
"253 690 LINE SMOOTH",
"226 690 OFFCURVE",
"213 687 OFFCURVE",
"213 672 CURVE SMOOTH",
"213 606 LINE",
"192 606 OFFCURVE",
"185 605 OFFCURVE",
"185 592 CURVE SMOOTH",
"185 546 LINE",
"361 638 LINE",
"536 546 LINE"
);
},
{
closed = 1;
nodes = (
"589.38 446.851 OFFCURVE",
"579.262 428.854 CURVE SMOOTH",
"568.003 408.834 OFFCURVE",
"557.017 386.291 OFFCURVE",
"543 331 CURVE SMOOTH",
"497 143 LINE",
"491 144 OFFCURVE",
"483 145 OFFCURVE",
"475 145 CURVE SMOOTH",
"452.527 145 OFFCURVE",
"437.212 137.556 OFFCURVE",
"421.395 129.869 CURVE SMOOTH",
"407.651 123.189 OFFCURVE",
"393.527 116.325 OFFCURVE",
"374 114 CURVE",
"374 602 LINE",
"577 495 LINE SMOOTH",
"592.039 487.073 OFFCURVE",
"598 480 OFFCURVE",
"598 471 CURVE SMOOTH",
"598 460.78 OFFCURVE"
);
}
);
width = 720;
}
);
},
{
color = 1;
glyphname = B.ss02;
lastChange = "2014-11-22 05:19:18 +0000";
layers = (
{
background = {
paths = (
{
closed = 1;
nodes = (
"533 272 LINE",
"456 272 LINE",
"456 204 LINE",
"533 204 LINE"
);
},
{
closed = 1;
nodes = (
"640 204 LINE",
"640 272 LINE",
"572 272 LINE",
"572 204 LINE",
"601 204 LINE"
);
},
{
closed = 1;
nodes = (
"679 204 LINE",
"776 204 LINE",
"737 272 LINE",
"679 272 LINE"
);
},
{
closed = 1;
nodes = (
"533 387 LINE",
"533 446 LINE",
"271 446 LINE",
"265 446 OFFCURVE",
"262 451 OFFCURVE",
"262 458 CURVE",
"262 472 LINE",
"262 479 OFFCURVE",
"265 484 OFFCURVE",
"271 484 CURVE",
"834 484 LINE",
"840 484 OFFCURVE",
"843 479 OFFCURVE",
"843 472 CURVE",
"843 458 LINE",
"843 451 OFFCURVE",
"840 446 OFFCURVE",
"834 446 CURVE",
"572 446 LINE",
"572 387 LINE",
"615 387 LINE",
"642 387 OFFCURVE",
"647 384 OFFCURVE",
"659 367 CURVE",
"670 349 LINE",
"730 349 LINE SMOOTH",
"757 349 OFFCURVE",
"764 346 OFFCURVE",
"776 329 CURVE",
"872 194 OFFCURVE",
"872 194 OFFCURVE",
"872 194 CURVE SMOOTH",
"872 145 OFFCURVE",
"795 97 OFFCURVE",
"727 97 CURVE SMOOTH",
"438 97 LINE SMOOTH",
"411 97 OFFCURVE",
"403 103 OFFCURVE",
"397 116 CURVE SMOOTH",
"369 174 LINE",
"40 281 LINE",
"22 287 OFFCURVE",
"10 302 OFFCURVE",
"10 320 CURVE",
"10 416 LINE",
"10 423 OFFCURVE",
"14 426 OFFCURVE",
"28 426 CURVE",
"45 426 OFFCURVE",
"57 420 OFFCURVE",
"61 411 CURVE",
"87 349 LINE",
"447 349 LINE",
"458 367 LINE",
"470 384 OFFCURVE",
"475 387 OFFCURVE",
"502 387 CURVE"
);
},
{
closed = 1;
nodes = (
"838 0 OFFCURVE",
"843 9 OFFCURVE",
"843 21 CURVE",
"843 47 LINE",
"843 59 OFFCURVE",
"838 68 OFFCURVE",
"827 68 CURVE",
"388 68 LINE",
"377 68 OFFCURVE",
"372 59 OFFCURVE",
"372 47 CURVE",
"372 21 LINE",
"372 9 OFFCURVE",
"377 0 OFFCURVE",
"388 0 CURVE",
"827 0 LINE"
);
}
);
};
guideLines = (
{
angle = 270;
position = "{533, 167}";
}
);
layerId = "166CCA77-1BE6-4372-BC61-BAE07403C72D";
name = Regular;
paths = (
{
closed = 1;
nodes = (
"533 272 LINE",
"456 272 LINE",
"456 204 LINE",
"533 204 LINE"
);
},
{
closed = 1;
nodes = (
"640 204 LINE",
"640 272 LINE",
"572 272 LINE",
"572 204 LINE"
);
},
{
closed = 1;
nodes = (
"679 204 LINE",
"776 204 LINE",
"737 272 LINE",
"679 272 LINE"
);
},
{
closed = 1;
nodes = (
"533 387 LINE",
"533 446 LINE",
"271 446 LINE SMOOTH",
"265 446 OFFCURVE",
"262 451 OFFCURVE",
"262 458 CURVE SMOOTH",
"262 472 LINE SMOOTH",
"262 479 OFFCURVE",
"265 484 OFFCURVE",
"271 484 CURVE SMOOTH",
"834 484 LINE SMOOTH",
"840 484 OFFCURVE",
"843 479 OFFCURVE",
"843 472 CURVE SMOOTH",
"843 458 LINE SMOOTH",
"843 451 OFFCURVE",
"840 446 OFFCURVE",
"834 446 CURVE SMOOTH",
"572 446 LINE",
"572 387 LINE",
"615 387 LINE SMOOTH",
"642 387 OFFCURVE",
"647 384 OFFCURVE",
"659 367 CURVE SMOOTH",
"670 349 LINE",
"730 349 LINE SMOOTH",
"757 349 OFFCURVE",
"764 346 OFFCURVE",
"776 329 CURVE SMOOTH",
"872 194 LINE",
"872 145 OFFCURVE",
"795 97 OFFCURVE",
"727 97 CURVE SMOOTH",
"438 97 LINE SMOOTH",
"411 97 OFFCURVE",
"403 103 OFFCURVE",
"397 116 CURVE SMOOTH",
"369 174 LINE",
"40 281 LINE SMOOTH",
"22 287 OFFCURVE",
"10 302 OFFCURVE",
"10 320 CURVE SMOOTH",
"10 416 LINE SMOOTH",
"10 423 OFFCURVE",
"14 426 OFFCURVE",
"28 426 CURVE SMOOTH",
"45 426 OFFCURVE",
"57 420 OFFCURVE",
"61 411 CURVE SMOOTH",
"87 349 LINE",
"447 349 LINE",
"458 367 LINE SMOOTH",
"470 384 OFFCURVE",
"475 387 OFFCURVE",
"502 387 CURVE SMOOTH"
);
},
{
closed = 1;
nodes = (
"838 0 OFFCURVE",
"843 9 OFFCURVE",
"843 21 CURVE SMOOTH",
"843 47 LINE SMOOTH",
"843 59 OFFCURVE",
"838 68 OFFCURVE",
"827 68 CURVE SMOOTH",
"388 68 LINE SMOOTH",
"377 68 OFFCURVE",
"372 59 OFFCURVE",
"372 47 CURVE SMOOTH",
"372 21 LINE SMOOTH",
"372 9 OFFCURVE",
"377 0 OFFCURVE",
"388 0 CURVE SMOOTH",
"827 0 LINE SMOOTH"
);
}
);
width = 882;
}
);
},
{
color = 1;
glyphname = C.ss02;
lastChange = "2014-11-22 05:19:18 +0000";
layers = (
{
background = {
paths = (
{
closed = 1;
nodes = (
"778 748 OFFCURVE",
"779 739 OFFCURVE",
"779 728 CURVE SMOOTH",
"779 693 OFFCURVE",
"760 654 OFFCURVE",
"715 609 CURVE",
"579 470 LINE",
"753 51 LINE",
"755 46 OFFCURVE",
"756 42 OFFCURVE",
"756 39 CURVE",
"756 29 OFFCURVE",
"745 17 OFFCURVE",
"727 7 CURVE",
"720 3 OFFCURVE",
"715 0 OFFCURVE",
"710 0 CURVE",
"706 0 OFFCURVE",
"701 2 OFFCURVE",
"696 7 CURVE SMOOTH",
"696 7 OFFCURVE",
"435 303 OFFCURVE",
"435 303 CURVE",
"183 116 LINE",
"183 37 LINE",
"183 26 LINE",
"183 19 OFFCURVE",
"182 13 OFFCURVE",
"175 8 CURVE SMOOTH",
"165 2 OFFCURVE",
"160 0 OFFCURVE",
"155 0 CURVE",
"153 0 OFFCURVE",
"149 2 OFFCURVE",
"145 8 CURVE",
"99 80 LINE",
"99 80 OFFCURVE",
"27 125 OFFCURVE",
"27 125 CURVE",
"22 129 OFFCURVE",
"20 133 OFFCURVE",
"20 138 CURVE SMOOTH",
"20 141 OFFCURVE",
"20 144 OFFCURVE",
"25 152 CURVE SMOOTH",
"32 161 OFFCURVE",
"36 164 OFFCURVE",
"43 164 CURVE",
"137 164 LINE",
"323 415 LINE",
"29 674 LINE",
"22 681 OFFCURVE",
"20 685 OFFCURVE",
"20 690 CURVE",
"20 693 OFFCURVE",
"23 700 OFFCURVE",
"25 704 CURVE",
"35 720 LINE",
"42 729 OFFCURVE",
"51 736 OFFCURVE",
"59 736 CURVE",
"62 736 OFFCURVE",
"66 735 OFFCURVE",
"68 734 CURVE",
"490 559 LINE",
"629 696 LINE",
"683 746 OFFCURVE",
"712 759 OFFCURVE",
"749 759 CURVE SMOOTH",
"760 759 OFFCURVE",
"768 758 OFFCURVE",
"773 753 CURVE SMOOTH"
);
}
);
};
layerId = "166CCA77-1BE6-4372-BC61-BAE07403C72D";
name = Regular;
paths = (
{
closed = 1;
nodes = (
"779 752.5 OFFCURVE",
"779 728 CURVE SMOOTH",
"779 693 OFFCURVE",
"760 654 OFFCURVE",
"715 609 CURVE SMOOTH",
"579 470 LINE",
"753 51 LINE SMOOTH",
"755 46 OFFCURVE",
"756 42 OFFCURVE",
"756 39 CURVE SMOOTH",
"756 29 OFFCURVE",
"743 17 OFFCURVE",
"727 7 CURVE SMOOTH",
"720.773 3.108 OFFCURVE",
"715.18 0 OFFCURVE",
"710 0 CURVE SMOOTH",
"706 0 OFFCURVE",
"701 2 OFFCURVE",
"696 7 CURVE SMOOTH",
"435 303 LINE",
"183 116 LINE",
"183 26 LINE SMOOTH",
"183 19 OFFCURVE",
"182 13 OFFCURVE",
"175 8 CURVE SMOOTH",
"165 2 OFFCURVE",
"160 0 OFFCURVE",
"155 0 CURVE SMOOTH",
"153 0 OFFCURVE",
"149 2 OFFCURVE",
"145 8 CURVE SMOOTH",
"99 80 LINE",
"27 125 LINE SMOOTH",
"21.65 129.28 OFFCURVE",
"20 132.344 OFFCURVE",
"20 138 CURVE SMOOTH",
"20 141 OFFCURVE",
"20 144 OFFCURVE",
"25 152 CURVE SMOOTH",
"32 161 OFFCURVE",
"36 164 OFFCURVE",
"43 164 CURVE SMOOTH",
"137 164 LINE",
"323 415 LINE",
"29 674 LINE SMOOTH",
"22 681 OFFCURVE",
"20 685 OFFCURVE",
"20 690 CURVE SMOOTH",
"20 693 OFFCURVE",
"21.899 699.039 OFFCURVE",
"25 704 CURVE SMOOTH",
"35 720 LINE SMOOTH",
"41.492 730.388 OFFCURVE",
"51 736 OFFCURVE",
"59 736 CURVE SMOOTH",
"62 736 OFFCURVE",
"66.288 734.71 OFFCURVE",
"68 734 CURVE SMOOTH",
"490 559 LINE",
"629 696 LINE SMOOTH",
"683 746 OFFCURVE",
"712 759 OFFCURVE",
"749 759 CURVE SMOOTH",
"773.555 759 OFFCURVE"
);
}
);
width = 799;
}
);
},
{
color = 1;
glyphname = D.ss02;
lastChange = "2014-11-22 05:19:18 +0000";
layers = (
{
background = {
paths = (
{
closed = 1;
nodes = (
"878 268 OFFCURVE",
"840 290 OFFCURVE",
"773 290 CURVE SMOOTH",
"756 290 OFFCURVE",
"745 288 OFFCURVE",
"722 281 CURVE",
"606 242 LINE",
"606 242 LINE SMOOTH",
"112 455 LINE",
"102 455 OFFCURVE",
"83 445 OFFCURVE",
"64 426 CURVE",
"61 423 OFFCURVE",
"59 420 OFFCURVE",
"59 418 CURVE SMOOTH",
"59 411 OFFCURVE",
"67 402 OFFCURVE",
"73 395 CURVE",
"332 148 LINE",
"141 78 LINE SMOOTH",
"73 116 LINE SMOOTH",
"63 121 OFFCURVE",
"57 123 OFFCURVE",
"53 123 CURVE SMOOTH",
"49 123 OFFCURVE",
"46 123 OFFCURVE",
"36 116 CURVE",
"27 110 OFFCURVE",
"20 101 OFFCURVE",
"20 95 CURVE SMOOTH",
"20 93 OFFCURVE",
"21 90 OFFCURVE",
"24 86 CURVE",
"73 26 LINE",
"82 14 OFFCURVE",
"91 8 OFFCURVE",
"104 8 CURVE",
"137 7 LINE",
"191 5 OFFCURVE",
"292 0 OFFCURVE",
"334 0 CURVE",
"352 0 OFFCURVE",
"363 2 OFFCURVE",
"383 9 CURVE",
"771 146 LINE",
"842 173 OFFCURVE",
"878 230 OFFCURVE",
"878 248 CURVE",
"878 250 LINE"
);
}
);
};
layerId = "166CCA77-1BE6-4372-BC61-BAE07403C72D";
name = Regular;
paths = (
{
closed = 1;
nodes = (
"878 268 OFFCURVE",
"840 290 OFFCURVE",
"773 290 CURVE SMOOTH",
"756 290 OFFCURVE",
"745 288 OFFCURVE",
"722 281 CURVE SMOOTH",
"606 242 LINE",
"125.802 449.049 LINE SMOOTH",
"118.256 452.303 OFFCURVE",
"112.781 454 OFFCURVE",
"109.834 454 CURVE SMOOTH",
"102 454 OFFCURVE",
"83 445 OFFCURVE",
"64 426 CURVE SMOOTH",
"60.179 422.179 OFFCURVE",
"59 419.935 OFFCURVE",
"59 416.481 CURVE SMOOTH",
"59 411.429 OFFCURVE",
"64.3 403.297 OFFCURVE",
"73 395 CURVE SMOOTH",
"332 148 LINE",
"141 78 LINE",
"73 116 LINE SMOOTH",
"63 121 OFFCURVE",
"57 123 OFFCURVE",
"53 123 CURVE SMOOTH",
"49 123 OFFCURVE",
"46 123 OFFCURVE",
"36 116 CURVE SMOOTH",
"27 110 OFFCURVE",
"20 101 OFFCURVE",
"20 95 CURVE SMOOTH",
"20 93 OFFCURVE",
"21 90 OFFCURVE",
"24 86 CURVE SMOOTH",
"73 26 LINE SMOOTH",
"82 14 OFFCURVE",
"91 8 OFFCURVE",
"104 8 CURVE SMOOTH",
"153.176 6.404 OFFCURVE",
"171.252 5.631 OFFCURVE",
"192.673 4.723 CURVE SMOOTH",
"244.169 2.54 OFFCURVE",
"304.068 0 OFFCURVE",
"334 0 CURVE SMOOTH",
"352 0 OFFCURVE",
"363 2 OFFCURVE",
"383 9 CURVE SMOOTH",
"771 146 LINE SMOOTH",
"825.161 166.596 OFFCURVE",
"878 218.464 OFFCURVE",
"878 250 CURVE SMOOTH"
);
}
);
width = 864;
}
);
},
{
color = 1;
glyphname = E.ss02;
lastChange = "2014-11-22 05:19:18 +0000";
layers = (
{
background = {
paths = (
{
closed = 1;
nodes = (
"395 10 OFFCURVE",
"406 -1 OFFCURVE",
"419 -1 CURVE SMOOTH",
"432 -1 OFFCURVE",
"443 10 OFFCURVE",
"443 23 CURVE SMOOTH",
"443 37 OFFCURVE",
"432 48 OFFCURVE",
"419 48 CURVE SMOOTH",
"406 48 OFFCURVE",
"395 37 OFFCURVE",
"395 23 CURVE SMOOTH"
);
},
{
closed = 1;
nodes = (
"314 41 OFFCURVE",
"325 30 OFFCURVE",
"339 30 CURVE SMOOTH",
"352 30 OFFCURVE",
"363 41 OFFCURVE",
"363 54 CURVE SMOOTH",
"363 67 OFFCURVE",
"352 78 OFFCURVE",
"339 78 CURVE SMOOTH",
"325 78 OFFCURVE",
"314 67 OFFCURVE",
"314 54 CURVE SMOOTH"
);
},
{
closed = 1;
nodes = (
"235 68 OFFCURVE",
"246 57 OFFCURVE",
"260 57 CURVE SMOOTH",
"273 57 OFFCURVE",
"284 68 OFFCURVE",
"284 81 CURVE SMOOTH",
"284 95 OFFCURVE",
"273 106 OFFCURVE",
"260 106 CURVE SMOOTH",
"246 106 OFFCURVE",
"235 95 OFFCURVE",
"235 81 CURVE SMOOTH"
);
},
{
closed = 1;
nodes = (
"588 155 OFFCURVE",
"541 177 OFFCURVE",
"507 193 CURVE",
"306 639 LINE SMOOTH",
"302 648 OFFCURVE",
"295 650 OFFCURVE",
"279 650 CURVE",
"253 650 LINE",
"240 650 OFFCURVE",
"234 640 OFFCURVE",
"235 628 CURVE",
"262 298 LINE",
"237 308 LINE",
"89 373 LINE",
"62 450 LINE",
"57 465 OFFCURVE",
"55 467 OFFCURVE",
"42 472 CURVE SMOOTH",
"32 476 OFFCURVE",
"28 477 OFFCURVE",
"25 477 CURVE SMOOTH",
"17 477 OFFCURVE",
"11 472 OFFCURVE",
"10 464 CURVE",
"9 458 OFFCURVE",
"0 396 OFFCURVE",
"0 388 CURVE SMOOTH",
"0 374 OFFCURVE",
"0 372 OFFCURVE",
"14 357 CURVE SMOOTH",
"69 298 OFFCURVE",
"124 240 OFFCURVE",
"175 190 CURVE SMOOTH",
"186 179 OFFCURVE",
"196 171 OFFCURVE",
"217 161 CURVE SMOOTH",
"288 129 OFFCURVE",
"473 56 OFFCURVE",
"538 28 CURVE SMOOTH",
"568 15 OFFCURVE",
"596 10 OFFCURVE",
"619 10 CURVE SMOOTH",
"659 10 OFFCURVE",
"686 24 OFFCURVE",
"690 33 CURVE SMOOTH",
"691 35 OFFCURVE",
"691 36 OFFCURVE",
"691 39 CURVE SMOOTH",
"691 62 OFFCURVE",
"661 120 OFFCURVE",
"587 155 CURVE"
);
}
);
};
layerId = "166CCA77-1BE6-4372-BC61-BAE07403C72D";
name = Regular;
paths = (
{
closed = 1;
nodes = (
"395 10 OFFCURVE",
"406 -1 OFFCURVE",
"419 -1 CURVE SMOOTH",
"432 -1 OFFCURVE",
"443 10 OFFCURVE",
"443 23 CURVE SMOOTH",
"443 37 OFFCURVE",
"432 48 OFFCURVE",
"419 48 CURVE SMOOTH",
"406 48 OFFCURVE",
"395 37 OFFCURVE",
"395 23 CURVE SMOOTH"
);
},
{
closed = 1;
nodes = (
"314 41 OFFCURVE",
"325 30 OFFCURVE",
"339 30 CURVE SMOOTH",
"352 30 OFFCURVE",
"363 41 OFFCURVE",
"363 54 CURVE SMOOTH",
"363 67 OFFCURVE",
"352 78 OFFCURVE",
"339 78 CURVE SMOOTH",
"325 78 OFFCURVE",
"314 67 OFFCURVE",
"314 54 CURVE SMOOTH"
);
},
{
closed = 1;
nodes = (
"235 68 OFFCURVE",
"246 57 OFFCURVE",
"260 57 CURVE SMOOTH",
"273 57 OFFCURVE",
"284 68 OFFCURVE",
"284 81 CURVE SMOOTH",
"284 95 OFFCURVE",
"273 106 OFFCURVE",
"260 106 CURVE SMOOTH",
"246 106 OFFCURVE",
"235 95 OFFCURVE",
"235 81 CURVE SMOOTH"
);
},
{
closed = 1;
nodes = (
"507 193 LINE",
"306 639 LINE SMOOTH",
"302 648 OFFCURVE",
"295 650 OFFCURVE",
"279 650 CURVE SMOOTH",
"253 650 LINE SMOOTH",
"240.929 650 OFFCURVE",
"234.893 641.378 OFFCURVE",
"234.893 630.538 CURVE SMOOTH",
"234.893 629.704 OFFCURVE",
"234.929 628.857 OFFCURVE",
"235 628 CURVE SMOOTH",
"262 298 LINE",
"237 308 LINE",
"89 373 LINE",
"62 450 LINE SMOOTH",
"57 465 OFFCURVE",
"55 467 OFFCURVE",
"42 472 CURVE SMOOTH",
"32 476 OFFCURVE",
"28 477 OFFCURVE",
"25 477 CURVE SMOOTH",
"17 477 OFFCURVE",
"11 472 OFFCURVE",
"10 464 CURVE SMOOTH",
"9 458 OFFCURVE",
"0 396 OFFCURVE",
"0 386.445 CURVE SMOOTH",
"0 374 OFFCURVE",
"2.274 369.564 OFFCURVE",
"14 357 CURVE SMOOTH",
"175 190 LINE SMOOTH",
"189.428 175.572 OFFCURVE",
"200.828 167.701 OFFCURVE",
"217 161 CURVE SMOOTH",
"538 28 LINE SMOOTH",
"569.059 15.131 OFFCURVE",
"596 10 OFFCURVE",
"619 10 CURVE SMOOTH",
"659 10 OFFCURVE",
"686 24 OFFCURVE",
"690 33 CURVE SMOOTH",
"691 35 OFFCURVE",
"691 36 OFFCURVE",
"691 39 CURVE SMOOTH",
"691 62 OFFCURVE",
"661 120 OFFCURVE",
"587 155 CURVE SMOOTH"
);
}
);
width = 691;
}
);
},
{
color = 1;
glyphname = F.ss02;
lastChange = "2014-11-22 05:19:18 +0000";
layers = (
{
background = {
paths = (
{
closed = 1;
nodes = (
"844 89 OFFCURVE",
"785 30 OFFCURVE",
"718 30 CURVE SMOOTH",
"650 30 OFFCURVE",
"592 89 OFFCURVE",
"592 156 CURVE SMOOTH",
"592 204 OFFCURVE",
"620 249 OFFCURVE",
"661 269 CURVE",
"699 156 LINE",
"704 141 OFFCURVE",
"709 137 OFFCURVE",
"717 137 CURVE SMOOTH",
"725 137 OFFCURVE",
"732 143 OFFCURVE",
"732 152 CURVE",
"732 156 OFFCURVE",
"731 159 OFFCURVE",
"728 167 CURVE",
"690 279 LINE",
"701 281 OFFCURVE",
"710 282 OFFCURVE",
"718 282 CURVE SMOOTH",
"786 282 OFFCURVE",
"844 226 OFFCURVE",
"844 156 CURVE SMOOTH"
);
},
{
closed = 1;
nodes = (
"630 363 LINE",
"649 305 LINE",
"588 276 OFFCURVE",
"555 224 OFFCURVE",
"555 156 CURVE SMOOTH",
"555 59 OFFCURVE",
"631 -8 OFFCURVE",
"718 -8 CURVE SMOOTH",
"805 -8 OFFCURVE",
"882 59 OFFCURVE",
"882 156 CURVE SMOOTH",
"882 243 OFFCURVE",
"814 320 OFFCURVE",
"718 320 CURVE SMOOTH",
"708 320 OFFCURVE",
"690 318 OFFCURVE",
"678 315 CURVE",
"616 503 LINE",
"612 516 OFFCURVE",
"608 523 OFFCURVE",
"598 523 CURVE",
"508 523 LINE",
"499 523 OFFCURVE",
"492 516 OFFCURVE",
"492 508 CURVE",
"492 500 OFFCURVE",
"498 492 OFFCURVE",
"508 492 CURVE",
"587 492 LINE",
"618 398 LINE",
"430 185 LINE",
"427 187 OFFCURVE",
"425 188 OFFCURVE",
"421 189 CURVE",
"421 368 LINE",
"431 368 LINE",
"441 368 OFFCURVE",
"447 376 OFFCURVE",
"447 384 CURVE",
"447 392 OFFCURVE",
"440 399 OFFCURVE",
"431 399 CURVE",
"317 399 LINE",
"308 399 OFFCURVE",
"301 392 OFFCURVE",
"301 384 CURVE",
"301 376 OFFCURVE",
"307 368 OFFCURVE",
"317 368 CURVE",
"327 368 LINE",
"271 296 LINE",
"246 311 OFFCURVE",
"224 319 OFFCURVE",
"186 319 CURVE SMOOTH",
"99 319 OFFCURVE",
"23 248 OFFCURVE",
"23 156 CURVE SMOOTH",
"23 62 OFFCURVE",
"99 -8 OFFCURVE",
"186 -8 CURVE SMOOTH",
"281 -8 OFFCURVE",
"344 73 OFFCURVE",
"349 139 CURVE",
"380 139 LINE",
"384 128 OFFCURVE",
"398 120 OFFCURVE",
"413 120 CURVE",
"431 120 OFFCURVE",
"446 135 OFFCURVE",
"446 156 CURVE"
);
},
{
closed = 1;
nodes = (
"389 182 LINE",
"384 178 OFFCURVE",
"382 175 OFFCURVE",
"379 170 CURVE",
"349 170 LINE",
"346 208 OFFCURVE",
"325 251 OFFCURVE",
"295 277 CURVE",
"367 368 LINE",
"389 368 LINE"
);
},
{
closed = 1;
nodes = (
"295 228 OFFCURVE",
"310 198 OFFCURVE",
"312 170 CURVE",
"212 170 LINE",
"273 248 LINE"
);
},
{
closed = 1;
nodes = (
"210 282 OFFCURVE",
"230 277 OFFCURVE",
"248 267 CURVE",
"170 167 LINE",
"167 163 OFFCURVE",
"166 159 OFFCURVE",
"166 153 CURVE",
"166 144 OFFCURVE",
"175 139 OFFCURVE",
"186 139 CURVE",
"311 139 LINE",
"306 89 OFFCURVE",
"256 30 OFFCURVE",
"186 30 CURVE SMOOTH",
"119 30 OFFCURVE",
"60 89 OFFCURVE",
"60 156 CURVE SMOOTH",
"60 226 OFFCURVE",
"119 282 OFFCURVE",
"186 282 CURVE SMOOTH"
);
}
);
};
layerId = "166CCA77-1BE6-4372-BC61-BAE07403C72D";
name = Regular;
paths = (
{
closed = 1;
nodes = (
"844 89 OFFCURVE",
"785 30 OFFCURVE",
"718 30 CURVE SMOOTH",
"650 30 OFFCURVE",
"592 89 OFFCURVE",
"592 156 CURVE SMOOTH",
"592 204 OFFCURVE",
"620 249 OFFCURVE",
"661 269 CURVE",
"699 156 LINE SMOOTH",
"704 141 OFFCURVE",
"709 137 OFFCURVE",
"717 137 CURVE SMOOTH",
"725 137 OFFCURVE",
"732 143 OFFCURVE",
"732 152 CURVE SMOOTH",
"732 156 OFFCURVE",
"731 159 OFFCURVE",
"728 167 CURVE SMOOTH",
"690 279 LINE",
"701 281 OFFCURVE",
"710 282 OFFCURVE",
"718 282 CURVE SMOOTH",
"786 282 OFFCURVE",
"844 226 OFFCURVE",
"844 156 CURVE SMOOTH"
);
},
{
closed = 1;
nodes = (
"630 363 LINE",
"649 305 LINE",
"588 276 OFFCURVE",
"555 224 OFFCURVE",
"555 156 CURVE SMOOTH",
"555 59 OFFCURVE",
"631 -8 OFFCURVE",
"718 -8 CURVE SMOOTH",
"805 -8 OFFCURVE",
"882 59 OFFCURVE",
"882 156 CURVE SMOOTH",
"882 243 OFFCURVE",
"814 320 OFFCURVE",
"718 320 CURVE SMOOTH",
"708 320 OFFCURVE",
"690 318 OFFCURVE",
"678 315 CURVE",
"616 503 LINE SMOOTH",
"612 516 OFFCURVE",
"608 523 OFFCURVE",
"598 523 CURVE SMOOTH",
"508 523 LINE SMOOTH",
"499 523 OFFCURVE",
"492 516 OFFCURVE",
"492 508 CURVE SMOOTH",
"492 500 OFFCURVE",
"498 492 OFFCURVE",
"508 492 CURVE SMOOTH",
"587 492 LINE",
"618 398 LINE",
"430 185 LINE",
"427 187 OFFCURVE",
"425 188 OFFCURVE",
"421 189 CURVE",
"421 368 LINE",
"431 368 LINE SMOOTH",
"441 368 OFFCURVE",
"447 376 OFFCURVE",
"447 384 CURVE SMOOTH",
"447 392 OFFCURVE",
"440 399 OFFCURVE",
"431 399 CURVE SMOOTH",
"317 399 LINE SMOOTH",
"308 399 OFFCURVE",
"301 392 OFFCURVE",
"301 384 CURVE SMOOTH",
"301 376 OFFCURVE",
"307 368 OFFCURVE",
"317 368 CURVE SMOOTH",
"327 368 LINE",
"271 296 LINE",
"246 311 OFFCURVE",
"224 319 OFFCURVE",
"186 319 CURVE SMOOTH",
"99 319 OFFCURVE",
"23 248 OFFCURVE",
"23 156 CURVE SMOOTH",
"23 62 OFFCURVE",
"99 -8 OFFCURVE",
"186 -8 CURVE SMOOTH",
"281 -8 OFFCURVE",
"344 73 OFFCURVE",
"349 139 CURVE",
"380 139 LINE",
"384 128 OFFCURVE",
"398 120 OFFCURVE",
"413 120 CURVE SMOOTH",
"431 120 OFFCURVE",
"446 135 OFFCURVE",
"446 156 CURVE"
);
},
{
closed = 1;
nodes = (
"389 182 LINE",
"384 178 OFFCURVE",
"382 175 OFFCURVE",
"379 170 CURVE",
"349 170 LINE",
"346 208 OFFCURVE",
"325 251 OFFCURVE",
"295 277 CURVE",
"367 368 LINE",
"389 368 LINE"
);
},
{
closed = 1;
nodes = (
"295 228 OFFCURVE",
"310 198 OFFCURVE",
"312 170 CURVE",
"212 170 LINE",
"273 248 LINE"
);
},
{
closed = 1;
nodes = (
"210 282 OFFCURVE",
"230 277 OFFCURVE",
"248 267 CURVE",
"170 167 LINE SMOOTH",
"167 163 OFFCURVE",
"166 159 OFFCURVE",
"166 153 CURVE SMOOTH",
"166 144 OFFCURVE",
"175 139 OFFCURVE",
"186 139 CURVE SMOOTH",
"311 139 LINE",
"306 89 OFFCURVE",
"256 30 OFFCURVE",
"186 30 CURVE SMOOTH",
"119 30 OFFCURVE",
"60 89 OFFCURVE",
"60 156 CURVE SMOOTH",
"60 226 OFFCURVE",
"119 282 OFFCURVE",
"186 282 CURVE SMOOTH"
);
}
);
width = 903;
}
);
},
{
color = 1;
glyphname = G.ss02;
lastChange = "2014-11-22 05:19:18 +0000";
layers = (
{
background = {
paths = (
{
closed = 1;
nodes = (
"644 178 OFFCURVE",
"628 195 OFFCURVE",
"607 195 CURVE SMOOTH",
"587 195 OFFCURVE",
"571 178 OFFCURVE",
"571 158 CURVE SMOOTH",
"571 138 OFFCURVE",
"587 122 OFFCURVE",
"607 122 CURVE SMOOTH",
"628 122 OFFCURVE",
"644 138 OFFCURVE",
"644 158 CURVE SMOOTH"
);
},
{
closed = 1;
nodes = (
"549 449 LINE",
"209 449 LINE",
"151 248 LINE",
"603 248 LINE"
);
},
{
closed = 1;
nodes = (
"181 178 OFFCURVE",
"165 195 OFFCURVE",
"145 195 CURVE SMOOTH",
"124 195 OFFCURVE",
"107 178 OFFCURVE",
"107 158 CURVE SMOOTH",
"107 138 OFFCURVE",
"124 122 OFFCURVE",
"145 122 CURVE SMOOTH",
"165 122 OFFCURVE",
"181 138 OFFCURVE",
"181 158 CURVE SMOOTH"
);
},
{
closed = 1;
nodes = (
"711 31 LINE SMOOTH",
"711 10 OFFCURVE",
"696 0 OFFCURVE",
"660 0 CURVE SMOOTH",
"608 0 LINE SMOOTH",
"570 0 OFFCURVE",
"557 10 OFFCURVE",
"557 43 CURVE",
"196 42 LINE",
"196 9 OFFCURVE",
"185 -1 OFFCURVE",
"146 -1 CURVE SMOOTH",
"96 -1 LINE SMOOTH",
"56 -1 OFFCURVE",
"42 9 OFFCURVE",
"42 30 CURVE SMOOTH",
"42 103 LINE",
"31 198 LINE",
"30 208 LINE",
"30 223 OFFCURVE",
"37 236 OFFCURVE",
"51 248 CURVE",
"67 262 LINE",
"141 506 LINE SMOOTH",
"145 516 OFFCURVE",
"158 522 OFFCURVE",
"181 522 CURVE SMOOTH",
"571 522 LINE SMOOTH",
"594 522 OFFCURVE",
"607 516 OFFCURVE",
"611 506 CURVE SMOOTH",
"685 262 LINE",
"701 248 LINE",
"715 236 OFFCURVE",
"722 223 OFFCURVE",
"722 208 CURVE",
"721 198 LINE",
"711 105 LINE"
);
}
);
};
layerId = "166CCA77-1BE6-4372-BC61-BAE07403C72D";
name = Regular;
paths = (
{
closed = 1;
nodes = (
"644 178 OFFCURVE",
"628 195 OFFCURVE",
"607 195 CURVE SMOOTH",
"587 195 OFFCURVE",
"571 178 OFFCURVE",
"571 158 CURVE SMOOTH",
"571 138 OFFCURVE",
"587 122 OFFCURVE",
"607 122 CURVE SMOOTH",
"628 122 OFFCURVE",
"644 138 OFFCURVE",
"644 158 CURVE SMOOTH"
);
},
{
closed = 1;
nodes = (
"549 449 LINE",
"209 449 LINE",
"151 248 LINE",
"603 248 LINE"
);
},
{
closed = 1;
nodes = (
"181 178 OFFCURVE",
"165 195 OFFCURVE",
"145 195 CURVE SMOOTH",
"124 195 OFFCURVE",
"107 178 OFFCURVE",
"107 158 CURVE SMOOTH",
"107 138 OFFCURVE",
"124 122 OFFCURVE",
"145 122 CURVE SMOOTH",
"165 122 OFFCURVE",
"181 138 OFFCURVE",
"181 158 CURVE SMOOTH"
);
},
{
closed = 1;
nodes = (
"711 31 LINE SMOOTH",
"711 10 OFFCURVE",
"696 0 OFFCURVE",
"660 0 CURVE SMOOTH",
"608 0 LINE SMOOTH",
"570 0 OFFCURVE",
"557 10 OFFCURVE",
"557 43 CURVE",
"196 42 LINE",
"196 9 OFFCURVE",
"185 -1 OFFCURVE",
"146 -1 CURVE SMOOTH",
"96 -1 LINE SMOOTH",
"56 -1 OFFCURVE",
"42 9 OFFCURVE",
"42 30 CURVE SMOOTH",
"42 103 LINE",
"33.807 174.088 OFFCURVE",
"30 199.696 OFFCURVE",
"30 208 CURVE SMOOTH",
"30 223 OFFCURVE",
"37 236 OFFCURVE",
"51 248 CURVE SMOOTH",
"67 262 LINE",
"141 506 LINE SMOOTH",
"144.116 516.275 OFFCURVE",
"158 522 OFFCURVE",
"181 522 CURVE SMOOTH",
"571 522 LINE SMOOTH",
"594 522 OFFCURVE",
"607.863 516.345 OFFCURVE",
"611 506 CURVE SMOOTH",
"685 262 LINE",
"701 248 LINE SMOOTH",
"715 236 OFFCURVE",
"722 223 OFFCURVE",
"722 208 CURVE SMOOTH",
"722 204.189 OFFCURVE",
"718.732 177.086 OFFCURVE",
"711 105 CURVE"
);
}
);
width = 752;
}
);
},
{
color = 1;
glyphname = H.ss02;
lastChange = "2014-11-22 05:19:18 +0000";
layers = (
{
background = {
paths = (
{
closed = 1;
nodes = (
"644 178 OFFCURVE",
"628 195 OFFCURVE",
"607 195 CURVE SMOOTH",
"587 195 OFFCURVE",
"571 178 OFFCURVE",
"571 158 CURVE SMOOTH",
"571 138 OFFCURVE",
"587 122 OFFCURVE",
"607 122 CURVE SMOOTH",
"628 122 OFFCURVE",
"644 138 OFFCURVE",
"644 158 CURVE SMOOTH"
);
},
{
closed = 1;
nodes = (
"549 449 LINE",
"209 449 LINE",
"151 248 LINE",
"603 248 LINE"
);
},
{
closed = 1;
nodes = (
"181 178 OFFCURVE",
"165 195 OFFCURVE",
"145 195 CURVE SMOOTH",
"124 195 OFFCURVE",
"107 178 OFFCURVE",
"107 158 CURVE SMOOTH",
"107 138 OFFCURVE",
"124 122 OFFCURVE",
"145 122 CURVE SMOOTH",
"165 122 OFFCURVE",
"181 138 OFFCURVE",
"181 158 CURVE SMOOTH"
);
},
{
closed = 1;
nodes = (
"711 31 LINE SMOOTH",
"711 10 OFFCURVE",
"696 0 OFFCURVE",
"660 0 CURVE SMOOTH",
"608 0 LINE SMOOTH",
"570 0 OFFCURVE",
"557 10 OFFCURVE",
"557 43 CURVE",
"196 42 LINE",
"196 9 OFFCURVE",
"185 -1 OFFCURVE",
"146 -1 CURVE SMOOTH",
"96 -1 LINE SMOOTH",
"56 -1 OFFCURVE",
"42 9 OFFCURVE",
"42 30 CURVE SMOOTH",
"42 103 LINE",
"31 198 LINE",
"30 208 LINE",
"30 223 OFFCURVE",
"37 236 OFFCURVE",
"51 248 CURVE",
"67 262 LINE",
"141 506 LINE SMOOTH",
"145 516 OFFCURVE",
"158 522 OFFCURVE",
"181 522 CURVE SMOOTH",
"273 522 LINE",
"280 546 LINE",
"283 554 OFFCURVE",
"292 558 OFFCURVE",
"306 558 CURVE SMOOTH",
"451 558 LINE SMOOTH",
"465 558 OFFCURVE",
"474 554 OFFCURVE",
"478 546 CURVE",
"484 522 LINE",
"571 522 LINE SMOOTH",
"594 522 OFFCURVE",
"607 516 OFFCURVE",
"611 506 CURVE SMOOTH",
"685 262 LINE",
"701 248 LINE",
"715 236 OFFCURVE",
"722 223 OFFCURVE",
"722 208 CURVE",
"721 198 LINE",
"711 105 LINE"
);
}
);
};
layerId = "166CCA77-1BE6-4372-BC61-BAE07403C72D";
name = Regular;
paths = (
{
closed = 1;
nodes = (
"146 -1 LINE SMOOTH",
"185 -1 OFFCURVE",
"196 9 OFFCURVE",
"196 42 CURVE",
"557 43 LINE",
"557 10 OFFCURVE",
"570 0 OFFCURVE",
"608 0 CURVE SMOOTH",
"660 0 LINE SMOOTH",
"696 0 OFFCURVE",
"711 10 OFFCURVE",
"711 31 CURVE SMOOTH",
"711 105 LINE",
"718.732 177.086 OFFCURVE",
"722 204.189 OFFCURVE",
"722 208 CURVE SMOOTH",
"722 223 OFFCURVE",
"715 236 OFFCURVE",
"701 248 CURVE SMOOTH",
"685 262 LINE",
"611 506 LINE SMOOTH",
"607.948 516.064 OFFCURVE",
"594 522 OFFCURVE",
"571 522 CURVE SMOOTH",
"484 522 LINE",
"478 546 LINE SMOOTH",
"475.779 554.884 OFFCURVE",
"465 558 OFFCURVE",
"451 558 CURVE SMOOTH",
"306 558 LINE SMOOTH",
"292 558 OFFCURVE",
"282.399 554.225 OFFCURVE",
"280 546 CURVE SMOOTH",
"273 522 LINE",
"181 522 LINE SMOOTH",
"158 522 OFFCURVE",
"144.137 516.345 OFFCURVE",
"141 506 CURVE SMOOTH",
"67 262 LINE",
"51 248 LINE SMOOTH",
"37 236 OFFCURVE",
"30 223 OFFCURVE",
"30 208 CURVE SMOOTH",
"30 199.696 OFFCURVE",
"33.807 174.088 OFFCURVE",
"42 103 CURVE",
"42 30 LINE SMOOTH",
"42 9 OFFCURVE",
"56 -1 OFFCURVE",
"96 -1 CURVE SMOOTH"
);
},
{
closed = 1;
nodes = (
"124 122 OFFCURVE",
"107 138 OFFCURVE",
"107 158 CURVE SMOOTH",
"107 178 OFFCURVE",
"124 195 OFFCURVE",
"145 195 CURVE SMOOTH",
"165 195 OFFCURVE",
"181 178 OFFCURVE",
"181 158 CURVE SMOOTH",
"181 138 OFFCURVE",
"165 122 OFFCURVE",
"145 122 CURVE SMOOTH"
);
},
{
closed = 1;
nodes = (
"209 449 LINE",
"549 449 LINE",
"603 248 LINE",
"151 248 LINE"
);
},
{
closed = 1;
nodes = (
"587 122 OFFCURVE",
"571 138 OFFCURVE",
"571 158 CURVE SMOOTH",
"571 178 OFFCURVE",
"587 195 OFFCURVE",
"607 195 CURVE SMOOTH",
"628 195 OFFCURVE",
"644 178 OFFCURVE",
"644 158 CURVE SMOOTH",
"644 138 OFFCURVE",
"628 122 OFFCURVE",
"607 122 CURVE SMOOTH"
);
}
);
width = 752;
}
);
},
{
color = 1;
glyphname = I.ss02;
lastChange = "2014-11-22 05:19:18 +0000";
layers = (
{
background = {
paths = (
{
closed = 1;
nodes = (
"226 627 OFFCURVE",
"222 620 OFFCURVE",
"215 620 CURVE SMOOTH",
"196 620 LINE SMOOTH",
"189 620 OFFCURVE",
"185 627 OFFCURVE",
"185 640 CURVE SMOOTH",
"185 691 LINE SMOOTH",
"185 705 OFFCURVE",
"189 711 OFFCURVE",
"196 711 CURVE SMOOTH",
"215 711 LINE SMOOTH",
"222 711 OFFCURVE",
"226 705 OFFCURVE",
"226 691 CURVE SMOOTH",
"226 640 LINE SMOOTH"
);
},
{
closed = 1;
nodes = (
"566 695 LINE",
"566 695 OFFCURVE",
"563 699 OFFCURVE",
"557 699 CURVE SMOOTH",
"355 699 LINE",
"355 722 OFFCURVE",
"339 740 OFFCURVE",
"310 742 CURVE SMOOTH",
"197 751 LINE",
"175 751 OFFCURVE",
"159 744 OFFCURVE",
"150 725 CURVE SMOOTH",
"147 717 OFFCURVE",
"141 691 OFFCURVE",
"141 666 CURVE SMOOTH",
"141 640 OFFCURVE",
"147 614 OFFCURVE",
"150 606 CURVE SMOOTH",
"159 587 OFFCURVE",
"175 581 OFFCURVE",
"197 581 CURVE",
"310 590 LINE SMOOTH",
"339 592 OFFCURVE",
"355 609 OFFCURVE",
"355 632 CURVE",
"453 632 LINE",
"453 632 OFFCURVE",
"459 632 OFFCURVE",
"462 636 CURVE SMOOTH",
"478 656 LINE",
"478 656 OFFCURVE",
"482 662 OFFCURVE",
"485 656 CURVE SMOOTH",
"502 634 LINE",
"502 634 OFFCURVE",
"505 629 OFFCURVE",
"509 634 CURVE SMOOTH",
"525 656 LINE",
"525 656 OFFCURVE",
"528 662 OFFCURVE",
"532 656 CURVE SMOOTH",
"548 635 LINE",
"548 635 OFFCURVE",
"551 630 OFFCURVE",
"556 634 CURVE SMOOTH",
"585 660 LINE",
"585 660 OFFCURVE",
"589 664 OFFCURVE",
"586 669 CURVE SMOOTH"
);
},
{
closed = 1;
nodes = (
"644 178 OFFCURVE",
"628 195 OFFCURVE",
"607 195 CURVE SMOOTH",
"587 195 OFFCURVE",
"571 178 OFFCURVE",
"571 158 CURVE SMOOTH",
"571 138 OFFCURVE",
"587 122 OFFCURVE",
"607 122 CURVE SMOOTH",
"628 122 OFFCURVE",
"644 138 OFFCURVE",
"644 158 CURVE SMOOTH"
);
},
{
closed = 1;
nodes = (
"549 449 LINE",
"209 449 LINE",
"151 248 LINE",
"603 248 LINE"
);
},
{
closed = 1;
nodes = (
"181 178 OFFCURVE",
"165 195 OFFCURVE",
"145 195 CURVE SMOOTH",
"124 195 OFFCURVE",
"107 178 OFFCURVE",
"107 158 CURVE SMOOTH",
"107 138 OFFCURVE",
"124 122 OFFCURVE",
"145 122 CURVE SMOOTH",
"165 122 OFFCURVE",
"181 138 OFFCURVE",
"181 158 CURVE SMOOTH"
);
},
{
closed = 1;
nodes = (
"711 31 LINE SMOOTH",
"711 10 OFFCURVE",
"696 0 OFFCURVE",
"660 0 CURVE SMOOTH",
"608 0 LINE SMOOTH",
"570 0 OFFCURVE",
"557 10 OFFCURVE",
"557 43 CURVE",
"196 42 LINE",
"196 9 OFFCURVE",
"185 -1 OFFCURVE",
"146 -1 CURVE SMOOTH",
"96 -1 LINE SMOOTH",
"56 -1 OFFCURVE",
"42 9 OFFCURVE",
"42 30 CURVE SMOOTH",
"42 103 LINE",
"31 198 LINE",
"30 208 LINE",
"30 223 OFFCURVE",
"37 236 OFFCURVE",
"51 248 CURVE",
"67 262 LINE",
"141 506 LINE SMOOTH",
"145 516 OFFCURVE",
"158 522 OFFCURVE",
"181 522 CURVE",
"571 522 LINE",
"594 522 OFFCURVE",
"607 516 OFFCURVE",
"611 506 CURVE SMOOTH",
"685 262 LINE",
"701 248 LINE",
"715 236 OFFCURVE",
"722 223 OFFCURVE",
"722 208 CURVE",
"721 198 LINE",
"711 105 LINE"
);
}
);
};
components = (
{
name = G.ss02;
transform = "{1, 0, 0, 1, 0, 0}";
}
);
guideLines = (
{
position = "{375, 105}";
},
{
position = "{70, 248}";
}
);
layerId = "166CCA77-1BE6-4372-BC61-BAE07403C72D";
name = Regular;
paths = (
{
closed = 1;
nodes = (
"226 627 OFFCURVE",
"222 620 OFFCURVE",
"215 620 CURVE SMOOTH",
"196 620 LINE SMOOTH",
"189 620 OFFCURVE",
"185 627 OFFCURVE",
"185 640 CURVE SMOOTH",
"185 691 LINE SMOOTH",
"185 705 OFFCURVE",
"189 711 OFFCURVE",
"196 711 CURVE SMOOTH",
"215 711 LINE SMOOTH",
"222 711 OFFCURVE",
"226 705 OFFCURVE",
"226 691 CURVE SMOOTH",
"226 640 LINE SMOOTH"
);
},
{
closed = 1;
nodes = (
"566 695 LINE SMOOTH",
"565 697 OFFCURVE",
"561 699 OFFCURVE",
"557 699 CURVE SMOOTH",
"355 699 LINE",
"355 722 OFFCURVE",
"339 740 OFFCURVE",
"310 742 CURVE SMOOTH",
"272.333 745 OFFCURVE",
"205.667 751 OFFCURVE",
"197 751 CURVE SMOOTH",
"175 751 OFFCURVE",
"159 744 OFFCURVE",
"150 725 CURVE SMOOTH",
"146.342 717.278 OFFCURVE",
"141 691 OFFCURVE",
"141 666 CURVE SMOOTH",
"141 640 OFFCURVE",
"147 614 OFFCURVE",
"150 606 CURVE SMOOTH",
"159 587 OFFCURVE",
"175 581 OFFCURVE",
"197 581 CURVE SMOOTH",
"205.667 581 OFFCURVE",
"272.333 587 OFFCURVE",
"310 590 CURVE SMOOTH",
"339 592 OFFCURVE",
"355 609 OFFCURVE",
"355 632 CURVE",
"453 632 LINE SMOOTH",
"456 632 OFFCURVE",
"460 633 OFFCURVE",
"462 636 CURVE SMOOTH",
"478 656 LINE SMOOTH",
"479.197 657.496 OFFCURVE",
"480.35 658.289 OFFCURVE",
"481.508 658.289 CURVE SMOOTH",
"482.651 658.289 OFFCURVE",
"483.799 657.555 OFFCURVE",
"485 656 CURVE SMOOTH",
"502 634 LINE SMOOTH",
"503.225 632.415 OFFCURVE",
"504.372 631.611 OFFCURVE",
"505.511 631.611 CURVE SMOOTH",
"506.66 631.611 OFFCURVE",
"507.8 632.4 OFFCURVE",
"509 634 CURVE SMOOTH",
"525 656 LINE SMOOTH",
"526.136 657.562 OFFCURVE",
"527.248 658.468 OFFCURVE",
"528.436 658.468 CURVE SMOOTH",
"529.534 658.468 OFFCURVE",
"530.696 657.712 OFFCURVE",
"532 656 CURVE SMOOTH",
"548 635 LINE SMOOTH",
"549.331 633.252 OFFCURVE",
"550.697 632.416 OFFCURVE",
"552.21 632.416 CURVE SMOOTH",
"553.37 632.416 OFFCURVE",
"554.712 632.845 OFFCURVE",
"556 634 CURVE SMOOTH",
"585 660 LINE SMOOTH",
"586.257 661.257 OFFCURVE",
"587.089 663.093 OFFCURVE",
"587.089 664.837 CURVE SMOOTH",
"587.089 666.239 OFFCURVE",
"586.83 667.921 OFFCURVE",
"586 669 CURVE SMOOTH"
);
}
);
width = 752;
}
);
},
{
color = 1;
glyphname = J.ss02;
lastChange = "2014-11-22 05:19:18 +0000";
layers = (
{
background = {
paths = (
{
closed = 1;
nodes = (
"660 137 OFFCURVE",
"643 121 OFFCURVE",
"623 121 CURVE SMOOTH",
"603 121 OFFCURVE",
"587 137 OFFCURVE",
"587 157 CURVE SMOOTH",
"587 178 OFFCURVE",
"603 194 OFFCURVE",
"623 194 CURVE SMOOTH",
"643 194 OFFCURVE",
"660 178 OFFCURVE",
"660 157 CURVE SMOOTH"
);
},
{
closed = 1;
nodes = (
"121 248 LINE",
"145 605 LINE",
"630 605 LINE",
"655 248 LINE"
);
},
{
closed = 1;
nodes = (
"467 660 OFFCURVE",
"461 657 OFFCURVE",
"447 657 CURVE SMOOTH",
"332 657 LINE SMOOTH",
"319 657 OFFCURVE",
"313 660 OFFCURVE",
"313 668 CURVE SMOOTH",
"313 686 LINE SMOOTH",
"313 693 OFFCURVE",
"319 697 OFFCURVE",
"332 697 CURVE SMOOTH",
"447 697 LINE SMOOTH",
"461 697 OFFCURVE",
"467 693 OFFCURVE",
"467 686 CURVE SMOOTH",
"467 668 LINE SMOOTH"
);
},
{
closed = 1;
nodes = (
"123 178 OFFCURVE",
"139 194 OFFCURVE",
"159 194 CURVE SMOOTH",
"180 194 OFFCURVE",
"196 178 OFFCURVE",
"196 157 CURVE SMOOTH",
"196 137 OFFCURVE",
"180 121 OFFCURVE",
"159 121 CURVE SMOOTH",
"139 121 OFFCURVE",
"123 137 OFFCURVE",
"123 157 CURVE SMOOTH"
);
},
{
closed = 1;
nodes = (
"740 248 LINE",
"740 257 OFFCURVE",
"739 271 OFFCURVE",
"738 280 CURVE",
"699 718 LINE",
"697 742 OFFCURVE",
"694 746 OFFCURVE",
"667 746 CURVE SMOOTH",
"119 746 LINE SMOOTH",
"85 746 OFFCURVE",
"82 743 OFFCURVE",
"80 718 CURVE",
"42 280 LINE",
"41 271 OFFCURVE",
"40 257 OFFCURVE",
"40 248 CURVE",
"40 177 LINE",
"40 169 OFFCURVE",
"41 164 OFFCURVE",
"43 156 CURVE",
"58 94 LINE",
"58 31 LINE SMOOTH",
"58 10 OFFCURVE",
"72 0 OFFCURVE",
"112 0 CURVE SMOOTH",
"162 0 LINE SMOOTH",
"201 0 OFFCURVE",
"212 10 OFFCURVE",
"212 43 CURVE",
"568 43 LINE",
"568 10 OFFCURVE",
"581 0 OFFCURVE",
"619 0 CURVE SMOOTH",
"671 0 LINE SMOOTH",
"707 0 OFFCURVE",
"722 10 OFFCURVE",
"722 31 CURVE SMOOTH",
"722 94 LINE",
"737 157 LINE",
"739 164 OFFCURVE",
"740 169 OFFCURVE",
"740 177 CURVE"
);
}
);
};
guideLines = (
{
position = "{90, 718}";
}
);
layerId = "166CCA77-1BE6-4372-BC61-BAE07403C72D";
name = Regular;
paths = (
{
closed = 1;
nodes = (
"660 137 OFFCURVE",
"643 121 OFFCURVE",
"623 121 CURVE SMOOTH",
"603 121 OFFCURVE",
"587 137 OFFCURVE",
"587 157 CURVE SMOOTH",
"587 178 OFFCURVE",
"603 194 OFFCURVE",
"623 194 CURVE SMOOTH",
"643 194 OFFCURVE",
"660 178 OFFCURVE",
"660 157 CURVE SMOOTH"
);
},
{
closed = 1;
nodes = (
"121 248 LINE",
"145 605 LINE",
"630 605 LINE",
"655 248 LINE"
);
},
{
closed = 1;
nodes = (
"467 660 OFFCURVE",
"461 657 OFFCURVE",
"447 657 CURVE SMOOTH",
"332 657 LINE SMOOTH",
"319 657 OFFCURVE",
"313 660 OFFCURVE",
"313 668 CURVE SMOOTH",
"313 686 LINE SMOOTH",
"313 693 OFFCURVE",
"319 697 OFFCURVE",
"332 697 CURVE SMOOTH",
"447 697 LINE SMOOTH",
"461 697 OFFCURVE",
"467 693 OFFCURVE",
"467 686 CURVE SMOOTH",
"467 668 LINE SMOOTH"
);
},
{
closed = 1;
nodes = (
"123 178 OFFCURVE",
"139 194 OFFCURVE",
"159 194 CURVE SMOOTH",
"180 194 OFFCURVE",
"196 178 OFFCURVE",
"196 157 CURVE SMOOTH",
"196 137 OFFCURVE",
"180 121 OFFCURVE",
"159 121 CURVE SMOOTH",
"139 121 OFFCURVE",
"123 137 OFFCURVE",
"123 157 CURVE SMOOTH"
);
},
{
closed = 1;
nodes = (
"740 248 LINE SMOOTH",
"740 257 OFFCURVE",
"739 271 OFFCURVE",
"738 280 CURVE SMOOTH",
"699 718 LINE SMOOTH",
"697 742 OFFCURVE",
"694 746 OFFCURVE",
"667 746 CURVE SMOOTH",
"119 746 LINE SMOOTH",
"85 746 OFFCURVE",
"82 743 OFFCURVE",
"80 718 CURVE SMOOTH",
"42 280 LINE SMOOTH",
"41 271 OFFCURVE",
"40 257 OFFCURVE",
"40 248 CURVE SMOOTH",
"40 177 LINE SMOOTH",
"40 169 OFFCURVE",
"41 164 OFFCURVE",
"43 156 CURVE SMOOTH",
"58 94 LINE",
"58 31 LINE SMOOTH",
"58 10 OFFCURVE",
"72 0 OFFCURVE",
"112 0 CURVE SMOOTH",
"162 0 LINE SMOOTH",
"201 0 OFFCURVE",
"212 10 OFFCURVE",
"212 43 CURVE",
"568 43 LINE",
"568 10 OFFCURVE",
"581 0 OFFCURVE",
"619 0 CURVE SMOOTH",
"671 0 LINE SMOOTH",
"707 0 OFFCURVE",
"722 10 OFFCURVE",
"722 31 CURVE SMOOTH",
"722 94 LINE",
"737 157 LINE",
"739 164 OFFCURVE",
"740 169 OFFCURVE",
"740 177 CURVE SMOOTH"
);
}
);
width = 780;
}
);
},
{
color = 1;
glyphname = K.ss02;
lastChange = "2014-11-22 05:19:18 +0000";
layers = (
{
background = {
paths = (
{
closed = 1;
nodes = (
"465 257 OFFCURVE",
"449 274 OFFCURVE",
"449 294 CURVE SMOOTH",
"449 314 OFFCURVE",
"465 330 OFFCURVE",
"485 330 CURVE SMOOTH",
"505 330 OFFCURVE",
"523 314 OFFCURVE",
"523 294 CURVE SMOOTH",
"523 274 OFFCURVE",
"505 257 OFFCURVE",
"485 257 CURVE SMOOTH"
);
},
{
closed = 1;
nodes = (
"182 385 LINE",
"199 603 LINE",
"504 603 LINE",
"523 385 LINE"
);
},
{
closed = 1;
nodes = (
"410 659 OFFCURVE",
"403 655 OFFCURVE",
"390 655 CURVE SMOOTH",
"315 655 LINE SMOOTH",
"302 655 OFFCURVE",
"296 659 OFFCURVE",
"296 666 CURVE SMOOTH",
"296 685 LINE SMOOTH",
"296 692 OFFCURVE",
"302 696 OFFCURVE",
"315 696 CURVE SMOOTH",
"390 696 LINE SMOOTH",
"403 696 OFFCURVE",
"410 692 OFFCURVE",
"410 685 CURVE SMOOTH",
"410 666 LINE SMOOTH"
);
},
{
closed = 1;
nodes = (
"180 314 OFFCURVE",
"196 330 OFFCURVE",
"216 330 CURVE SMOOTH",
"238 330 OFFCURVE",
"254 314 OFFCURVE",
"254 294 CURVE SMOOTH",
"254 274 OFFCURVE",
"238 257 OFFCURVE",
"216 257 CURVE SMOOTH",
"196 257 OFFCURVE",
"180 274 OFFCURVE",
"180 294 CURVE SMOOTH"
);
},
{
closed = 1;
nodes = (
"696 18 OFFCURVE",
"557 133 OFFCURVE",
"503 177 CURVE",
"524 177 LINE SMOOTH",
"548 177 OFFCURVE",
"566 188 OFFCURVE",
"571 212 CURVE",
"571 212 OFFCURVE",
"585 285 OFFCURVE",
"599 357 CURVE SMOOTH",
"600 362 OFFCURVE",
"600 368 OFFCURVE",
"600 375 CURVE SMOOTH",
"600 382 OFFCURVE",
"600 388 OFFCURVE",
"599 395 CURVE",
"570 720 LINE",
"568 740 OFFCURVE",
"562 745 OFFCURVE",
"530 745 CURVE SMOOTH",
"169 745 LINE SMOOTH",
"142 745 OFFCURVE",
"137 740 OFFCURVE",
"134 719 CURVE",
"106 395 LINE",
"105 387 OFFCURVE",
"105 383 OFFCURVE",
"105 375 CURVE SMOOTH",
"105 369 OFFCURVE",
"105 365 OFFCURVE",
"106 357 CURVE",
"133 212 LINE",
"138 188 OFFCURVE",
"155 177 OFFCURVE",
"181 177 CURVE SMOOTH",
"199 177 LINE",
"148 133 OFFCURVE",
"9 18 OFFCURVE",
"7 16 CURVE SMOOTH",
"1 11 OFFCURVE",
"0 9 OFFCURVE",
"0 6 CURVE SMOOTH",
"0 1 OFFCURVE",
"6 0 OFFCURVE",
"20 0 CURVE SMOOTH",
"91 0 LINE SMOOTH",
"110 0 OFFCURVE",
"114 4 OFFCURVE",
"126 16 CURVE SMOOTH",
"295 177 LINE",
"410 177 LINE",
"578 16 LINE SMOOTH",
"590 4 OFFCURVE",
"595 0 OFFCURVE",
"614 0 CURVE SMOOTH",
"685 0 LINE SMOOTH",
"698 0 OFFCURVE",
"704 1 OFFCURVE",
"704 6 CURVE SMOOTH",
"704 9 OFFCURVE",
"702 12 OFFCURVE",
"698 16 CURVE SMOOTH"
);
}
);
};
guideLines = (
{
position = "{443, 719}";
},
{
position = "{619, 375}";
}
);
layerId = "166CCA77-1BE6-4372-BC61-BAE07403C72D";
name = Regular;
paths = (
{
closed = 1;
nodes = (
"465 257 OFFCURVE",
"449 274 OFFCURVE",
"449 294 CURVE SMOOTH",
"449 314 OFFCURVE",
"465 330 OFFCURVE",
"485 330 CURVE SMOOTH",
"505 330 OFFCURVE",
"523 314 OFFCURVE",
"523 294 CURVE SMOOTH",
"523 274 OFFCURVE",
"505 257 OFFCURVE",
"485 257 CURVE SMOOTH"
);
},
{
closed = 1;
nodes = (
"182 385 LINE",
"199 603 LINE",
"504 603 LINE",
"523 385 LINE"
);
},
{
closed = 1;
nodes = (
"410 659 OFFCURVE",
"403 655 OFFCURVE",
"390 655 CURVE SMOOTH",
"315 655 LINE SMOOTH",
"302 655 OFFCURVE",
"296 659 OFFCURVE",
"296 666 CURVE SMOOTH",
"296 685 LINE SMOOTH",
"296 692 OFFCURVE",
"302 696 OFFCURVE",
"315 696 CURVE SMOOTH",
"390 696 LINE SMOOTH",
"403 696 OFFCURVE",
"410 692 OFFCURVE",
"410 685 CURVE SMOOTH",
"410 666 LINE SMOOTH"
);
},
{
closed = 1;
nodes = (
"180 314 OFFCURVE",
"196 330 OFFCURVE",
"216 330 CURVE SMOOTH",
"238 330 OFFCURVE",
"254 314 OFFCURVE",
"254 294 CURVE SMOOTH",
"254 274 OFFCURVE",
"238 257 OFFCURVE",
"216 257 CURVE SMOOTH",
"196 257 OFFCURVE",
"180 274 OFFCURVE",
"180 294 CURVE SMOOTH"
);
},
{
closed = 1;
nodes = (
"503 177 LINE",
"524 177 LINE SMOOTH",
"548 177 OFFCURVE",
"566 188 OFFCURVE",
"571 212 CURVE SMOOTH",
"599 357 LINE SMOOTH",
"600 363 OFFCURVE",
"600 368 OFFCURVE",
"600 375 CURVE SMOOTH",
"600 382 OFFCURVE",
"599.629 387.947 OFFCURVE",
"599 395 CURVE SMOOTH",
"570 720 LINE SMOOTH",
"568 740 OFFCURVE",
"562 745 OFFCURVE",
"530 745 CURVE SMOOTH",
"169 745 LINE SMOOTH",
"142 745 OFFCURVE",
"137 740 OFFCURVE",
"134 719 CURVE SMOOTH",
"106 395 LINE SMOOTH",
"105.306 386.968 OFFCURVE",
"105 383 OFFCURVE",
"105 375 CURVE SMOOTH",
"105 369 OFFCURVE",
"104.697 363 OFFCURVE",
"106 357 CURVE SMOOTH",
"133 212 LINE SMOOTH",
"138 188 OFFCURVE",
"155 177 OFFCURVE",
"181 177 CURVE SMOOTH",
"199 177 LINE",
"7 16 LINE SMOOTH",
"1 11 OFFCURVE",
"0 9 OFFCURVE",
"0 6 CURVE SMOOTH",
"0 1 OFFCURVE",
"6 0 OFFCURVE",
"20 0 CURVE SMOOTH",
"91 0 LINE SMOOTH",
"110 0 OFFCURVE",
"114 4 OFFCURVE",
"126 16 CURVE SMOOTH",
"295 177 LINE",
"410 177 LINE",
"578 16 LINE SMOOTH",
"590 4 OFFCURVE",
"595 0 OFFCURVE",
"614 0 CURVE SMOOTH",
"685 0 LINE SMOOTH",
"698 0 OFFCURVE",
"704 1 OFFCURVE",
"704 6 CURVE SMOOTH",
"704 9 OFFCURVE",
"702 12 OFFCURVE",
"698 16 CURVE SMOOTH"
);
}
);
width = 704;
}
);
},
{
color = 11;
glyphname = a;
lastChange = "2014-11-19 04:29:10 +0000";
layers = (
{
anchors = (
{
name = bottom;
position = "{266, 0}";
},
{
name = ogonek;
position = "{478, 23}";
},
{
name = top;
position = "{273, 523}";
}
);
layerId = "166CCA77-1BE6-4372-BC61-BAE07403C72D";
name = Regular;
paths = (
{
closed = 1;
nodes = (
"161 530 OFFCURVE",
"76 493 OFFCURVE",
"76 464 CURVE SMOOTH",
"76 448 OFFCURVE",
"101 401 OFFCURVE",
"119 401 CURVE SMOOTH",
"129 401 OFFCURVE",
"179 438 OFFCURVE",
"262 438 CURVE SMOOTH",
"333 438 OFFCURVE",
"358 408 OFFCURVE",
"358 366 CURVE SMOOTH",
"358 325 LINE",
"161 324 OFFCURVE",
"46 272 OFFCURVE",
"46 141 CURVE SMOOTH",
"46 48 OFFCURVE",
"105 -7 OFFCURVE",
"207 -7 CURVE SMOOTH",
"289 -7 OFFCURVE",
"341 39 OFFCURVE",
"366 69 CURVE",
"372 41 OFFCURVE",
"375 -1 OFFCURVE",
"403 -1 CURVE SMOOTH",
"421 -1 OFFCURVE",
"482 5 OFFCURVE",
"482 26 CURVE SMOOTH",
"482 38 OFFCURVE",
"470 69 OFFCURVE",
"470 160 CURVE SMOOTH",
"470 369 LINE SMOOTH",
"470 467 OFFCURVE",
"404 530 OFFCURVE",
"265 530 CURVE SMOOTH"
);
},
{
closed = 1;
nodes = (
"358 152 LINE",
"329 116 OFFCURVE",
"288 85 OFFCURVE",
"231 85 CURVE SMOOTH",
"185 85 OFFCURVE",
"161 110 OFFCURVE",
"161 151 CURVE SMOOTH",
"161 230 OFFCURVE",
"258 242 OFFCURVE",
"358 242 CURVE"
);
}
);
width = 545;
}
);
unicode = 0061;
},
{
color = 11;
glyphname = ae;
lastChange = "2014-11-19 04:29:10 +0000";
layers = (
{
anchors = (
{
name = top;
position = "{415, 523}";
}
);
layerId = "166CCA77-1BE6-4372-BC61-BAE07403C72D";
name = Regular;
paths = (
{
closed = 1;
nodes = (
"506 530 OFFCURVE",
"457 516 OFFCURVE",
"418 487 CURVE",
"384 515 OFFCURVE",
"332 530 OFFCURVE",
"262 530 CURVE SMOOTH",
"158 530 OFFCURVE",
"73 493 OFFCURVE",
"73 464 CURVE SMOOTH",
"73 448 OFFCURVE",
"98 401 OFFCURVE",
"116 401 CURVE SMOOTH",
"128 401 OFFCURVE",
"181 438 OFFCURVE",
"259 438 CURVE SMOOTH",
"307 438 OFFCURVE",
"339 426 OFFCURVE",
"354 403 CURVE",
"343 379 OFFCURVE",
"336 350 OFFCURVE",
"332 317 CURVE",
"142 314 OFFCURVE",
"43 257 OFFCURVE",
"43 141 CURVE SMOOTH",
"43 48 OFFCURVE",
"110 -7 OFFCURVE",
"212 -7 CURVE SMOOTH",
"296 -7 OFFCURVE",
"359 29 OFFCURVE",
"392 58 CURVE",
"434 16 OFFCURVE",
"496 -7 OFFCURVE",
"581 -7 CURVE SMOOTH",
"662 -7 OFFCURVE",
"761 25 OFFCURVE",
"761 61 CURVE SMOOTH",
"761 76 OFFCURVE",
"736 122 OFFCURVE",
"718 122 CURVE SMOOTH",
"706 122 OFFCURVE",
"660 85 OFFCURVE",
"583 85 CURVE SMOOTH",
"502 85 OFFCURVE",
"452 127 OFFCURVE",
"447 234 CURVE",
"736 234 LINE SMOOTH",
"749 234 OFFCURVE",
"776 268 OFFCURVE",
"776 282 CURVE SMOOTH",
"776 433 OFFCURVE",
"712 530 OFFCURVE",
"566 530 CURVE SMOOTH"
);
},
{
closed = 1;
nodes = (
"331 196 OFFCURVE",
"337 163 OFFCURVE",
"347 135 CURVE",
"319 105 OFFCURVE",
"277 85 OFFCURVE",
"228 85 CURVE SMOOTH",
"182 85 OFFCURVE",
"158 110 OFFCURVE",
"158 151 CURVE SMOOTH",
"158 215 OFFCURVE",
"235 232 OFFCURVE",
"329 233 CURVE"
);
},
{
closed = 1;
nodes = (
"628 438 OFFCURVE",
"663 396 OFFCURVE",
"663 317 CURVE",
"446 317 LINE",
"455 405 OFFCURVE",
"500 438 OFFCURVE",
"564 438 CURVE SMOOTH"
);
}
);
width = 829;
}
);
unicode = 00E6;
},
{
color = 11;
glyphname = b;
lastChange = "2014-11-19 04:29:10 +0000";
layers = (
{
layerId = "166CCA77-1BE6-4372-BC61-BAE07403C72D";
name = Regular;
paths = (
{
closed = 1;
nodes = (
"126 753 LINE SMOOTH",
"92 753 OFFCURVE",
"77 744 OFFCURVE",
"77 727 CURVE SMOOTH",
"77 24 LINE SMOOTH",
"77 7 OFFCURVE",
"90 -2 OFFCURVE",
"120 -2 CURVE SMOOTH",
"128 -2 LINE SMOOTH",
"149 -2 OFFCURVE",
"163 1 OFFCURVE",
"168 16 CURVE",
"174 33 OFFCURVE",
"178 51 OFFCURVE",
"181 68 CURVE",
"219 21 OFFCURVE",
"270 -7 OFFCURVE",
"330 -7 CURVE SMOOTH",
"444 -7 OFFCURVE",
"521 98 OFFCURVE",
"521 262 CURVE SMOOTH",
"521 431 OFFCURVE",
"440 530 OFFCURVE",
"314 530 CURVE SMOOTH",
"259 530 OFFCURVE",
"220 511 OFFCURVE",
"189 488 CURVE",
"189 727 LINE SMOOTH",
"189 744 OFFCURVE",
"174 753 OFFCURVE",
"140 753 CURVE SMOOTH"
);
},
{
closed = 1;
nodes = (
"367 436 OFFCURVE",
"406 377 OFFCURVE",
"406 266 CURVE SMOOTH",
"406 151 OFFCURVE",
"369 87 OFFCURVE",
"301 87 CURVE SMOOTH",
"259 87 OFFCURVE",
"220 113 OFFCURVE",
"189 152 CURVE",
"189 403 LINE",
"216 424 OFFCURVE",
"252 437 OFFCURVE",
"289 437 CURVE SMOOTH"
);
}
);
width = 569;
}
);
unicode = 0062;
},
{
color = 11;
glyphname = c;
lastChange = "2014-11-19 04:29:10 +0000";
layers = (
{
anchors = (
{
name = bottom;
position = "{289, 0}";
},
{
name = top;
position = "{276, 523}";
}
);
layerId = "166CCA77-1BE6-4372-BC61-BAE07403C72D";
name = Regular;
paths = (
{
closed = 1;
nodes = (
"151 530 OFFCURVE",
"48 457 OFFCURVE",
"48 261 CURVE SMOOTH",
"48 74 OFFCURVE",
"131 -7 OFFCURVE",
"297 -7 CURVE SMOOTH",
"360 -7 OFFCURVE",
"461 15 OFFCURVE",
"461 52 CURVE SMOOTH",
"461 69 OFFCURVE",
"437 114 OFFCURVE",
"420 114 CURVE SMOOTH",
"417 114 OFFCURVE",
"412 112 OFFCURVE",
"406 109 CURVE",
"387 100 OFFCURVE",
"351 85 OFFCURVE",
"299 85 CURVE SMOOTH",
"202 85 OFFCURVE",
"165 140 OFFCURVE",
"165 264 CURVE SMOOTH",
"165 387 OFFCURVE",
"212 438 OFFCURVE",
"296 438 CURVE SMOOTH",
"345 438 OFFCURVE",
"377 424 OFFCURVE",
"395 415 CURVE SMOOTH",
"402 412 OFFCURVE",
"407 410 OFFCURVE",
"410 410 CURVE SMOOTH",
"424 410 OFFCURVE",
"451 457 OFFCURVE",
"451 474 CURVE SMOOTH",
"451 507 OFFCURVE",
"368 530 OFFCURVE",
"294 530 CURVE SMOOTH"
);
}
);
width = 485;
}
);
unicode = 0063;
},
{
color = 11;
glyphname = d;
lastChange = "2014-11-19 04:29:11 +0000";
layers = (
{
anchors = (
{
name = bottom;
position = "{285, 0}";
},
{
name = caron;
position = "{488, 700}";
},
{
name = center;
position = "{419, 630}";
}
);
layerId = "166CCA77-1BE6-4372-BC61-BAE07403C72D";
name = Regular;
paths = (
{
closed = 1;
nodes = (
"428 753 LINE SMOOTH",
"394 753 OFFCURVE",
"380 744 OFFCURVE",
"380 727 CURVE SMOOTH",
"380 488 LINE",
"348 511 OFFCURVE",
"310 530 OFFCURVE",
"254 530 CURVE SMOOTH",
"129 530 OFFCURVE",
"48 431 OFFCURVE",
"48 261 CURVE SMOOTH",
"48 98 OFFCURVE",
"124 -7 OFFCURVE",
"239 -7 CURVE SMOOTH",
"298 -7 OFFCURVE",
"349 21 OFFCURVE",
"387 68 CURVE",
"393 41 OFFCURVE",
"397 -1 OFFCURVE",
"424 -1 CURVE SMOOTH",
"442 -1 OFFCURVE",
"504 5 OFFCURVE",
"504 26 CURVE SMOOTH",
"504 38 OFFCURVE",
"492 69 OFFCURVE",
"492 160 CURVE SMOOTH",
"492 727 LINE SMOOTH",
"492 744 OFFCURVE",
"477 753 OFFCURVE",
"443 753 CURVE SMOOTH"
);
},
{
closed = 1;
nodes = (
"319 437 OFFCURVE",
"352 424 OFFCURVE",
"380 403 CURVE",
"380 152 LINE",
"349 113 OFFCURVE",
"309 87 OFFCURVE",
"268 87 CURVE SMOOTH",
"199 87 OFFCURVE",
"163 151 OFFCURVE",
"163 266 CURVE SMOOTH",
"163 377 OFFCURVE",
"201 436 OFFCURVE",
"280 437 CURVE SMOOTH"
);
}
);
width = 565;
}
);
unicode = 0064;
},
{
color = 11;
glyphname = eth;
lastChange = "2014-11-19 04:29:10 +0000";
layers = (
{
layerId = "166CCA77-1BE6-4372-BC61-BAE07403C72D";
name = Regular;
paths = (
{
closed = 1;
nodes = (
"296 714 OFFCURVE",
"283 712 OFFCURVE",
"270 710 CURVE SMOOTH",
"258 708 OFFCURVE",
"252 704 OFFCURVE",
"252 697 CURVE SMOOTH",
"252 688 OFFCURVE",
"269 668 OFFCURVE",
"283 648 CURVE",
"224 640 LINE SMOOTH",
"212 638 OFFCURVE",
"206 633 OFFCURVE",
"206 625 CURVE SMOOTH",
"206 608 OFFCURVE",
"222 589 OFFCURVE",
"238 589 CURVE SMOOTH",
"241 589 OFFCURVE",
"243 589 OFFCURVE",
"313 599 CURVE",
"327 576 OFFCURVE",
"340 550 OFFCURVE",
"353 521 CURVE",
"333 527 OFFCURVE",
"310 530 OFFCURVE",
"286 530 CURVE SMOOTH",
"132 530 OFFCURVE",
"49 434 OFFCURVE",
"49 260 CURVE SMOOTH",
"49 87 OFFCURVE",
"131 -7 OFFCURVE",
"286 -7 CURVE SMOOTH",
"439 -7 OFFCURVE",
"519 87 OFFCURVE",
"519 260 CURVE SMOOTH",
"519 392 OFFCURVE",
"471 520 OFFCURVE",
"411 613 CURVE",
"465 620 LINE SMOOTH",
"477 621 OFFCURVE",
"483 626 OFFCURVE",
"483 634 CURVE SMOOTH",
"483 646 OFFCURVE",
"471 671 OFFCURVE",
"453 671 CURVE SMOOTH",
"452 671 OFFCURVE",
"451 671 OFFCURVE",
"379 660 CURVE",
"366 678 OFFCURVE",
"355 692 OFFCURVE",
"343 703 CURVE SMOOTH",
"335 710 OFFCURVE",
"325 714 OFFCURVE",
"312 714 CURVE SMOOTH"
);
},
{
closed = 1;
nodes = (
"367 438 OFFCURVE",
"405 380 OFFCURVE",
"405 261 CURVE SMOOTH",
"405 143 OFFCURVE",
"367 85 OFFCURVE",
"284 85 CURVE SMOOTH",
"201 85 OFFCURVE",
"163 143 OFFCURVE",
"163 261 CURVE SMOOTH",
"163 381 OFFCURVE",
"202 438 OFFCURVE",
"284 438 CURVE SMOOTH"
);
}
);
width = 569;
}
);
unicode = 00F0;
},
{
color = 11;
glyphname = e;
lastChange = "2014-11-19 04:29:11 +0000";
layers = (
{
anchors = (
{
name = bottom;
position = "{270, 0}";
},
{
name = ogonek;
position = "{435, 12}";
},
{
name = top;
position = "{270, 523}";
}
);
layerId = "166CCA77-1BE6-4372-BC61-BAE07403C72D";
name = Regular;
paths = (
{
closed = 1;
nodes = (
"138 530 OFFCURVE",
"49 444 OFFCURVE",
"49 258 CURVE SMOOTH",
"49 87 OFFCURVE",
"128 -7 OFFCURVE",
"301 -7 CURVE SMOOTH",
"382 -7 OFFCURVE",
"481 25 OFFCURVE",
"481 61 CURVE SMOOTH",
"481 76 OFFCURVE",
"456 122 OFFCURVE",
"439 122 CURVE SMOOTH",
"427 122 OFFCURVE",
"380 85 OFFCURVE",
"303 85 CURVE SMOOTH",
"219 85 OFFCURVE",
"174 124 OFFCURVE",
"166 221 CURVE",
"456 221 LINE SMOOTH",
"468 221 OFFCURVE",
"497 256 OFFCURVE",
"497 270 CURVE SMOOTH",
"497 427 OFFCURVE",
"432 530 OFFCURVE",
"286 530 CURVE SMOOTH"
);
},
{
closed = 1;
nodes = (
"352 438 OFFCURVE",
"384 390 OFFCURVE",
"384 305 CURVE",
"167 305 LINE",
"176 398 OFFCURVE",
"218 438 OFFCURVE",
"285 438 CURVE SMOOTH"
);
}
);
width = 539;
}
);
unicode = 0065;
},
{
color = 11;
glyphname = f;
lastChange = "2014-11-19 04:29:10 +0000";
layers = (
{
layerId = "166CCA77-1BE6-4372-BC61-BAE07403C72D";
name = Regular;
paths = (
{
closed = 1;
nodes = (
"163 758 OFFCURVE",
"96 725 OFFCURVE",
"96 609 CURVE SMOOTH",
"96 523 LINE",
"65 523 LINE SMOOTH",
"48 523 OFFCURVE",
"41 511 OFFCURVE",
"41 484 CURVE SMOOTH",
"41 470 LINE SMOOTH",
"41 443 OFFCURVE",
"48 431 OFFCURVE",
"65 431 CURVE SMOOTH",
"96 431 LINE",
"96 24 LINE SMOOTH",
"96 7 OFFCURVE",
"110 -2 OFFCURVE",
"144 -2 CURVE SMOOTH",
"159 -2 LINE SMOOTH",
"193 -2 OFFCURVE",
"208 7 OFFCURVE",
"208 24 CURVE SMOOTH",
"208 431 LINE",
"279 431 LINE SMOOTH",
"296 431 OFFCURVE",
"303 443 OFFCURVE",
"303 470 CURVE SMOOTH",
"303 484 LINE SMOOTH",
"303 511 OFFCURVE",
"296 523 OFFCURVE",
"279 523 CURVE SMOOTH",
"208 523 LINE",
"208 606 LINE SMOOTH",
"208 656 OFFCURVE",
"226 666 OFFCURVE",
"254 666 CURVE SMOOTH",
"275 666 OFFCURVE",
"283 662 OFFCURVE",
"292 662 CURVE SMOOTH",
"308 662 OFFCURVE",
"317 711 OFFCURVE",
"317 719 CURVE SMOOTH",
"317 755 OFFCURVE",
"261 758 OFFCURVE",
"232 758 CURVE SMOOTH"
);
}
);
width = 325;
}
);
unicode = 0066;
},
{
color = 11;
glyphname = g;
lastChange = "2014-11-19 04:29:11 +0000";
layers = (
{
anchors = (
{
name = top;
position = "{273, 523}";
}
);
layerId = "166CCA77-1BE6-4372-BC61-BAE07403C72D";
name = Regular;
paths = (
{
closed = 1;
nodes = (
"141 530 OFFCURVE",
"61 468 OFFCURVE",
"61 360 CURVE SMOOTH",
"61 294 OFFCURVE",
"91 243 OFFCURVE",
"144 216 CURVE",
"108 193 OFFCURVE",
"87 161 OFFCURVE",
"87 121 CURVE SMOOTH",
"87 85 OFFCURVE",
"102 59 OFFCURVE",
"128 42 CURVE",
"127 39 LINE",
"73 17 OFFCURVE",
"36 -25 OFFCURVE",
"36 -82 CURVE SMOOTH",
"36 -172 OFFCURVE",
"119 -212 OFFCURVE",
"257 -212 CURVE SMOOTH",
"409 -212 OFFCURVE",
"498 -152 OFFCURVE",
"498 -53 CURVE SMOOTH",
"498 43 OFFCURVE",
"421 66 OFFCURVE",
"345 78 CURVE SMOOTH",
"267 90 OFFCURVE",
"190 90 OFFCURVE",
"190 140 CURVE SMOOTH",
"190 176 OFFCURVE",
"218 190 OFFCURVE",
"270 191 CURVE SMOOTH",
"392 191 OFFCURVE",
"470 254 OFFCURVE",
"470 360 CURVE SMOOTH",
"470 386 OFFCURVE",
"462 414 OFFCURVE",
"448 433 CURVE",
"450 436 LINE",
"464 434 OFFCURVE",
"487 433 OFFCURVE",
"508 433 CURVE SMOOTH",
"523 433 OFFCURVE",
"530 444 OFFCURVE",
"530 470 CURVE SMOOTH",
"530 484 LINE SMOOTH",
"530 511 OFFCURVE",
"522 523 OFFCURVE",
"505 523 CURVE SMOOTH",
"332 523 LINE",
"312 527 OFFCURVE",
"289 530 OFFCURVE",
"265 530 CURVE SMOOTH"
);
},
{
closed = 1;
nodes = (
"295 -10 OFFCURVE",
"391 -4 OFFCURVE",
"391 -60 CURVE SMOOTH",
"391 -101 OFFCURVE",
"351 -123 OFFCURVE",
"268 -123 CURVE SMOOTH",
"200 -123 OFFCURVE",
"142 -109 OFFCURVE",
"142 -62 CURVE SMOOTH",
"142 -30 OFFCURVE",
"167 -7 OFFCURVE",
"203 7 CURVE"
);
},
{
closed = 1;
nodes = (
"321 445 OFFCURVE",
"366 423 OFFCURVE",
"366 360 CURVE SMOOTH",
"366 297 OFFCURVE",
"321 275 OFFCURVE",
"266 275 CURVE SMOOTH",
"211 275 OFFCURVE",
"166 297 OFFCURVE",
"166 360 CURVE SMOOTH",
"166 423 OFFCURVE",
"211 445 OFFCURVE",
"266 445 CURVE SMOOTH"
);
}
);
width = 546;
}
);
unicode = 0067;
},
{
color = 11;
glyphname = h;
lastChange = "2014-11-19 04:29:10 +0000";
layers = (
{
anchors = (
{
name = bottom;
position = "{282, 0}";
},
{
name = center;
position = "{170, 630}";
},
{
name = top;
position = "{137, 731}";
}
);
layerId = "166CCA77-1BE6-4372-BC61-BAE07403C72D";
name = Regular;
paths = (
{
closed = 1;
nodes = (
"130 753 LINE SMOOTH",
"96 753 OFFCURVE",
"81 744 OFFCURVE",
"81 727 CURVE SMOOTH",
"81 24 LINE SMOOTH",
"81 7 OFFCURVE",
"96 -2 OFFCURVE",
"130 -2 CURVE SMOOTH",
"144 -2 LINE SMOOTH",
"178 -2 OFFCURVE",
"193 7 OFFCURVE",
"193 24 CURVE SMOOTH",
"193 371 LINE",
"198 381 OFFCURVE",
"239 435 OFFCURVE",
"299 435 CURVE SMOOTH",
"356 435 OFFCURVE",
"384 404 OFFCURVE",
"384 354 CURVE SMOOTH",
"384 24 LINE SMOOTH",
"384 7 OFFCURVE",
"399 -2 OFFCURVE",
"433 -2 CURVE SMOOTH",
"447 -2 LINE SMOOTH",
"482 -2 OFFCURVE",
"496 7 OFFCURVE",
"496 24 CURVE SMOOTH",
"496 368 LINE SMOOTH",
"496 493 OFFCURVE",
"420 530 OFFCURVE",
"341 530 CURVE SMOOTH",
"278 530 OFFCURVE",
"226 497 OFFCURVE",
"193 461 CURVE",
"193 727 LINE SMOOTH",
"193 744 OFFCURVE",
"178 753 OFFCURVE",
"144 753 CURVE SMOOTH"
);
}
);
width = 565;
}
);
unicode = 0068;
},
{
color = 11;
glyphname = i;
lastChange = "2014-11-19 04:29:10 +0000";
layers = (
{
anchors = (
{
name = bottom;
position = "{131, 0}";
}
);
layerId = "166CCA77-1BE6-4372-BC61-BAE07403C72D";
name = Regular;
paths = (
{
closed = 1;
nodes = (
"126 525 LINE SMOOTH",
"92 525 OFFCURVE",
"77 516 OFFCURVE",
"77 499 CURVE SMOOTH",
"77 24 LINE SMOOTH",
"77 7 OFFCURVE",
"92 -2 OFFCURVE",
"126 -2 CURVE SMOOTH",
"140 -2 LINE SMOOTH",
"174 -2 OFFCURVE",
"189 7 OFFCURVE",
"189 24 CURVE SMOOTH",
"189 499 LINE SMOOTH",
"189 516 OFFCURVE",
"174 525 OFFCURVE",
"140 525 CURVE SMOOTH"
);
},
{
closed = 1;
nodes = (
"124 753 LINE SMOOTH",
"90 753 OFFCURVE",
"75 744 OFFCURVE",
"75 727 CURVE SMOOTH",
"75 658 LINE SMOOTH",
"75 641 OFFCURVE",
"90 632 OFFCURVE",
"124 632 CURVE",
"143 632 LINE SMOOTH",
"177 632 OFFCURVE",
"191 641 OFFCURVE",
"191 658 CURVE SMOOTH",
"191 727 LINE SMOOTH",
"191 744 OFFCURVE",
"177 753 OFFCURVE",
"143 753 CURVE SMOOTH"
);
}
);
width = 265;
}
);
unicode = 0069;
},
{
color = 11;
glyphname = dotlessi;
lastChange = "2014-11-19 04:29:11 +0000";
layers = (
{
anchors = (
{
name = bottom;
position = "{131, 0}";
},
{
name = ogonek;
position = "{163, 0}";
},
{
name = top;
position = "{133, 523}";
}
);
layerId = "166CCA77-1BE6-4372-BC61-BAE07403C72D";
name = Regular;
paths = (
{
closed = 1;
nodes = (
"126 525 LINE SMOOTH",
"92 525 OFFCURVE",
"77 516 OFFCURVE",
"77 499 CURVE SMOOTH",
"77 24 LINE SMOOTH",
"77 7 OFFCURVE",
"92 -2 OFFCURVE",
"126 -2 CURVE SMOOTH",
"140 -2 LINE SMOOTH",
"174 -2 OFFCURVE",
"189 7 OFFCURVE",
"189 24 CURVE SMOOTH",
"189 499 LINE SMOOTH",
"189 516 OFFCURVE",
"174 525 OFFCURVE",
"140 525 CURVE SMOOTH"
);
}
);
width = 265;
}
);
unicode = 0131;
},
{
color = 11;
glyphname = j;
lastChange = "2014-11-19 04:29:11 +0000";
layers = (
{
layerId = "166CCA77-1BE6-4372-BC61-BAE07403C72D";
name = Regular;
paths = (
{
closed = 1;
nodes = (
"137 525 LINE SMOOTH",
"103 525 OFFCURVE",
"88 516 OFFCURVE",
"88 499 CURVE SMOOTH",
"88 -60 LINE SMOOTH",
"88 -107 OFFCURVE",
"69 -120 OFFCURVE",
"42 -120 CURVE SMOOTH",
"21 -120 OFFCURVE",
"12 -116 OFFCURVE",
"4 -116 CURVE SMOOTH",
"-13 -116 OFFCURVE",
"-23 -158 OFFCURVE",
"-23 -172 CURVE SMOOTH",
"-23 -205 OFFCURVE",
"14 -212 OFFCURVE",
"63 -212 CURVE SMOOTH",
"128 -212 OFFCURVE",
"200 -176 OFFCURVE",
"200 -64 CURVE SMOOTH",
"200 499 LINE SMOOTH",
"200 516 OFFCURVE",
"185 525 OFFCURVE",
"151 525 CURVE SMOOTH"
);
},
{
closed = 1;
nodes = (
"134 753 LINE SMOOTH",
"100 753 OFFCURVE",
"85 744 OFFCURVE",
"85 727 CURVE SMOOTH",
"85 658 LINE SMOOTH",
"85 641 OFFCURVE",
"100 632 OFFCURVE",
"134 632 CURVE",
"153 632 LINE SMOOTH",
"187 632 OFFCURVE",
"201 641 OFFCURVE",
"201 658 CURVE SMOOTH",
"201 727 LINE SMOOTH",
"201 744 OFFCURVE",
"187 753 OFFCURVE",
"153 753 CURVE SMOOTH"
);
}
);
width = 276;
}
);
unicode = 006A;
},
{
color = 11;
glyphname = k;
lastChange = "2014-11-19 04:29:11 +0000";
layers = (
{
anchors = (
{
name = bottom;
position = "{261, 0}";
}
);
layerId = "166CCA77-1BE6-4372-BC61-BAE07403C72D";
name = Regular;
paths = (
{
closed = 1;
nodes = (
"131 753 LINE SMOOTH",
"97 753 OFFCURVE",
"82 744 OFFCURVE",
"82 727 CURVE SMOOTH",
"82 24 LINE SMOOTH",
"82 7 OFFCURVE",
"97 -2 OFFCURVE",
"131 -2 CURVE SMOOTH",
"145 -2 LINE SMOOTH",
"179 -2 OFFCURVE",
"194 7 OFFCURVE",
"194 24 CURVE SMOOTH",
"194 247 LINE",
"198 248 LINE",
"371 14 LINE SMOOTH",
"381 0 OFFCURVE",
"403 -2 OFFCURVE",
"428 -2 CURVE SMOOTH",
"449 -2 LINE SMOOTH",
"483 -2 OFFCURVE",
"498 2 OFFCURVE",
"498 12 CURVE SMOOTH",
"498 17 OFFCURVE",
"496 22 OFFCURVE",
"490 31 CURVE SMOOTH",
"302 281 LINE",
"468 491 LINE SMOOTH",
"474 499 OFFCURVE",
"477 506 OFFCURVE",
"477 511 CURVE SMOOTH",
"477 519 OFFCURVE",
"463 525 OFFCURVE",
"433 525 CURVE SMOOTH",
"415 525 LINE SMOOTH",
"390 525 OFFCURVE",
"369 522 OFFCURVE",
"358 509 CURVE SMOOTH",
"198 301 LINE",
"194 302 LINE",
"194 727 LINE SMOOTH",
"194 744 OFFCURVE",
"179 753 OFFCURVE",
"145 753 CURVE SMOOTH"
);
}
);
width = 521;
}
);
unicode = 006B;
},
{
color = 11;
glyphname = l;
lastChange = "2014-11-19 04:29:10 +0000";
layers = (
{
anchors = (
{
name = bottom;
position = "{181, 0}";
},
{
name = caron;
position = "{178, 724}";
},
{
name = center;
position = "{290, 335}";
},
{
name = top;
position = "{130, 720}";
}
);
layerId = "166CCA77-1BE6-4372-BC61-BAE07403C72D";
name = Regular;
paths = (
{
closed = 1;
nodes = (
"123 753 LINE SMOOTH",
"89 753 OFFCURVE",
"74 744 OFFCURVE",
"74 727 CURVE SMOOTH",
"74 142 LINE SMOOTH",
"74 28 OFFCURVE",
"141 -7 OFFCURVE",
"210 -7 CURVE SMOOTH",
"239 -7 OFFCURVE",
"293 -4 OFFCURVE",
"293 31 CURVE SMOOTH",
"293 39 OFFCURVE",
"285 89 OFFCURVE",
"268 89 CURVE SMOOTH",
"260 89 OFFCURVE",
"252 85 OFFCURVE",
"232 85 CURVE SMOOTH",
"204 85 OFFCURVE",
"186 98 OFFCURVE",
"186 145 CURVE SMOOTH",
"186 727 LINE SMOOTH",
"186 744 OFFCURVE",
"171 753 OFFCURVE",
"137 753 CURVE SMOOTH"
);
}
);
width = 297;
}
);
unicode = 006C;
},
{
color = 11;
glyphname = lslash;
lastChange = "2014-11-19 04:29:11 +0000";
layers = (
{
layerId = "166CCA77-1BE6-4372-BC61-BAE07403C72D";
name = Regular;
paths = (
{
closed = 1;
nodes = (
"120 753 LINE SMOOTH",
"86 753 OFFCURVE",
"71 744 OFFCURVE",
"71 727 CURVE SMOOTH",
"71 400 LINE",
"38 381 LINE SMOOTH",
"23 372 OFFCURVE",
"16 361 OFFCURVE",
"16 344 CURVE SMOOTH",
"16 332 LINE SMOOTH",
"16 321 OFFCURVE",
"20 315 OFFCURVE",
"25 315 CURVE SMOOTH",
"28 315 OFFCURVE",
"33 317 OFFCURVE",
"38 320 CURVE SMOOTH",
"71 340 LINE",
"71 142 LINE SMOOTH",
"71 28 OFFCURVE",
"139 -7 OFFCURVE",
"208 -7 CURVE SMOOTH",
"236 -7 OFFCURVE",
"291 -4 OFFCURVE",
"291 31 CURVE SMOOTH",
"291 39 OFFCURVE",
"282 89 OFFCURVE",
"265 89 CURVE SMOOTH",
"258 89 OFFCURVE",
"250 85 OFFCURVE",
"229 85 CURVE SMOOTH",
"202 85 OFFCURVE",
"183 98 OFFCURVE",
"183 145 CURVE SMOOTH",
"183 406 LINE",
"217 427 LINE SMOOTH",
"232 436 OFFCURVE",
"239 446 OFFCURVE",
"239 464 CURVE SMOOTH",
"239 476 LINE SMOOTH",
"239 487 OFFCURVE",
"235 492 OFFCURVE",
"230 492 CURVE SMOOTH",
"226 492 OFFCURVE",
"222 490 OFFCURVE",
"217 488 CURVE SMOOTH",
"183 467 LINE",
"183 727 LINE SMOOTH",
"183 744 OFFCURVE",
"169 753 OFFCURVE",
"135 753 CURVE SMOOTH"
);
}
);
width = 293;
}
);
unicode = 0142;
},
{
color = 11;
glyphname = m;
lastChange = "2014-11-19 04:29:11 +0000";
layers = (
{
layerId = "166CCA77-1BE6-4372-BC61-BAE07403C72D";
name = Regular;
paths = (
{
closed = 1;
nodes = (
"560 530 OFFCURVE",
"502 492 OFFCURVE",
"468 450 CURVE",
"443 511 OFFCURVE",
"387 530 OFFCURVE",
"330 530 CURVE SMOOTH",
"265 530 OFFCURVE",
"211 492 OFFCURVE",
"179 454 CURVE",
"173 480 OFFCURVE",
"170 520 OFFCURVE",
"142 520 CURVE SMOOTH",
"124 520 OFFCURVE",
"63 514 OFFCURVE",
"63 493 CURVE SMOOTH",
"63 482 OFFCURVE",
"75 450 OFFCURVE",
"75 361 CURVE SMOOTH",
"75 24 LINE SMOOTH",
"75 7 OFFCURVE",
"90 -2 OFFCURVE",
"124 -2 CURVE SMOOTH",
"138 -2 LINE SMOOTH",
"172 -2 OFFCURVE",
"187 7 OFFCURVE",
"187 24 CURVE SMOOTH",
"187 371 LINE",
"192 381 OFFCURVE",
"231 435 OFFCURVE",
"290 435 CURVE SMOOTH",
"345 435 OFFCURVE",
"370 404 OFFCURVE",
"370 354 CURVE SMOOTH",
"370 24 LINE SMOOTH",
"370 7 OFFCURVE",
"385 -2 OFFCURVE",
"419 -2 CURVE SMOOTH",
"433 -2 LINE SMOOTH",
"467 -2 OFFCURVE",
"482 7 OFFCURVE",
"482 24 CURVE SMOOTH",
"482 366 LINE SMOOTH",
"482 382 OFFCURVE",
"480 399 OFFCURVE",
"475 415 CURVE",
"475 361 LINE",
"479 366 OFFCURVE",
"519 435 OFFCURVE",
"585 435 CURVE SMOOTH",
"640 435 OFFCURVE",
"665 404 OFFCURVE",
"665 354 CURVE SMOOTH",
"665 24 LINE SMOOTH",
"665 7 OFFCURVE",
"680 -2 OFFCURVE",
"714 -2 CURVE SMOOTH",
"728 -2 LINE SMOOTH",
"762 -2 OFFCURVE",
"777 7 OFFCURVE",
"777 24 CURVE SMOOTH",
"777 368 LINE SMOOTH",
"777 493 OFFCURVE",
"704 530 OFFCURVE",
"625 530 CURVE SMOOTH"
);
}
);
width = 848;
}
);
unicode = 006D;
},
{
color = 11;
glyphname = n;
lastChange = "2014-11-19 04:29:10 +0000";
layers = (
{
anchors = (
{
name = bottom;
position = "{279, 0}";
},
{
name = top;
position = "{279, 523}";
}
);
layerId = "166CCA77-1BE6-4372-BC61-BAE07403C72D";
name = Regular;
paths = (
{
closed = 1;
nodes = (
"274 530 OFFCURVE",
"217 498 OFFCURVE",
"180 454 CURVE",
"174 480 OFFCURVE",
"171 520 OFFCURVE",
"143 520 CURVE SMOOTH",
"125 520 OFFCURVE",
"64 514 OFFCURVE",
"64 493 CURVE SMOOTH",
"64 482 OFFCURVE",
"76 450 OFFCURVE",
"76 361 CURVE SMOOTH",
"76 24 LINE SMOOTH",
"76 7 OFFCURVE",
"91 -2 OFFCURVE",
"125 -2 CURVE SMOOTH",
"139 -2 LINE SMOOTH",
"173 -2 OFFCURVE",
"188 7 OFFCURVE",
"188 24 CURVE SMOOTH",
"188 371 LINE",
"212 405 OFFCURVE",
"251 435 OFFCURVE",
"294 435 CURVE SMOOTH",
"350 435 OFFCURVE",
"378 405 OFFCURVE",
"378 354 CURVE SMOOTH",
"378 24 LINE SMOOTH",
"378 7 OFFCURVE",
"392 -2 OFFCURVE",
"426 -2 CURVE SMOOTH",
"441 -2 LINE SMOOTH",
"475 -2 OFFCURVE",
"489 7 OFFCURVE",
"489 24 CURVE SMOOTH",
"489 368 LINE SMOOTH",
"489 473 OFFCURVE",
"435 530 OFFCURVE",
"333 530 CURVE SMOOTH"
);
}
);
width = 557;
}
);
unicode = 006E;
},
{
color = 11;
glyphname = o;
lastChange = "2014-11-19 04:29:11 +0000";
layers = (
{
anchors = (
{
name = bottom;
position = "{291, 0}";
},
{
name = horn;
position = "{381, 505}";
},
{
name = ogonek;
position = "{347, 0}";
},
{
name = top;
position = "{285, 523}";
}
);
layerId = "166CCA77-1BE6-4372-BC61-BAE07403C72D";
name = Regular;
paths = (
{
closed = 1;
nodes = (
"132 530 OFFCURVE",
"49 434 OFFCURVE",
"49 260 CURVE SMOOTH",
"49 87 OFFCURVE",
"131 -7 OFFCURVE",
"286 -7 CURVE SMOOTH",
"439 -7 OFFCURVE",
"519 87 OFFCURVE",
"519 260 CURVE SMOOTH",
"519 434 OFFCURVE",
"438 530 OFFCURVE",
"286 530 CURVE SMOOTH"
);
},
{
closed = 1;
nodes = (
"367 438 OFFCURVE",
"405 380 OFFCURVE",
"405 261 CURVE SMOOTH",
"405 143 OFFCURVE",
"367 85 OFFCURVE",
"284 85 CURVE SMOOTH",
"201 85 OFFCURVE",
"164 143 OFFCURVE",
"164 261 CURVE SMOOTH",
"164 381 OFFCURVE",
"201 438 OFFCURVE",
"284 438 CURVE SMOOTH"
);
}
);
width = 569;
}
);
unicode = 006F;
},
{
color = 11;
glyphname = oslash;
lastChange = "2014-11-19 04:29:10 +0000";
layers = (
{
anchors = (
{
name = top;
position = "{285, 523}";
}
);
layerId = "166CCA77-1BE6-4372-BC61-BAE07403C72D";
name = Regular;
paths = (
{
closed = 1;
nodes = (
"158 529 OFFCURVE",
"49 463 OFFCURVE",
"49 260 CURVE SMOOTH",
"49 181 OFFCURVE",
"65 123 OFFCURVE",
"93 81 CURVE",
"61 44 LINE SMOOTH",
"56 38 OFFCURVE",
"53 33 OFFCURVE",
"53 27 CURVE SMOOTH",
"53 14 OFFCURVE",
"75 -4 OFFCURVE",
"87 -4 CURVE SMOOTH",
"93 -4 OFFCURVE",
"98 -1 OFFCURVE",
"104 6 CURVE SMOOTH",
"132 39 LINE",
"174 5 OFFCURVE",
"229 -6 OFFCURVE",
"286 -6 CURVE SMOOTH",
"414 -6 OFFCURVE",
"519 58 OFFCURVE",
"519 260 CURVE SMOOTH",
"519 339 OFFCURVE",
"503 397 OFFCURVE",
"476 439 CURVE",
"513 483 LINE SMOOTH",
"518 489 OFFCURVE",
"521 494 OFFCURVE",
"521 500 CURVE SMOOTH",
"521 512 OFFCURVE",
"499 531 OFFCURVE",
"488 531 CURVE SMOOTH",
"482 531 OFFCURVE",
"476 527 OFFCURVE",
"470 521 CURVE SMOOTH",
"437 482 LINE",
"396 517 OFFCURVE",
"342 529 OFFCURVE",
"286 529 CURVE SMOOTH"
);
},
{
closed = 1;
nodes = (
"402 322 OFFCURVE",
"405 295 OFFCURVE",
"405 261 CURVE SMOOTH",
"405 136 OFFCURVE",
"363 85 OFFCURVE",
"285 85 CURVE SMOOTH",
"249 85 OFFCURVE",
"221 95 OFFCURVE",
"201 118 CURVE",
"395 345 LINE"
);
},
{
closed = 1;
nodes = (
"320 438 OFFCURVE",
"349 427 OFFCURVE",
"369 403 CURVE",
"175 176 LINE",
"168 198 OFFCURVE",
"164 226 OFFCURVE",
"164 261 CURVE SMOOTH",
"164 387 OFFCURVE",
"207 438 OFFCURVE",
"285 438 CURVE SMOOTH"
);
}
);
width = 569;
}
);
unicode = 00F8;
},
{
color = 11;
glyphname = oe;
lastChange = "2014-11-19 04:29:11 +0000";
layers = (
{
anchors = (
{
name = top;
position = "{436, 523}";
}
);
components = (
{
name = e;
transform = "{1, 0, 0, 1, 328, 0}";
}
);
layerId = "166CCA77-1BE6-4372-BC61-BAE07403C72D";
name = Regular;
paths = (
{
closed = 1;
nodes = (
"448 470 LINE",
"409 508 OFFCURVE",
"355 530 OFFCURVE",
"286 530 CURVE SMOOTH",
"132 530 OFFCURVE",
"49 434 OFFCURVE",
"49 260 CURVE SMOOTH",
"49 87 OFFCURVE",
"131 -7 OFFCURVE",
"286 -7 CURVE SMOOTH",
"356 -7 OFFCURVE",
"411 14 OFFCURVE",
"450 52 CURVE"
);
},
{
closed = 1;
nodes = (
"373 438 OFFCURVE",
"412 380 OFFCURVE",
"412 261 CURVE SMOOTH",
"412 143 OFFCURVE",
"373 85 OFFCURVE",
"284 85 CURVE SMOOTH",
"201 85 OFFCURVE",
"164 143 OFFCURVE",
"164 261 CURVE SMOOTH",
"164 381 OFFCURVE",
"201 438 OFFCURVE",
"284 438 CURVE SMOOTH"
);
}
);
width = 871;
}
);
unicode = 0153;
},
{
color = 11;
glyphname = p;
lastChange = "2014-11-19 04:29:11 +0000";
layers = (
{
layerId = "166CCA77-1BE6-4372-BC61-BAE07403C72D";
name = Regular;
paths = (
{
closed = 1;
nodes = (
"272 530 OFFCURVE",
"221 502 OFFCURVE",
"183 455 CURVE",
"177 480 OFFCURVE",
"174 520 OFFCURVE",
"146 520 CURVE SMOOTH",
"128 520 OFFCURVE",
"67 514 OFFCURVE",
"67 493 CURVE SMOOTH",
"67 482 OFFCURVE",
"79 450 OFFCURVE",
"79 361 CURVE SMOOTH",
"79 -181 LINE SMOOTH",
"79 -198 OFFCURVE",
"94 -207 OFFCURVE",
"128 -207 CURVE SMOOTH",
"142 -207 LINE SMOOTH",
"176 -207 OFFCURVE",
"191 -198 OFFCURVE",
"191 -181 CURVE SMOOTH",
"191 35 LINE",
"222 12 OFFCURVE",
"261 -7 OFFCURVE",
"316 -7 CURVE SMOOTH",
"442 -7 OFFCURVE",
"523 92 OFFCURVE",
"523 261 CURVE SMOOTH",
"523 424 OFFCURVE",
"449 530 OFFCURVE",
"332 530 CURVE SMOOTH"
);
},
{
closed = 1;
nodes = (
"371 436 OFFCURVE",
"408 372 OFFCURVE",
"408 257 CURVE SMOOTH",
"408 146 OFFCURVE",
"369 87 OFFCURVE",
"291 86 CURVE SMOOTH",
"252 86 OFFCURVE",
"218 99 OFFCURVE",
"191 120 CURVE",
"191 371 LINE",
"222 410 OFFCURVE",
"261 436 OFFCURVE",
"303 436 CURVE SMOOTH"
);
}
);
width = 573;
}
);
unicode = 0070;
},
{
color = 11;
glyphname = thorn;
lastChange = "2014-11-19 04:29:11 +0000";
layers = (
{
layerId = "166CCA77-1BE6-4372-BC61-BAE07403C72D";
name = Regular;
paths = (
{
closed = 1;
nodes = (
"125 753 LINE SMOOTH",
"91 753 OFFCURVE",
"76 744 OFFCURVE",
"76 727 CURVE SMOOTH",
"76 -181 LINE SMOOTH",
"76 -198 OFFCURVE",
"91 -207 OFFCURVE",
"125 -207 CURVE SMOOTH",
"139 -207 LINE SMOOTH",
"173 -207 OFFCURVE",
"188 -198 OFFCURVE",
"188 -181 CURVE SMOOTH",
"188 35 LINE",
"219 12 OFFCURVE",
"258 -7 OFFCURVE",
"313 -7 CURVE SMOOTH",
"439 -7 OFFCURVE",
"520 92 OFFCURVE",
"520 260 CURVE SMOOTH",
"520 425 OFFCURVE",
"443 530 OFFCURVE",
"329 530 CURVE SMOOTH",
"274 530 OFFCURVE",
"225 507 OFFCURVE",
"188 465 CURVE",
"188 727 LINE SMOOTH",
"188 744 OFFCURVE",
"173 753 OFFCURVE",
"139 753 CURVE SMOOTH"
);
},
{
closed = 1;
nodes = (
"368 436 OFFCURVE",
"405 372 OFFCURVE",
"405 257 CURVE SMOOTH",
"405 146 OFFCURVE",
"366 87 OFFCURVE",
"288 86 CURVE SMOOTH",
"249 86 OFFCURVE",
"215 99 OFFCURVE",
"188 120 CURVE",
"188 371 LINE",
"219 410 OFFCURVE",
"258 436 OFFCURVE",
"300 436 CURVE SMOOTH"
);
}
);
width = 570;
}
);
unicode = 00FE;
},
{
color = 11;
glyphname = q;
lastChange = "2014-11-19 04:29:10 +0000";
layers = (
{
layerId = "166CCA77-1BE6-4372-BC61-BAE07403C72D";
name = Regular;
paths = (
{
closed = 1;
nodes = (
"125 530 OFFCURVE",
"48 425 OFFCURVE",
"48 260 CURVE SMOOTH",
"48 92 OFFCURVE",
"129 -7 OFFCURVE",
"257 -7 CURVE SMOOTH",
"312 -7 OFFCURVE",
"351 12 OFFCURVE",
"382 35 CURVE",
"382 -181 LINE SMOOTH",
"382 -198 OFFCURVE",
"396 -207 OFFCURVE",
"431 -207 CURVE SMOOTH",
"445 -207 LINE SMOOTH",
"479 -207 OFFCURVE",
"494 -198 OFFCURVE",
"494 -181 CURVE SMOOTH",
"494 499 LINE SMOOTH",
"494 516 OFFCURVE",
"481 525 OFFCURVE",
"451 525 CURVE SMOOTH",
"443 525 LINE SMOOTH",
"421 525 OFFCURVE",
"407 522 OFFCURVE",
"403 507 CURVE SMOOTH",
"397 490 OFFCURVE",
"393 472 OFFCURVE",
"389 455 CURVE",
"352 502 OFFCURVE",
"300 530 OFFCURVE",
"241 530 CURVE SMOOTH"
);
},
{
closed = 1;
nodes = (
"311 436 OFFCURVE",
"351 410 OFFCURVE",
"382 371 CURVE",
"382 120 LINE",
"354 99 OFFCURVE",
"321 86 OFFCURVE",
"281 86 CURVE SMOOTH",
"202 87 OFFCURVE",
"163 146 OFFCURVE",
"163 257 CURVE SMOOTH",
"163 372 OFFCURVE",
"200 436 OFFCURVE",
"270 436 CURVE SMOOTH"
);
}
);
width = 566;
}
);
unicode = 0071;
},
{
color = 11;
glyphname = r;
lastChange = "2014-11-19 04:29:10 +0000";
layers = (
{
anchors = (
{
name = bottom;
position = "{141, -2}";
},
{
name = top;
position = "{132, 521}";
}
);
layerId = "166CCA77-1BE6-4372-BC61-BAE07403C72D";
name = Regular;
paths = (
{
closed = 1;
nodes = (
"246 530 OFFCURVE",
"211 498 OFFCURVE",
"182 454 CURVE",
"176 480 OFFCURVE",
"173 520 OFFCURVE",
"145 520 CURVE SMOOTH",
"127 520 OFFCURVE",
"66 514 OFFCURVE",
"66 493 CURVE SMOOTH",
"66 482 OFFCURVE",
"78 450 OFFCURVE",
"78 361 CURVE SMOOTH",
"78 24 LINE SMOOTH",
"78 7 OFFCURVE",
"93 -2 OFFCURVE",
"127 -2 CURVE SMOOTH",
"141 -2 LINE SMOOTH",
"175 -2 OFFCURVE",
"190 7 OFFCURVE",
"190 24 CURVE SMOOTH",
"190 371 LINE",
"195 379 OFFCURVE",
"229 427 OFFCURVE",
"277 427 CURVE SMOOTH",
"305 427 OFFCURVE",
"315 417 OFFCURVE",
"328 417 CURVE SMOOTH",
"344 417 OFFCURVE",
"353 465 OFFCURVE",
"353 484 CURVE SMOOTH",
"353 505 OFFCURVE",
"339 530 OFFCURVE",
"295 530 CURVE SMOOTH"
);
}
);
width = 366;
}
);
unicode = 0072;
},
{
color = 11;
glyphname = s;
lastChange = "2014-11-19 04:29:10 +0000";
layers = (
{
anchors = (
{
name = bottom;
position = "{207, 0}";
},
{
name = top;
position = "{207, 523}";
}
);
layerId = "166CCA77-1BE6-4372-BC61-BAE07403C72D";
name = Regular;
paths = (
{
closed = 1;
nodes = (
"115 530 OFFCURVE",
"45 470 OFFCURVE",
"45 377 CURVE SMOOTH",
"45 291 OFFCURVE",
"91 253 OFFCURVE",
"173 227 CURVE SMOOTH",
"235 207 OFFCURVE",
"267 190 OFFCURVE",
"267 148 CURVE SMOOTH",
"267 105 OFFCURVE",
"239 84 OFFCURVE",
"186 84 CURVE SMOOTH",
"123 84 OFFCURVE",
"86 118 OFFCURVE",
"76 118 CURVE SMOOTH",
"59 118 OFFCURVE",
"33 74 OFFCURVE",
"33 57 CURVE SMOOTH",
"33 25 OFFCURVE",
"111 -9 OFFCURVE",
"195 -9 CURVE SMOOTH",
"305 -9 OFFCURVE",
"380 59 OFFCURVE",
"380 154 CURVE SMOOTH",
"380 240 OFFCURVE",
"341 274 OFFCURVE",
"252 306 CURVE SMOOTH",
"198 326 OFFCURVE",
"159 344 OFFCURVE",
"159 389 CURVE SMOOTH",
"159 422 OFFCURVE",
"190 440 OFFCURVE",
"232 440 CURVE SMOOTH",
"283 440 OFFCURVE",
"313 416 OFFCURVE",
"321 416 CURVE SMOOTH",
"337 416 OFFCURVE",
"358 462 OFFCURVE",
"358 481 CURVE SMOOTH",
"358 512 OFFCURVE",
"282 530 OFFCURVE",
"218 530 CURVE SMOOTH"
);
}
);
width = 413;
}
);
unicode = 0073;
},
{
color = 11;
glyphname = germandbls;
lastChange = "2014-11-19 04:29:10 +0000";
layers = (
{
layerId = "166CCA77-1BE6-4372-BC61-BAE07403C72D";
name = Regular;
paths = (
{
closed = 1;
nodes = (
"162 707 OFFCURVE",
"76 627 OFFCURVE",
"76 507 CURVE SMOOTH",
"76 24 LINE SMOOTH",
"76 7 OFFCURVE",
"91 -2 OFFCURVE",
"125 -2 CURVE SMOOTH",
"139 -2 LINE SMOOTH",
"173 -2 OFFCURVE",
"188 7 OFFCURVE",
"188 24 CURVE SMOOTH",
"188 513 LINE SMOOTH",
"188 573 OFFCURVE",
"225 612 OFFCURVE",
"285 612 CURVE SMOOTH",
"338 612 OFFCURVE",
"379 582 OFFCURVE",
"379 521 CURVE SMOOTH",
"379 464 OFFCURVE",
"333 419 OFFCURVE",
"277 419 CURVE SMOOTH",
"270 419 LINE SMOOTH",
"254 419 OFFCURVE",
"247 406 OFFCURVE",
"247 380 CURVE SMOOTH",
"247 366 LINE SMOOTH",
"247 339 OFFCURVE",
"254 327 OFFCURVE",
"271 327 CURVE SMOOTH",
"290 327 LINE SMOOTH",
"359 327 OFFCURVE",
"407 281 OFFCURVE",
"407 208 CURVE SMOOTH",
"407 135 OFFCURVE",
"359 92 OFFCURVE",
"296 92 CURVE SMOOTH",
"271 92 LINE SMOOTH",
"254 92 OFFCURVE",
"247 80 OFFCURVE",
"247 53 CURVE SMOOTH",
"247 39 LINE SMOOTH",
"247 12 OFFCURVE",
"254 0 OFFCURVE",
"271 0 CURVE SMOOTH",
"299 0 LINE SMOOTH",
"429 0 OFFCURVE",
"522 80 OFFCURVE",
"522 208 CURVE SMOOTH",
"522 294 OFFCURVE",
"481 358 OFFCURVE",
"397 384 CURVE",
"397 387 LINE",
"458 413 OFFCURVE",
"495 472 OFFCURVE",
"495 533 CURVE SMOOTH",
"495 653 OFFCURVE",
"403 707 OFFCURVE",
"287 707 CURVE SMOOTH"
);
}
);
width = 554;
}
);
unicode = 00DF;
},
{
color = 11;
glyphname = t;
lastChange = "2014-11-19 04:29:11 +0000";
layers = (
{
anchors = (
{
name = bottom;
position = "{209, 0}";
},
{
name = caron;
position = "{196, 752}";
},
{
name = center;
position = "{170, 292}";
}
);
layerId = "166CCA77-1BE6-4372-BC61-BAE07403C72D";
name = Regular;
paths = (
{
closed = 1;
nodes = (
"148 650 LINE SMOOTH",
"121 650 OFFCURVE",
"108 641 OFFCURVE",
"106 624 CURVE SMOOTH",
"94 523 LINE",
"58 523 LINE SMOOTH",
"41 523 OFFCURVE",
"34 511 OFFCURVE",
"34 484 CURVE SMOOTH",
"34 470 LINE SMOOTH",
"34 443 OFFCURVE",
"41 431 OFFCURVE",
"58 431 CURVE SMOOTH",
"94 431 LINE",
"94 142 LINE SMOOTH",
"94 28 OFFCURVE",
"161 -7 OFFCURVE",
"230 -7 CURVE SMOOTH",
"259 -7 OFFCURVE",
"313 -4 OFFCURVE",
"313 31 CURVE SMOOTH",
"313 39 OFFCURVE",
"304 89 OFFCURVE",
"288 89 CURVE SMOOTH",
"280 89 OFFCURVE",
"272 85 OFFCURVE",
"252 85 CURVE SMOOTH",
"224 85 OFFCURVE",
"205 98 OFFCURVE",
"205 145 CURVE SMOOTH",
"205 431 LINE",
"274 431 LINE SMOOTH",
"291 431 OFFCURVE",
"299 443 OFFCURVE",
"299 470 CURVE SMOOTH",
"299 484 LINE SMOOTH",
"299 511 OFFCURVE",
"291 523 OFFCURVE",
"274 523 CURVE SMOOTH",
"205 523 LINE",
"205 624 LINE SMOOTH",
"205 641 OFFCURVE",
"194 650 OFFCURVE",
"167 650 CURVE SMOOTH"
);
}
);
width = 342;
}
);
unicode = 0074;
},
{
color = 11;
glyphname = u;
lastChange = "2014-11-19 04:29:10 +0000";
layers = (
{
anchors = (
{
name = bottom;
position = "{251, 0}";
},
{
name = horn;
position = "{418, 525}";
},
{
name = ogonek;
position = "{462, 10}";
},
{
name = top;
position = "{279, 523}";
}
);
layerId = "166CCA77-1BE6-4372-BC61-BAE07403C72D";
name = Regular;
paths = (
{
closed = 1;
nodes = (
"418 525 LINE SMOOTH",
"384 525 OFFCURVE",
"370 516 OFFCURVE",
"370 499 CURVE SMOOTH",
"370 152 LINE",
"346 118 OFFCURVE",
"307 88 OFFCURVE",
"264 88 CURVE SMOOTH",
"208 88 OFFCURVE",
"180 118 OFFCURVE",
"180 169 CURVE SMOOTH",
"180 499 LINE SMOOTH",
"180 516 OFFCURVE",
"165 525 OFFCURVE",
"131 525 CURVE SMOOTH",
"117 525 LINE SMOOTH",
"83 525 OFFCURVE",
"68 516 OFFCURVE",
"68 499 CURVE SMOOTH",
"68 155 LINE SMOOTH",
"68 50 OFFCURVE",
"123 -7 OFFCURVE",
"224 -7 CURVE SMOOTH",
"284 -7 OFFCURVE",
"341 25 OFFCURVE",
"377 69 CURVE",
"383 41 OFFCURVE",
"387 -1 OFFCURVE",
"414 -1 CURVE SMOOTH",
"432 -1 OFFCURVE",
"493 5 OFFCURVE",
"493 26 CURVE SMOOTH",
"493 38 OFFCURVE",
"481 69 OFFCURVE",
"481 160 CURVE SMOOTH",
"481 499 LINE SMOOTH",
"481 516 OFFCURVE",
"467 525 OFFCURVE",
"433 525 CURVE SMOOTH"
);
}
);
width = 557;
}
);
unicode = 0075;
},
{
color = 11;
glyphname = v;
lastChange = "2014-11-19 04:29:11 +0000";
layers = (
{
layerId = "166CCA77-1BE6-4372-BC61-BAE07403C72D";
name = Regular;
paths = (
{
closed = 1;
nodes = (
"410 525 LINE",
"385 525 OFFCURVE",
"367 521 OFFCURVE",
"362 507 CURVE SMOOTH",
"278 245 LINE SMOOTH",
"269 214 OFFCURVE",
"258 161 OFFCURVE",
"249 123 CURVE",
"245 123 LINE",
"236 161 OFFCURVE",
"224 213 OFFCURVE",
"213 246 CURVE SMOOTH",
"130 507 LINE SMOOTH",
"126 521 OFFCURVE",
"107 525 OFFCURVE",
"83 525 CURVE SMOOTH",
"66 525 LINE SMOOTH",
"31 525 OFFCURVE",
"15 518 OFFCURVE",
"15 506 CURVE SMOOTH",
"15 501 OFFCURVE",
"17 495 OFFCURVE",
"18 491 CURVE SMOOTH",
"179 16 LINE SMOOTH",
"183 2 OFFCURVE",
"202 -2 OFFCURVE",
"226 -2 CURVE SMOOTH",
"259 -2 LINE SMOOTH",
"283 -2 OFFCURVE",
"302 2 OFFCURVE",
"306 16 CURVE SMOOTH",
"466 490 LINE SMOOTH",
"468 497 OFFCURVE",
"469 501 OFFCURVE",
"469 506 CURVE SMOOTH",
"469 518 OFFCURVE",
"455 525 OFFCURVE",
"422 525 CURVE"
);
}
);
width = 485;
}
);
unicode = 0076;
},
{
color = 11;
glyphname = w;
lastChange = "2014-11-19 04:29:11 +0000";
layers = (
{
anchors = (
{
name = top;
position = "{374, 523}";
}
);
layerId = "166CCA77-1BE6-4372-BC61-BAE07403C72D";
name = Regular;
paths = (
{
closed = 1;
nodes = (
"643 525 OFFCURVE",
"624 520 OFFCURVE",
"621 507 CURVE SMOOTH",
"543 211 LINE SMOOTH",
"537 187 OFFCURVE",
"531 155 OFFCURVE",
"525 128 CURVE",
"520 155 OFFCURVE",
"516 172 OFFCURVE",
"507 211 CURVE SMOOTH",
"431 506 LINE SMOOTH",
"428 520 OFFCURVE",
"409 525 OFFCURVE",
"385 525 CURVE SMOOTH",
"371 525 LINE SMOOTH",
"346 525 OFFCURVE",
"328 520 OFFCURVE",
"325 506 CURVE SMOOTH",
"250 213 LINE SMOOTH",
"243 188 OFFCURVE",
"236 155 OFFCURVE",
"231 128 CURVE",
"225 155 OFFCURVE",
"217 191 OFFCURVE",
"212 211 CURVE SMOOTH",
"135 507 LINE SMOOTH",
"132 520 OFFCURVE",
"113 525 OFFCURVE",
"78 525 CURVE SMOOTH",
"41 525 OFFCURVE",
"25 517 OFFCURVE",
"25 504 CURVE SMOOTH",
"25 500 OFFCURVE",
"27 492 OFFCURVE",
"29 486 CURVE SMOOTH",
"158 16 LINE",
"162 3 OFFCURVE",
"179 -2 OFFCURVE",
"205 -2 CURVE SMOOTH",
"243 -2 LINE SMOOTH",
"266 -2 OFFCURVE",
"286 3 OFFCURVE",
"289 16 CURVE SMOOTH",
"361 299 LINE SMOOTH",
"366 318 OFFCURVE",
"370 340 OFFCURVE",
"374 361 CURVE",
"378 341 OFFCURVE",
"382 318 OFFCURVE",
"387 299 CURVE SMOOTH",
"459 16 LINE SMOOTH",
"462 3 OFFCURVE",
"480 -2 OFFCURVE",
"505 -2 CURVE SMOOTH",
"543 -2 LINE SMOOTH",
"567 -2 OFFCURVE",
"586 3 OFFCURVE",
"590 16 CURVE SMOOTH",
"717 490 LINE SMOOTH",
"718 496 OFFCURVE",
"719 500 OFFCURVE",
"719 504 CURVE SMOOTH",
"719 517 OFFCURVE",
"704 525 OFFCURVE",
"670 525 CURVE SMOOTH"
);
}
);
width = 747;
}
);
unicode = 0077;
},
{
color = 11;
glyphname = x;
lastChange = "2014-11-19 04:29:11 +0000";
layers = (
{
layerId = "166CCA77-1BE6-4372-BC61-BAE07403C72D";
name = Regular;
paths = (
{
closed = 1;
nodes = (
"398 525 LINE",
"374 525 OFFCURVE",
"355 523 OFFCURVE",
"346 509 CURVE SMOOTH",
"265 385 LINE SMOOTH",
"255 371 OFFCURVE",
"250 362 OFFCURVE",
"246 354 CURVE",
"241 362 OFFCURVE",
"236 371 OFFCURVE",
"227 384 CURVE SMOOTH",
"147 508 LINE SMOOTH",
"138 523 OFFCURVE",
"121 525 OFFCURVE",
"96 525 CURVE SMOOTH",
"77 525 LINE SMOOTH",
"39 525 OFFCURVE",
"24 519 OFFCURVE",
"24 508 CURVE SMOOTH",
"24 502 OFFCURVE",
"27 495 OFFCURVE",
"33 486 CURVE SMOOTH",
"180 267 LINE",
"22 36 LINE SMOOTH",
"16 28 OFFCURVE",
"13 21 OFFCURVE",
"13 15 CURVE SMOOTH",
"13 4 OFFCURVE",
"28 -2 OFFCURVE",
"65 -2 CURVE",
"80 -2 LINE",
"103 -2 OFFCURVE",
"122 0 OFFCURVE",
"131 14 CURVE SMOOTH",
"223 152 LINE SMOOTH",
"231 166 OFFCURVE",
"236 174 OFFCURVE",
"240 181 CURVE",
"244 174 OFFCURVE",
"249 166 OFFCURVE",
"258 152 CURVE SMOOTH",
"348 15 LINE SMOOTH",
"357 0 OFFCURVE",
"374 -2 OFFCURVE",
"399 -2 CURVE SMOOTH",
"418 -2 LINE SMOOTH",
"456 -2 OFFCURVE",
"471 4 OFFCURVE",
"471 15 CURVE SMOOTH",
"471 21 OFFCURVE",
"468 28 OFFCURVE",
"462 37 CURVE SMOOTH",
"306 268 LINE",
"455 487 LINE SMOOTH",
"461 495 OFFCURVE",
"464 502 OFFCURVE",
"464 508 CURVE SMOOTH",
"464 519 OFFCURVE",
"449 525 OFFCURVE",
"413 525 CURVE"
);
}
);
width = 485;
}
);
unicode = 0078;
},
{
color = 11;
glyphname = y;
lastChange = "2014-11-19 04:29:11 +0000";
layers = (
{
anchors = (
{
name = bottom;
position = "{353, 0}";
},
{
name = top;
position = "{241, 523}";
}
);
layerId = "166CCA77-1BE6-4372-BC61-BAE07403C72D";
name = Regular;
paths = (
{
closed = 1;
nodes = (
"408 525 LINE",
"384 525 OFFCURVE",
"365 521 OFFCURVE",
"361 507 CURVE SMOOTH",
"278 273 LINE SMOOTH",
"269 246 OFFCURVE",
"257 200 OFFCURVE",
"248 164 CURVE",
"245 164 LINE",
"236 200 OFFCURVE",
"224 245 OFFCURVE",
"215 273 CURVE SMOOTH",
"131 507 LINE SMOOTH",
"126 521 OFFCURVE",
"108 525 OFFCURVE",
"84 525 CURVE SMOOTH",
"66 525 LINE SMOOTH",
"31 525 OFFCURVE",
"15 518 OFFCURVE",
"15 506 CURVE SMOOTH",
"15 501 OFFCURVE",
"17 495 OFFCURVE",
"18 491 CURVE SMOOTH",
"189 16 LINE",
"114 -172 LINE",
"110 -182 OFFCURVE",
"110 -186 OFFCURVE",
"110 -189 CURVE SMOOTH",
"110 -200 OFFCURVE",
"124 -207 OFFCURVE",
"154 -207 CURVE SMOOTH",
"170 -207 LINE SMOOTH",
"197 -207 OFFCURVE",
"215 -202 OFFCURVE",
"221 -186 CURVE SMOOTH",
"466 490 LINE SMOOTH",
"468 497 OFFCURVE",
"469 501 OFFCURVE",
"469 506 CURVE SMOOTH",
"469 518 OFFCURVE",
"454 525 OFFCURVE",
"420 525 CURVE"
);
}
);
width = 481;
}
);
unicode = 0079;
},
{
color = 11;
glyphname = z;
lastChange = "2014-11-19 04:29:11 +0000";
layers = (
{
anchors = (
{
name = bottom;
position = "{239, 0}";
},
{
name = top;
position = "{245, 523}";
}
);
layerId = "166CCA77-1BE6-4372-BC61-BAE07403C72D";
name = Regular;
paths = (
{
closed = 1;
nodes = (
"76 523 LINE SMOOTH",
"59 523 OFFCURVE",
"51 511 OFFCURVE",
"51 484 CURVE SMOOTH",
"51 470 LINE SMOOTH",
"51 443 OFFCURVE",
"59 431 OFFCURVE",
"76 431 CURVE SMOOTH",
"301 431 LINE",
"36 74 LINE SMOOTH",
"34 71 OFFCURVE",
"33 67 OFFCURVE",
"33 62 CURVE SMOOTH",
"33 39 OFFCURVE",
"48 0 OFFCURVE",
"58 0 CURVE",
"430 0 LINE SMOOTH",
"447 0 OFFCURVE",
"454 12 OFFCURVE",
"454 39 CURVE SMOOTH",
"454 53 LINE SMOOTH",
"454 80 OFFCURVE",
"447 92 OFFCURVE",
"430 92 CURVE SMOOTH",
"185 92 LINE",
"449 448 LINE SMOOTH",
"451 450 OFFCURVE",
"452 454 OFFCURVE",
"452 460 CURVE SMOOTH",
"452 482 OFFCURVE",
"438 523 OFFCURVE",
"428 523 CURVE SMOOTH"
);
}
);
width = 489;
}
);
unicode = 007A;
},
{
color = 11;
glyphname = fi;
lastChange = "2014-11-19 04:29:10 +0000";
layers = (
{
layerId = "166CCA77-1BE6-4372-BC61-BAE07403C72D";
name = Regular;
paths = (
{
closed = 1;
nodes = (
"156 758 OFFCURVE",
"89 725 OFFCURVE",
"89 609 CURVE SMOOTH",
"89 523 LINE",
"58 523 LINE SMOOTH",
"41 523 OFFCURVE",
"34 511 OFFCURVE",
"34 484 CURVE SMOOTH",
"34 470 LINE SMOOTH",
"34 443 OFFCURVE",
"41 431 OFFCURVE",
"58 431 CURVE SMOOTH",
"89 431 LINE",
"89 24 LINE SMOOTH",
"89 7 OFFCURVE",
"103 -2 OFFCURVE",
"137 -2 CURVE SMOOTH",
"152 -2 LINE SMOOTH",
"186 -2 OFFCURVE",
"201 7 OFFCURVE",
"201 24 CURVE SMOOTH",
"201 431 LINE",
"272 431 LINE SMOOTH",
"289 431 OFFCURVE",
"296 443 OFFCURVE",
"296 470 CURVE SMOOTH",
"296 484 LINE SMOOTH",
"296 511 OFFCURVE",
"289 523 OFFCURVE",
"272 523 CURVE SMOOTH",
"201 523 LINE",
"201 606 LINE SMOOTH",
"201 656 OFFCURVE",
"219 666 OFFCURVE",
"247 666 CURVE SMOOTH",
"268 666 OFFCURVE",
"276 662 OFFCURVE",
"285 662 CURVE SMOOTH",
"301 662 OFFCURVE",
"310 711 OFFCURVE",
"310 719 CURVE SMOOTH",
"310 755 OFFCURVE",
"254 758 OFFCURVE",
"225 758 CURVE SMOOTH"
);
},
{
closed = 1;
nodes = (
"424 525 LINE SMOOTH",
"390 525 OFFCURVE",
"375 516 OFFCURVE",
"375 499 CURVE SMOOTH",
"375 24 LINE SMOOTH",
"375 7 OFFCURVE",
"390 -2 OFFCURVE",
"424 -2 CURVE SMOOTH",
"438 -2 LINE SMOOTH",
"472 -2 OFFCURVE",
"487 7 OFFCURVE",
"487 24 CURVE SMOOTH",
"487 499 LINE SMOOTH",
"487 516 OFFCURVE",
"472 525 OFFCURVE",
"438 525 CURVE SMOOTH"
);
},
{
closed = 1;
nodes = (
"422 753 LINE SMOOTH",
"388 753 OFFCURVE",
"373 744 OFFCURVE",
"373 727 CURVE SMOOTH",
"373 658 LINE SMOOTH",
"373 641 OFFCURVE",
"388 632 OFFCURVE",
"422 632 CURVE",
"441 632 LINE SMOOTH",
"475 632 OFFCURVE",
"489 641 OFFCURVE",
"489 658 CURVE SMOOTH",
"489 727 LINE SMOOTH",
"489 744 OFFCURVE",
"475 753 OFFCURVE",
"441 753 CURVE SMOOTH"
);
}
);
width = 563;
}
);
unicode = FB01;
},
{
color = 11;
glyphname = fl;
lastChange = "2014-11-19 04:29:10 +0000";
layers = (
{
layerId = "166CCA77-1BE6-4372-BC61-BAE07403C72D";
name = Regular;
paths = (
{
closed = 1;
nodes = (
"156 758 OFFCURVE",
"89 725 OFFCURVE",
"89 609 CURVE SMOOTH",
"89 523 LINE",
"58 523 LINE SMOOTH",
"41 523 OFFCURVE",
"34 511 OFFCURVE",
"34 484 CURVE SMOOTH",
"34 470 LINE SMOOTH",
"34 443 OFFCURVE",
"41 431 OFFCURVE",
"58 431 CURVE SMOOTH",
"89 431 LINE",
"89 24 LINE SMOOTH",
"89 7 OFFCURVE",
"103 -2 OFFCURVE",
"137 -2 CURVE SMOOTH",
"152 -2 LINE SMOOTH",
"186 -2 OFFCURVE",
"201 7 OFFCURVE",
"201 24 CURVE SMOOTH",
"201 431 LINE",
"272 431 LINE SMOOTH",
"289 431 OFFCURVE",
"296 443 OFFCURVE",
"296 470 CURVE SMOOTH",
"296 484 LINE SMOOTH",
"296 511 OFFCURVE",
"289 523 OFFCURVE",
"272 523 CURVE SMOOTH",
"201 523 LINE",
"201 606 LINE SMOOTH",
"201 656 OFFCURVE",
"219 666 OFFCURVE",
"247 666 CURVE SMOOTH",
"268 666 OFFCURVE",
"276 662 OFFCURVE",
"285 662 CURVE SMOOTH",
"301 662 OFFCURVE",
"310 711 OFFCURVE",
"310 719 CURVE SMOOTH",
"310 755 OFFCURVE",
"254 758 OFFCURVE",
"225 758 CURVE SMOOTH"
);
},
{
closed = 1;
nodes = (
"419 753 LINE SMOOTH",
"385 753 OFFCURVE",
"370 744 OFFCURVE",
"370 727 CURVE SMOOTH",
"370 142 LINE SMOOTH",
"370 28 OFFCURVE",
"437 -7 OFFCURVE",
"506 -7 CURVE SMOOTH",
"535 -7 OFFCURVE",
"589 -4 OFFCURVE",
"589 31 CURVE SMOOTH",
"589 39 OFFCURVE",
"581 89 OFFCURVE",
"564 89 CURVE SMOOTH",
"556 89 OFFCURVE",
"548 85 OFFCURVE",
"528 85 CURVE SMOOTH",
"500 85 OFFCURVE",
"482 98 OFFCURVE",
"482 145 CURVE SMOOTH",
"482 727 LINE SMOOTH",
"482 744 OFFCURVE",
"467 753 OFFCURVE",
"433 753 CURVE SMOOTH"
);
}
);
width = 591;
}
);
unicode = FB02;
},
{
color = 11;
glyphname = ordfeminine;
lastChange = "2014-11-19 04:29:11 +0000";
layers = (
{
layerId = "166CCA77-1BE6-4372-BC61-BAE07403C72D";
name = Regular;
paths = (
{
closed = 1;
nodes = (
"101 707 OFFCURVE",
"59 688 OFFCURVE",
"59 674 CURVE SMOOTH",
"59 666 OFFCURVE",
"72 643 OFFCURVE",
"80 643 CURVE SMOOTH",
"85 643 OFFCURVE",
"110 661 OFFCURVE",
"151 661 CURVE SMOOTH",
"186 661 OFFCURVE",
"199 647 OFFCURVE",
"199 626 CURVE SMOOTH",
"199 605 LINE",
"101 604 OFFCURVE",
"44 579 OFFCURVE",
"44 514 CURVE SMOOTH",
"44 468 OFFCURVE",
"74 441 OFFCURVE",
"123 441 CURVE SMOOTH",
"165 441 OFFCURVE",
"191 464 OFFCURVE",
"203 478 CURVE",
"205 465 OFFCURVE",
"207 444 OFFCURVE",
"221 444 CURVE SMOOTH",
"230 444 OFFCURVE",
"260 446 OFFCURVE",
"260 457 CURVE SMOOTH",
"260 463 OFFCURVE",
"254 478 OFFCURVE",
"254 523 CURVE SMOOTH",
"254 627 LINE SMOOTH",
"254 675 OFFCURVE",
"221 707 OFFCURVE",
"153 707 CURVE SMOOTH"
);
},
{
closed = 1;
nodes = (
"199 519 LINE",
"184 501 OFFCURVE",
"164 487 OFFCURVE",
"135 487 CURVE SMOOTH",
"112 487 OFFCURVE",
"101 498 OFFCURVE",
"101 519 CURVE SMOOTH",
"101 559 OFFCURVE",
"149 564 OFFCURVE",
"199 564 CURVE"
);
}
);
width = 319;
}
);
unicode = 00AA;
},
{
color = 11;
glyphname = ordmasculine;
lastChange = "2014-11-19 04:29:10 +0000";
layers = (
{
layerId = "166CCA77-1BE6-4372-BC61-BAE07403C72D";
name = Regular;
paths = (
{
closed = 1;
nodes = (
"93 707 OFFCURVE",
"52 659 OFFCURVE",
"52 573 CURVE SMOOTH",
"52 487 OFFCURVE",
"93 441 OFFCURVE",
"170 441 CURVE SMOOTH",
"245 441 OFFCURVE",
"285 487 OFFCURVE",
"285 573 CURVE SMOOTH",
"285 660 OFFCURVE",
"245 707 OFFCURVE",
"170 707 CURVE SMOOTH"
);
},
{
closed = 1;
nodes = (
"209 661 OFFCURVE",
"227 632 OFFCURVE",
"227 574 CURVE SMOOTH",
"227 515 OFFCURVE",
"209 487 OFFCURVE",
"168 487 CURVE SMOOTH",
"127 487 OFFCURVE",
"108 515 OFFCURVE",
"108 574 CURVE SMOOTH",
"108 633 OFFCURVE",
"127 661 OFFCURVE",
"168 661 CURVE SMOOTH"
);
}
);
width = 337;
}
);
unicode = 00BA;
},
{
color = 11;
glyphname = Delta;
lastChange = "2014-11-19 04:29:10 +0000";
layers = (
{
layerId = "166CCA77-1BE6-4372-BC61-BAE07403C72D";
name = Regular;
paths = (
{
closed = 1;
nodes = (
"333 710 LINE SMOOTH",
"315 710 OFFCURVE",
"303 703 OFFCURVE",
"295 685 CURVE SMOOTH",
"40 94 LINE SMOOTH",
"34 80 OFFCURVE",
"32 70 OFFCURVE",
"32 54 CURVE",
"32 31 LINE",
"33 11 OFFCURVE",
"44 0 OFFCURVE",
"64 0 CURVE SMOOTH",
"642 0 LINE SMOOTH",
"664 0 OFFCURVE",
"674 11 OFFCURVE",
"674 32 CURVE",
"674 56 LINE",
"674 70 OFFCURVE",
"672 81 OFFCURVE",
"666 94 CURVE SMOOTH",
"412 685 LINE SMOOTH",
"404 703 OFFCURVE",
"392 710 OFFCURVE",
"374 710 CURVE SMOOTH"
);
},
{
closed = 1;
nodes = (
"559 95 LINE",
"144 95 LINE",
"348 573 LINE",
"356 573 LINE"
);
}
);
width = 708;
}
);
unicode = 0394;
},
{
color = 11;
glyphname = Omega;
lastChange = "2014-11-19 04:29:11 +0000";
layers = (
{
anchors = (
{
name = topleft;
position = "{20, 700}";
}
);
layerId = "166CCA77-1BE6-4372-BC61-BAE07403C72D";
name = Regular;
paths = (
{
closed = 1;
nodes = (
"162 707 OFFCURVE",
"51 586 OFFCURVE",
"51 355 CURVE SMOOTH",
"51 239 OFFCURVE",
"84 148 OFFCURVE",
"149 85 CURVE",
"136 86 OFFCURVE",
"85 95 OFFCURVE",
"58 95 CURVE SMOOTH",
"41 95 OFFCURVE",
"34 84 OFFCURVE",
"34 57 CURVE SMOOTH",
"34 39 LINE SMOOTH",
"34 12 OFFCURVE",
"41 0 OFFCURVE",
"58 0 CURVE SMOOTH",
"300 0 LINE SMOOTH",
"317 0 OFFCURVE",
"324 12 OFFCURVE",
"324 39 CURVE SMOOTH",
"324 52 LINE SMOOTH",
"324 67 OFFCURVE",
"323 74 OFFCURVE",
"314 77 CURVE SMOOTH",
"220 103 OFFCURVE",
"172 190 OFFCURVE",
"172 351 CURVE SMOOTH",
"172 519 OFFCURVE",
"239 606 OFFCURVE",
"365 606 CURVE SMOOTH",
"491 606 OFFCURVE",
"559 519 OFFCURVE",
"559 351 CURVE SMOOTH",
"559 190 OFFCURVE",
"510 103 OFFCURVE",
"416 77 CURVE SMOOTH",
"407 74 OFFCURVE",
"406 67 OFFCURVE",
"406 52 CURVE SMOOTH",
"406 39 LINE SMOOTH",
"406 12 OFFCURVE",
"413 0 OFFCURVE",
"430 0 CURVE SMOOTH",
"672 0 LINE SMOOTH",
"689 0 OFFCURVE",
"696 12 OFFCURVE",
"696 39 CURVE SMOOTH",
"696 57 LINE SMOOTH",
"696 84 OFFCURVE",
"689 95 OFFCURVE",
"672 95 CURVE SMOOTH",
"645 95 OFFCURVE",
"594 86 OFFCURVE",
"581 85 CURVE",
"647 148 OFFCURVE",
"679 239 OFFCURVE",
"679 355 CURVE SMOOTH",
"679 586 OFFCURVE",
"568 707 OFFCURVE",
"365 707 CURVE SMOOTH"
);
}
);
width = 731;
}
);
unicode = 03A9;
},
{
color = 11;
glyphname = mu;
lastChange = "2014-11-19 04:29:11 +0000";
layers = (
{
layerId = "166CCA77-1BE6-4372-BC61-BAE07403C72D";
name = Regular;
paths = (
{
closed = 1;
nodes = (
"421 525 LINE SMOOTH",
"387 525 OFFCURVE",
"373 516 OFFCURVE",
"373 499 CURVE SMOOTH",
"373 152 LINE",
"349 118 OFFCURVE",
"310 88 OFFCURVE",
"267 88 CURVE SMOOTH",
"211 88 OFFCURVE",
"183 118 OFFCURVE",
"183 169 CURVE SMOOTH",
"183 499 LINE SMOOTH",
"183 516 OFFCURVE",
"168 525 OFFCURVE",
"134 525 CURVE SMOOTH",
"120 525 LINE SMOOTH",
"86 525 OFFCURVE",
"71 516 OFFCURVE",
"71 499 CURVE SMOOTH",
"71 -181 LINE SMOOTH",
"71 -198 OFFCURVE",
"86 -207 OFFCURVE",
"120 -207 CURVE SMOOTH",
"134 -207 LINE SMOOTH",
"168 -207 OFFCURVE",
"183 -198 OFFCURVE",
"183 -181 CURVE SMOOTH",
"183 52 LINE",
"150 10 LINE",
"171 0 OFFCURVE",
"198 -7 OFFCURVE",
"227 -7 CURVE SMOOTH",
"287 -7 OFFCURVE",
"344 25 OFFCURVE",
"380 69 CURVE",
"386 41 OFFCURVE",
"390 -1 OFFCURVE",
"417 -1 CURVE SMOOTH",
"435 -1 OFFCURVE",
"496 5 OFFCURVE",
"496 26 CURVE SMOOTH",
"496 38 OFFCURVE",
"484 69 OFFCURVE",
"484 160 CURVE SMOOTH",
"484 499 LINE SMOOTH",
"484 516 OFFCURVE",
"470 525 OFFCURVE",
"436 525 CURVE SMOOTH"
);
}
);
width = 566;
}
);
unicode = 03BC;
},
{
color = 11;
glyphname = pi;
lastChange = "2014-11-19 04:29:11 +0000";
layers = (
{
layerId = "166CCA77-1BE6-4372-BC61-BAE07403C72D";
name = Regular;
paths = (
{
closed = 1;
nodes = (
"162 523 LINE SMOOTH",
"77 523 OFFCURVE",
"10 513 OFFCURVE",
"10 476 CURVE SMOOTH",
"10 462 OFFCURVE",
"13 421 OFFCURVE",
"37 421 CURVE SMOOTH",
"51 421 OFFCURVE",
"67 431 OFFCURVE",
"136 431 CURVE",
"130 304 OFFCURVE",
"100 135 OFFCURVE",
"64 29 CURVE SMOOTH",
"63 26 OFFCURVE",
"62 23 OFFCURVE",
"62 20 CURVE SMOOTH",
"62 7 OFFCURVE",
"79 -2 OFFCURVE",
"106 -2 CURVE SMOOTH",
"124 -2 LINE SMOOTH",
"149 -2 OFFCURVE",
"167 7 OFFCURVE",
"174 25 CURVE SMOOTH",
"210 120 OFFCURVE",
"240 306 OFFCURVE",
"246 431 CURVE",
"397 431 LINE",
"397 134 LINE SMOOTH",
"397 55 OFFCURVE",
"401 -2 OFFCURVE",
"450 -2 CURVE SMOOTH",
"475 -2 LINE SMOOTH",
"503 -2 OFFCURVE",
"516 9 OFFCURVE",
"516 25 CURVE SMOOTH",
"516 41 OFFCURVE",
"507 79 OFFCURVE",
"507 154 CURVE SMOOTH",
"507 431 LINE",
"559 431 LINE SMOOTH",
"579 431 OFFCURVE",
"590 438 OFFCURVE",
"592 458 CURVE SMOOTH",
"596 495 OFFCURVE",
"596 497 OFFCURVE",
"596 499 CURVE SMOOTH",
"596 516 OFFCURVE",
"586 523 OFFCURVE",
"567 523 CURVE SMOOTH"
);
}
);
width = 616;
}
);
unicode = 03C0;
},
{
color = 11;
glyphname = zero;
lastChange = "2014-11-19 04:29:10 +0000";
layers = (
{
layerId = "166CCA77-1BE6-4372-BC61-BAE07403C72D";
name = Regular;
paths = (
{
closed = 1;
nodes = (
"134 707 OFFCURVE",
"35 589 OFFCURVE",
"35 350 CURVE SMOOTH",
"35 111 OFFCURVE",
"134 -7 OFFCURVE",
"266 -7 CURVE SMOOTH",
"399 -7 OFFCURVE",
"499 111 OFFCURVE",
"499 350 CURVE SMOOTH",
"499 589 OFFCURVE",
"399 707 OFFCURVE",
"266 707 CURVE SMOOTH"
);
},
{
closed = 1;
nodes = (
"331 615 OFFCURVE",
"385 537 OFFCURVE",
"385 350 CURVE SMOOTH",
"385 163 OFFCURVE",
"331 85 OFFCURVE",
"266 85 CURVE SMOOTH",
"201 85 OFFCURVE",
"148 163 OFFCURVE",
"148 350 CURVE SMOOTH",
"148 537 OFFCURVE",
"201 615 OFFCURVE",
"266 615 CURVE SMOOTH"
);
}
);
width = 535;
}
);
unicode = 0030;
},
{
color = 11;
glyphname = one;
lastChange = "2014-11-19 04:29:10 +0000";
layers = (
{
layerId = "166CCA77-1BE6-4372-BC61-BAE07403C72D";
name = Regular;
paths = (
{
closed = 1;
nodes = (
"60 654 LINE SMOOTH",
"46 651 OFFCURVE",
"39 644 OFFCURVE",
"39 631 CURVE SMOOTH",
"39 609 OFFCURVE",
"45 566 OFFCURVE",
"64 566 CURVE",
"223 591 LINE",
"223 92 LINE",
"67 92 LINE SMOOTH",
"50 92 OFFCURVE",
"43 80 OFFCURVE",
"43 53 CURVE SMOOTH",
"43 39 LINE SMOOTH",
"43 12 OFFCURVE",
"50 0 OFFCURVE",
"67 0 CURVE SMOOTH",
"465 0 LINE SMOOTH",
"482 0 OFFCURVE",
"490 12 OFFCURVE",
"490 39 CURVE SMOOTH",
"490 53 LINE SMOOTH",
"490 80 OFFCURVE",
"482 92 OFFCURVE",
"465 92 CURVE SMOOTH",
"335 92 LINE",
"335 681 LINE SMOOTH",
"335 693 OFFCURVE",
"315 703 OFFCURVE",
"300 703 CURVE"
);
}
);
width = 535;
}
);
unicode = 0031;
},
{
color = 11;
glyphname = two;
lastChange = "2014-11-19 04:29:11 +0000";
layers = (
{
layerId = "166CCA77-1BE6-4372-BC61-BAE07403C72D";
name = Regular;
paths = (
{
closed = 1;
nodes = (
"181 707 OFFCURVE",
"68 675 OFFCURVE",
"68 626 CURVE SMOOTH",
"68 606 OFFCURVE",
"91 567 OFFCURVE",
"111 567 CURVE SMOOTH",
"128 567 OFFCURVE",
"167 615 OFFCURVE",
"246 615 CURVE SMOOTH",
"313 615 OFFCURVE",
"357 580 OFFCURVE",
"357 521 CURVE SMOOTH",
"357 481 OFFCURVE",
"347 456 OFFCURVE",
"302 397 CURVE",
"47 79 LINE",
"44 76 OFFCURVE",
"43 70 OFFCURVE",
"43 63 CURVE SMOOTH",
"43 40 OFFCURVE",
"53 0 OFFCURVE",
"66 0 CURVE SMOOTH",
"455 0 LINE SMOOTH",
"473 0 OFFCURVE",
"480 12 OFFCURVE",
"480 39 CURVE SMOOTH",
"480 52 LINE SMOOTH",
"480 79 OFFCURVE",
"473 91 OFFCURVE",
"455 91 CURVE SMOOTH",
"192 91 LINE",
"316 242 LINE SMOOTH",
"445 401 OFFCURVE",
"471 443 OFFCURVE",
"471 526 CURVE SMOOTH",
"471 634 OFFCURVE",
"391 707 OFFCURVE",
"256 707 CURVE SMOOTH"
);
}
);
width = 535;
}
);
unicode = 0032;
},
{
color = 11;
glyphname = three;
lastChange = "2014-11-19 04:29:10 +0000";
layers = (
{
layerId = "166CCA77-1BE6-4372-BC61-BAE07403C72D";
name = Regular;
paths = (
{
closed = 1;
nodes = (
"169 707 OFFCURVE",
"61 684 OFFCURVE",
"61 645 CURVE SMOOTH",
"61 625 OFFCURVE",
"87 583 OFFCURVE",
"102 583 CURVE SMOOTH",
"119 583 OFFCURVE",
"150 615 OFFCURVE",
"235 615 CURVE SMOOTH",
"313 615 OFFCURVE",
"337 568 OFFCURVE",
"337 525 CURVE SMOOTH",
"337 476 OFFCURVE",
"303 415 OFFCURVE",
"217 415 CURVE SMOOTH",
"192 415 LINE SMOOTH",
"175 415 OFFCURVE",
"168 404 OFFCURVE",
"168 377 CURVE SMOOTH",
"168 363 LINE SMOOTH",
"168 335 OFFCURVE",
"175 324 OFFCURVE",
"192 324 CURVE SMOOTH",
"223 324 LINE SMOOTH",
"311 324 OFFCURVE",
"359 291 OFFCURVE",
"359 205 CURVE SMOOTH",
"359 116 OFFCURVE",
"294 85 OFFCURVE",
"234 85 CURVE SMOOTH",
"149 85 OFFCURVE",
"101 122 OFFCURVE",
"82 122 CURVE SMOOTH",
"66 122 OFFCURVE",
"41 80 OFFCURVE",
"41 61 CURVE SMOOTH",
"41 20 OFFCURVE",
"150 -7 OFFCURVE",
"249 -7 CURVE SMOOTH",
"363 -7 OFFCURVE",
"473 59 OFFCURVE",
"473 203 CURVE SMOOTH",
"473 298 OFFCURVE",
"420 363 OFFCURVE",
"352 385 CURVE",
"352 389 LINE",
"406 412 OFFCURVE",
"450 461 OFFCURVE",
"450 531 CURVE SMOOTH",
"450 645 OFFCURVE",
"369 707 OFFCURVE",
"247 707 CURVE SMOOTH"
);
}
);
width = 535;
}
);
unicode = 0033;
},
{
color = 11;
glyphname = four;
lastChange = "2014-11-19 04:29:10 +0000";
layers = (
{
layerId = "166CCA77-1BE6-4372-BC61-BAE07403C72D";
name = Regular;
paths = (
{
closed = 1;
nodes = (
"378 702 LINE SMOOTH",
"357 702 OFFCURVE",
"341 698 OFFCURVE",
"332 686 CURVE SMOOTH",
"17 236 LINE SMOOTH",
"15 234 OFFCURVE",
"15 230 OFFCURVE",
"15 225 CURVE SMOOTH",
"15 203 OFFCURVE",
"31 156 OFFCURVE",
"45 156 CURVE",
"330 156 LINE",
"330 24 LINE SMOOTH",
"330 7 OFFCURVE",
"343 -2 OFFCURVE",
"373 -2 CURVE SMOOTH",
"399 -2 LINE SMOOTH",
"429 -2 OFFCURVE",
"442 7 OFFCURVE",
"442 24 CURVE SMOOTH",
"442 156 LINE",
"496 156 LINE SMOOTH",
"513 156 OFFCURVE",
"520 168 OFFCURVE",
"520 195 CURVE SMOOTH",
"520 209 LINE SMOOTH",
"520 236 OFFCURVE",
"513 248 OFFCURVE",
"496 248 CURVE SMOOTH",
"442 248 LINE",
"442 676 LINE SMOOTH",
"442 693 OFFCURVE",
"429 702 OFFCURVE",
"399 702 CURVE SMOOTH"
);
},
{
closed = 1;
nodes = (
"331 527 LINE",
"331 248 LINE",
"136 248 LINE",
"327 528 LINE"
);
}
);
width = 535;
}
);
unicode = 0034;
},
{
color = 11;
glyphname = five;
lastChange = "2014-11-19 04:29:10 +0000";
layers = (
{
layerId = "166CCA77-1BE6-4372-BC61-BAE07403C72D";
name = Regular;
paths = (
{
closed = 1;
nodes = (
"138 700 LINE SMOOTH",
"113 700 OFFCURVE",
"103 690 OFFCURVE",
"101 666 CURVE SMOOTH",
"84 373 LINE",
"84 349 OFFCURVE",
"90 338 OFFCURVE",
"116 338 CURVE SMOOTH",
"211 338 LINE SMOOTH",
"317 338 OFFCURVE",
"367 293 OFFCURVE",
"367 213 CURVE SMOOTH",
"367 128 OFFCURVE",
"307 85 OFFCURVE",
"233 85 CURVE SMOOTH",
"149 85 OFFCURVE",
"102 121 OFFCURVE",
"86 121 CURVE SMOOTH",
"70 121 OFFCURVE",
"43 77 OFFCURVE",
"43 58 CURVE SMOOTH",
"43 27 OFFCURVE",
"122 -7 OFFCURVE",
"234 -7 CURVE SMOOTH",
"350 -7 OFFCURVE",
"481 42 OFFCURVE",
"481 214 CURVE SMOOTH",
"481 381 OFFCURVE",
"362 430 OFFCURVE",
"235 430 CURVE SMOOTH",
"194 430 LINE",
"206 608 LINE",
"416 608 LINE SMOOTH",
"434 608 OFFCURVE",
"441 619 OFFCURVE",
"441 643 CURVE SMOOTH",
"441 661 LINE SMOOTH",
"441 688 OFFCURVE",
"434 700 OFFCURVE",
"416 700 CURVE SMOOTH"
);
}
);
width = 535;
}
);
unicode = 0035;
},
{
color = 11;
glyphname = six;
lastChange = "2014-11-19 04:29:10 +0000";
layers = (
{
layerId = "166CCA77-1BE6-4372-BC61-BAE07403C72D";
name = Regular;
paths = (
{
closed = 1;
nodes = (
"337 703 OFFCURVE",
"43 580 OFFCURVE",
"43 250 CURVE SMOOTH",
"43 76 OFFCURVE",
"137 -6 OFFCURVE",
"266 -6 CURVE SMOOTH",
"384 -6 OFFCURVE",
"490 66 OFFCURVE",
"490 209 CURVE SMOOTH",
"490 349 OFFCURVE",
"389 415 OFFCURVE",
"297 415 CURVE SMOOTH",
"250 415 OFFCURVE",
"211 405 OFFCURVE",
"177 386 CURVE",
"209 492 OFFCURVE",
"292 577 OFFCURVE",
"411 621 CURVE SMOOTH",
"420 624 OFFCURVE",
"421 629 OFFCURVE",
"421 637 CURVE SMOOTH",
"421 652 OFFCURVE",
"407 703 OFFCURVE",
"381 703 CURVE SMOOTH"
);
},
{
closed = 1;
nodes = (
"326 323 OFFCURVE",
"377 287 OFFCURVE",
"377 205 CURVE SMOOTH",
"377 126 OFFCURVE",
"320 85 OFFCURVE",
"269 85 CURVE SMOOTH",
"213 85 OFFCURVE",
"156 118 OFFCURVE",
"156 240 CURVE SMOOTH",
"156 258 OFFCURVE",
"157 276 OFFCURVE",
"159 294 CURVE",
"185 309 OFFCURVE",
"222 323 OFFCURVE",
"264 323 CURVE SMOOTH"
);
}
);
width = 535;
}
);
unicode = 0036;
},
{
color = 11;
glyphname = seven;
lastChange = "2014-11-19 04:29:10 +0000";
layers = (
{
layerId = "166CCA77-1BE6-4372-BC61-BAE07403C72D";
name = Regular;
paths = (
{
closed = 1;
nodes = (
"72 700 LINE SMOOTH",
"55 700 OFFCURVE",
"48 688 OFFCURVE",
"48 661 CURVE SMOOTH",
"48 647 LINE SMOOTH",
"48 620 OFFCURVE",
"55 608 OFFCURVE",
"72 608 CURVE SMOOTH",
"364 608 LINE",
"93 31 LINE SMOOTH",
"90 25 OFFCURVE",
"88 20 OFFCURVE",
"88 16 CURVE SMOOTH",
"88 3 OFFCURVE",
"104 -2 OFFCURVE",
"138 -2 CURVE SMOOTH",
"161 -2 LINE SMOOTH",
"185 -2 OFFCURVE",
"203 3 OFFCURVE",
"209 16 CURVE SMOOTH",
"490 620 LINE SMOOTH",
"491 623 OFFCURVE",
"492 628 OFFCURVE",
"492 632 CURVE SMOOTH",
"492 657 OFFCURVE",
"477 700 OFFCURVE",
"468 700 CURVE SMOOTH"
);
}
);
width = 535;
}
);
unicode = 0037;
},
{
color = 11;
glyphname = eight;
lastChange = "2014-11-19 04:29:10 +0000";
layers = (
{
layerId = "166CCA77-1BE6-4372-BC61-BAE07403C72D";
name = Regular;
paths = (
{
closed = 1;
nodes = (
"147 707 OFFCURVE",
"69 634 OFFCURVE",
"69 527 CURVE SMOOTH",
"69 452 OFFCURVE",
"102 406 OFFCURVE",
"148 378 CURVE",
"89 352 OFFCURVE",
"41 302 OFFCURVE",
"41 202 CURVE SMOOTH",
"41 73 OFFCURVE",
"126 -7 OFFCURVE",
"268 -7 CURVE SMOOTH",
"411 -7 OFFCURVE",
"493 77 OFFCURVE",
"493 198 CURVE SMOOTH",
"493 307 OFFCURVE",
"441 354 OFFCURVE",
"378 383 CURVE",
"430 409 OFFCURVE",
"470 451 OFFCURVE",
"470 533 CURVE SMOOTH",
"470 639 OFFCURVE",
"388 707 OFFCURVE",
"272 707 CURVE SMOOTH"
);
},
{
closed = 1;
nodes = (
"305 312 OFFCURVE",
"380 293 OFFCURVE",
"380 201 CURVE SMOOTH",
"380 132 OFFCURVE",
"333 85 OFFCURVE",
"268 85 CURVE SMOOTH",
"203 85 OFFCURVE",
"155 128 OFFCURVE",
"155 205 CURVE SMOOTH",
"155 274 OFFCURVE",
"187 312 OFFCURVE",
"231 340 CURVE"
);
},
{
closed = 1;
nodes = (
"319 615 OFFCURVE",
"360 587 OFFCURVE",
"360 529 CURVE SMOOTH",
"360 480 OFFCURVE",
"331 445 OFFCURVE",
"288 418 CURVE",
"230 440 OFFCURVE",
"180 462 OFFCURVE",
"180 529 CURVE SMOOTH",
"180 588 OFFCURVE",
"221 615 OFFCURVE",
"270 615 CURVE SMOOTH"
);
}
);
width = 535;
}
);
unicode = 0038;
},
{
color = 11;
glyphname = nine;
lastChange = "2014-11-19 04:29:10 +0000";
layers = (
{
layerId = "166CCA77-1BE6-4372-BC61-BAE07403C72D";
name = Regular;
paths = (
{
closed = 1;
nodes = (
"151 706 OFFCURVE",
"44 633 OFFCURVE",
"44 491 CURVE SMOOTH",
"44 351 OFFCURVE",
"146 285 OFFCURVE",
"238 285 CURVE SMOOTH",
"285 285 OFFCURVE",
"323 295 OFFCURVE",
"357 314 CURVE",
"325 208 OFFCURVE",
"242 122 OFFCURVE",
"123 78 CURVE SMOOTH",
"115 75 OFFCURVE",
"113 71 OFFCURVE",
"113 63 CURVE SMOOTH",
"113 47 OFFCURVE",
"127 -3 OFFCURVE",
"154 -3 CURVE SMOOTH",
"198 -3 OFFCURVE",
"491 119 OFFCURVE",
"491 450 CURVE SMOOTH",
"491 624 OFFCURVE",
"398 706 OFFCURVE",
"268 706 CURVE SMOOTH"
);
},
{
closed = 1;
nodes = (
"321 614 OFFCURVE",
"378 582 OFFCURVE",
"378 460 CURVE SMOOTH",
"378 442 OFFCURVE",
"377 424 OFFCURVE",
"375 406 CURVE",
"349 391 OFFCURVE",
"312 376 OFFCURVE",
"271 376 CURVE SMOOTH",
"208 376 OFFCURVE",
"157 413 OFFCURVE",
"157 495 CURVE SMOOTH",
"157 573 OFFCURVE",
"214 614 OFFCURVE",
"265 614 CURVE SMOOTH"
);
}
);
width = 535;
}
);
unicode = 0039;
},
{
color = 11;
glyphname = fraction;
lastChange = "2014-11-19 04:29:10 +0000";
layers = (
{
layerId = "166CCA77-1BE6-4372-BC61-BAE07403C72D";
name = Regular;
paths = (
{
closed = 1;
nodes = (
"322 702 LINE SMOOTH",
"304 702 OFFCURVE",
"292 694 OFFCURVE",
"283 677 CURVE SMOOTH",
"-77 29 LINE",
"-80 24 OFFCURVE",
"-81 19 OFFCURVE",
"-81 14 CURVE SMOOTH",
"-81 4 OFFCURVE",
"-73 -2 OFFCURVE",
"-58 -2 CURVE SMOOTH",
"-48 -2 LINE SMOOTH",
"-30 -2 OFFCURVE",
"-19 6 OFFCURVE",
"-10 23 CURVE",
"351 671 LINE",
"353 676 OFFCURVE",
"355 681 OFFCURVE",
"355 686 CURVE SMOOTH",
"355 695 OFFCURVE",
"348 702 OFFCURVE",
"332 702 CURVE SMOOTH"
);
}
);
width = 264;
}
);
unicode = 2044;
},
{
color = 11;
glyphname = onehalf;
lastChange = "2014-11-19 04:29:11 +0000";
layers = (
{
layerId = "166CCA77-1BE6-4372-BC61-BAE07403C72D";
name = Regular;
paths = (
{
closed = 1;
nodes = (
"527 702 LINE SMOOTH",
"510 702 OFFCURVE",
"499 695 OFFCURVE",
"490 681 CURVE SMOOTH",
"105 20 LINE SMOOTH",
"101 15 OFFCURVE",
"100 10 OFFCURVE",
"100 8 CURVE SMOOTH",
"100 1 OFFCURVE",
"106 -1 OFFCURVE",
"117 -1 CURVE SMOOTH",
"132 -1 LINE SMOOTH",
"148 -1 OFFCURVE",
"160 5 OFFCURVE",
"168 20 CURVE SMOOTH",
"554 681 LINE SMOOTH",
"557 686 OFFCURVE",
"559 690 OFFCURVE",
"559 693 CURVE SMOOTH",
"559 699 OFFCURVE",
"553 702 OFFCURVE",
"542 702 CURVE SMOOTH"
);
},
{
closed = 1;
nodes = (
"42 676 LINE SMOOTH",
"34 674 OFFCURVE",
"30 669 OFFCURVE",
"30 662 CURVE SMOOTH",
"30 649 OFFCURVE",
"33 623 OFFCURVE",
"45 623 CURVE",
"121 638 LINE",
"121 311 LINE SMOOTH",
"121 301 OFFCURVE",
"132 295 OFFCURVE",
"148 295 CURVE",
"158 295 LINE SMOOTH",
"174 295 OFFCURVE",
"186 301 OFFCURVE",
"186 311 CURVE SMOOTH",
"186 690 LINE SMOOTH",
"186 697 OFFCURVE",
"174 703 OFFCURVE",
"166 703 CURVE"
);
},
{
closed = 1;
nodes = (
"521 410 OFFCURVE",
"455 392 OFFCURVE",
"455 363 CURVE SMOOTH",
"455 351 OFFCURVE",
"470 329 OFFCURVE",
"481 329 CURVE SMOOTH",
"490 329 OFFCURVE",
"513 356 OFFCURVE",
"559 356 CURVE SMOOTH",
"597 356 OFFCURVE",
"623 337 OFFCURVE",
"623 303 CURVE SMOOTH",
"623 279 OFFCURVE",
"618 264 OFFCURVE",
"586 224 CURVE",
"443 46 LINE",
"442 44 OFFCURVE",
"441 41 OFFCURVE",
"441 37 CURVE SMOOTH",
"441 23 OFFCURVE",
"447 0 OFFCURVE",
"455 0 CURVE SMOOTH",
"680 0 LINE SMOOTH",
"691 0 OFFCURVE",
"694 7 OFFCURVE",
"694 23 CURVE SMOOTH",
"694 31 LINE SMOOTH",
"694 46 OFFCURVE",
"691 53 OFFCURVE",
"680 53 CURVE SMOOTH",
"528 53 LINE",
"645 197 LINE",
"680 243 OFFCURVE",
"690 268 OFFCURVE",
"690 305 CURVE SMOOTH",
"690 368 OFFCURVE",
"643 410 OFFCURVE",
"565 410 CURVE SMOOTH"
);
}
);
width = 746;
}
);
unicode = 00BD;
},
{
color = 11;
glyphname = onequarter;
lastChange = "2014-11-19 04:29:10 +0000";
layers = (
{
layerId = "166CCA77-1BE6-4372-BC61-BAE07403C72D";
name = Regular;
paths = (
{
closed = 1;
nodes = (
"527 702 LINE SMOOTH",
"510 702 OFFCURVE",
"499 695 OFFCURVE",
"490 681 CURVE SMOOTH",
"105 20 LINE SMOOTH",
"101 15 OFFCURVE",
"100 10 OFFCURVE",
"100 8 CURVE SMOOTH",
"100 1 OFFCURVE",
"106 -1 OFFCURVE",
"117 -1 CURVE SMOOTH",
"132 -1 LINE SMOOTH",
"148 -1 OFFCURVE",
"160 5 OFFCURVE",
"168 20 CURVE SMOOTH",
"554 681 LINE SMOOTH",
"557 686 OFFCURVE",
"559 690 OFFCURVE",
"559 693 CURVE SMOOTH",
"559 699 OFFCURVE",
"553 702 OFFCURVE",
"542 702 CURVE SMOOTH"
);
},
{
closed = 1;
nodes = (
"42 676 LINE SMOOTH",
"34 674 OFFCURVE",
"30 669 OFFCURVE",
"30 662 CURVE SMOOTH",
"30 649 OFFCURVE",
"33 623 OFFCURVE",
"45 623 CURVE",
"121 638 LINE",
"121 311 LINE SMOOTH",
"121 301 OFFCURVE",
"132 295 OFFCURVE",
"148 295 CURVE",
"158 295 LINE SMOOTH",
"174 295 OFFCURVE",
"186 301 OFFCURVE",
"186 311 CURVE SMOOTH",
"186 690 LINE SMOOTH",
"186 697 OFFCURVE",
"174 703 OFFCURVE",
"166 703 CURVE"
);
},
{
closed = 1;
nodes = (
"555 407 LINE SMOOTH",
"543 407 OFFCURVE",
"533 404 OFFCURVE",
"528 397 CURVE SMOOTH",
"345 132 LINE SMOOTH",
"344 130 OFFCURVE",
"344 128 OFFCURVE",
"344 125 CURVE SMOOTH",
"344 112 OFFCURVE",
"353 85 OFFCURVE",
"361 85 CURVE SMOOTH",
"526 85 LINE",
"526 14 LINE SMOOTH",
"526 3 OFFCURVE",
"535 -2 OFFCURVE",
"552 -2 CURVE SMOOTH",
"566 -2 LINE SMOOTH",
"584 -2 OFFCURVE",
"591 3 OFFCURVE",
"591 14 CURVE SMOOTH",
"591 85 LINE",
"623 85 LINE SMOOTH",
"633 85 OFFCURVE",
"637 92 OFFCURVE",
"637 108 CURVE SMOOTH",
"637 116 LINE SMOOTH",
"637 131 OFFCURVE",
"633 138 OFFCURVE",
"623 138 CURVE SMOOTH",
"591 138 LINE",
"591 391 LINE SMOOTH",
"591 401 OFFCURVE",
"584 407 OFFCURVE",
"566 407 CURVE SMOOTH"
);
},
{
closed = 1;
nodes = (
"526 251 LINE",
"526 138 LINE",
"414 138 LINE",
"527 310 LINE",
"531 309 LINE"
);
}
);
width = 671;
}
);
unicode = 00BC;
},
{
color = 11;
glyphname = threequarters;
lastChange = "2014-11-19 04:29:10 +0000";
layers = (
{
layerId = "166CCA77-1BE6-4372-BC61-BAE07403C72D";
name = Regular;
paths = (
{
closed = 1;
nodes = (
"580 702 LINE SMOOTH",
"563 702 OFFCURVE",
"552 695 OFFCURVE",
"543 681 CURVE SMOOTH",
"158 20 LINE SMOOTH",
"154 15 OFFCURVE",
"153 10 OFFCURVE",
"153 8 CURVE SMOOTH",
"153 1 OFFCURVE",
"159 -1 OFFCURVE",
"170 -1 CURVE SMOOTH",
"185 -1 LINE SMOOTH",
"201 -1 OFFCURVE",
"213 5 OFFCURVE",
"221 20 CURVE SMOOTH",
"607 681 LINE SMOOTH",
"610 686 OFFCURVE",
"612 690 OFFCURVE",
"612 693 CURVE SMOOTH",
"612 699 OFFCURVE",
"606 702 OFFCURVE",
"595 702 CURVE SMOOTH"
);
},
{
closed = 1;
nodes = (
"109 707 OFFCURVE",
"46 693 OFFCURVE",
"46 671 CURVE SMOOTH",
"46 659 OFFCURVE",
"61 634 OFFCURVE",
"70 634 CURVE SMOOTH",
"80 634 OFFCURVE",
"98 653 OFFCURVE",
"147 653 CURVE SMOOTH",
"192 653 OFFCURVE",
"207 626 OFFCURVE",
"207 601 CURVE SMOOTH",
"207 573 OFFCURVE",
"187 537 OFFCURVE",
"137 537 CURVE SMOOTH",
"123 537 LINE SMOOTH",
"113 537 OFFCURVE",
"108 530 OFFCURVE",
"108 514 CURVE SMOOTH",
"108 506 LINE SMOOTH",
"108 490 OFFCURVE",
"113 483 OFFCURVE",
"123 483 CURVE SMOOTH",
"140 483 LINE SMOOTH",
"191 483 OFFCURVE",
"219 464 OFFCURVE",
"219 414 CURVE SMOOTH",
"219 363 OFFCURVE",
"181 344 OFFCURVE",
"146 344 CURVE SMOOTH",
"97 344 OFFCURVE",
"68 366 OFFCURVE",
"58 366 CURVE SMOOTH",
"48 366 OFFCURVE",
"34 341 OFFCURVE",
"34 330 CURVE SMOOTH",
"34 306 OFFCURVE",
"98 290 OFFCURVE",
"155 290 CURVE SMOOTH",
"222 290 OFFCURVE",
"286 329 OFFCURVE",
"286 413 CURVE SMOOTH",
"286 468 OFFCURVE",
"255 505 OFFCURVE",
"215 518 CURVE",
"215 522 LINE",
"248 536 OFFCURVE",
"273 564 OFFCURVE",
"273 604 CURVE SMOOTH",
"273 670 OFFCURVE",
"225 707 OFFCURVE",
"154 707 CURVE SMOOTH"
);
},
{
closed = 1;
nodes = (
"611 407 LINE SMOOTH",
"599 407 OFFCURVE",
"589 404 OFFCURVE",
"584 397 CURVE SMOOTH",
"401 132 LINE SMOOTH",
"400 130 OFFCURVE",
"400 128 OFFCURVE",
"400 125 CURVE SMOOTH",
"400 112 OFFCURVE",
"409 85 OFFCURVE",
"417 85 CURVE SMOOTH",
"582 85 LINE",
"582 14 LINE SMOOTH",
"582 3 OFFCURVE",
"591 -2 OFFCURVE",
"608 -2 CURVE SMOOTH",
"622 -2 LINE SMOOTH",
"640 -2 OFFCURVE",
"647 3 OFFCURVE",
"647 14 CURVE SMOOTH",
"647 85 LINE",
"679 85 LINE SMOOTH",
"689 85 OFFCURVE",
"693 92 OFFCURVE",
"693 108 CURVE SMOOTH",
"693 116 LINE SMOOTH",
"693 131 OFFCURVE",
"689 138 OFFCURVE",
"679 138 CURVE SMOOTH",
"647 138 LINE",
"647 391 LINE SMOOTH",
"647 401 OFFCURVE",
"640 407 OFFCURVE",
"622 407 CURVE SMOOTH"
);
},
{
closed = 1;
nodes = (
"582 251 LINE",
"582 138 LINE",
"470 138 LINE",
"583 310 LINE",
"587 309 LINE"
);
}
);
width = 738;
}
);
unicode = 00BE;
},
{
color = 11;
glyphname = onesuperior;
lastChange = "2014-11-19 04:29:10 +0000";
layers = (
{
layerId = "166CCA77-1BE6-4372-BC61-BAE07403C72D";
name = Regular;
paths = (
{
closed = 1;
nodes = (
"42 676 LINE SMOOTH",
"34 674 OFFCURVE",
"30 669 OFFCURVE",
"30 662 CURVE SMOOTH",
"30 649 OFFCURVE",
"33 623 OFFCURVE",
"45 623 CURVE",
"121 638 LINE",
"121 311 LINE SMOOTH",
"121 301 OFFCURVE",
"132 295 OFFCURVE",
"148 295 CURVE",
"158 295 LINE SMOOTH",
"174 295 OFFCURVE",
"186 301 OFFCURVE",
"186 311 CURVE SMOOTH",
"186 690 LINE SMOOTH",
"186 697 OFFCURVE",
"174 703 OFFCURVE",
"166 703 CURVE"
);
}
);
width = 217;
}
);
unicode = 00B9;
},
{
color = 11;
glyphname = twosuperior;
lastChange = "2014-11-19 04:29:10 +0000";
layers = (
{
layerId = "166CCA77-1BE6-4372-BC61-BAE07403C72D";
name = Regular;
paths = (
{
closed = 1;
nodes = (
"107 705 OFFCURVE",
"41 687 OFFCURVE",
"41 659 CURVE SMOOTH",
"41 647 OFFCURVE",
"56 625 OFFCURVE",
"67 625 CURVE SMOOTH",
"76 625 OFFCURVE",
"99 652 OFFCURVE",
"145 652 CURVE SMOOTH",
"183 652 OFFCURVE",
"209 632 OFFCURVE",
"209 598 CURVE SMOOTH",
"209 575 OFFCURVE",
"204 560 OFFCURVE",
"178 526 CURVE",
"29 342 LINE",
"28 340 OFFCURVE",
"27 336 OFFCURVE",
"27 332 CURVE SMOOTH",
"27 319 OFFCURVE",
"33 295 OFFCURVE",
"41 295 CURVE",
"266 295 LINE SMOOTH",
"277 295 OFFCURVE",
"280 302 OFFCURVE",
"280 318 CURVE SMOOTH",
"280 326 LINE SMOOTH",
"280 342 OFFCURVE",
"277 348 OFFCURVE",
"266 348 CURVE SMOOTH",
"114 348 LINE",
"226 486 LINE",
"264 535 OFFCURVE",
"276 561 OFFCURVE",
"276 600 CURVE SMOOTH",
"276 664 OFFCURVE",
"229 705 OFFCURVE",
"151 705 CURVE SMOOTH"
);
}
);
width = 320;
}
);
unicode = 00B2;
},
{
color = 11;
glyphname = threesuperior;
lastChange = "2014-11-19 04:29:11 +0000";
layers = (
{
layerId = "166CCA77-1BE6-4372-BC61-BAE07403C72D";
name = Regular;
paths = (
{
closed = 1;
nodes = (
"108 707 OFFCURVE",
"45 693 OFFCURVE",
"45 671 CURVE SMOOTH",
"45 659 OFFCURVE",
"60 634 OFFCURVE",
"69 634 CURVE SMOOTH",
"79 634 OFFCURVE",
"97 653 OFFCURVE",
"146 653 CURVE SMOOTH",
"191 653 OFFCURVE",
"206 626 OFFCURVE",
"206 601 CURVE SMOOTH",
"206 573 OFFCURVE",
"186 537 OFFCURVE",
"136 537 CURVE SMOOTH",
"122 537 LINE SMOOTH",
"112 537 OFFCURVE",
"107 530 OFFCURVE",
"107 514 CURVE SMOOTH",
"107 506 LINE SMOOTH",
"107 490 OFFCURVE",
"112 483 OFFCURVE",
"122 483 CURVE SMOOTH",
"139 483 LINE SMOOTH",
"190 483 OFFCURVE",
"218 464 OFFCURVE",
"218 414 CURVE SMOOTH",
"218 363 OFFCURVE",
"180 344 OFFCURVE",
"145 344 CURVE SMOOTH",
"96 344 OFFCURVE",
"67 366 OFFCURVE",
"57 366 CURVE SMOOTH",
"47 366 OFFCURVE",
"33 341 OFFCURVE",
"33 330 CURVE SMOOTH",
"33 306 OFFCURVE",
"97 290 OFFCURVE",
"154 290 CURVE SMOOTH",
"221 290 OFFCURVE",
"285 329 OFFCURVE",
"285 413 CURVE SMOOTH",
"285 468 OFFCURVE",
"254 505 OFFCURVE",
"214 518 CURVE",
"214 522 LINE",
"247 536 OFFCURVE",
"272 564 OFFCURVE",
"272 604 CURVE SMOOTH",
"272 670 OFFCURVE",
"224 707 OFFCURVE",
"153 707 CURVE SMOOTH"
);
}
);
width = 320;
}
);
unicode = 00B3;
},
{
color = 11;
glyphname = asterisk;
lastChange = "2014-11-19 04:29:11 +0000";
layers = (
{
layerId = "166CCA77-1BE6-4372-BC61-BAE07403C72D";
name = Regular;
paths = (
{
closed = 1;
nodes = (
"164 709 OFFCURVE",
"157 701 OFFCURVE",
"157 684 CURVE SMOOTH",
"157 589 LINE",
"68 618 LINE SMOOTH",
"64 619 OFFCURVE",
"60 620 OFFCURVE",
"56 620 CURVE SMOOTH",
"42 620 OFFCURVE",
"34 605 OFFCURVE",
"34 590 CURVE SMOOTH",
"34 581 OFFCURVE",
"39 575 OFFCURVE",
"51 571 CURVE SMOOTH",
"139 543 LINE",
"75 453 LINE SMOOTH",
"70 447 OFFCURVE",
"68 441 OFFCURVE",
"68 437 CURVE SMOOTH",
"68 426 OFFCURVE",
"84 413 OFFCURVE",
"95 413 CURVE SMOOTH",
"101 413 OFFCURVE",
"108 416 OFFCURVE",
"114 424 CURVE SMOOTH",
"181 517 LINE",
"248 424 LINE SMOOTH",
"253 417 OFFCURVE",
"259 413 OFFCURVE",
"266 413 CURVE SMOOTH",
"277 413 OFFCURVE",
"293 426 OFFCURVE",
"293 437 CURVE SMOOTH",
"293 441 OFFCURVE",
"291 447 OFFCURVE",
"287 453 CURVE SMOOTH",
"221 543 LINE",
"310 571 LINE SMOOTH",
"322 575 OFFCURVE",
"328 581 OFFCURVE",
"328 591 CURVE SMOOTH",
"328 609 OFFCURVE",
"315 620 OFFCURVE",
"305 620 CURVE SMOOTH",
"302 620 OFFCURVE",
"298 619 OFFCURVE",
"294 618 CURVE SMOOTH",
"206 589 LINE",
"206 684 LINE SMOOTH",
"206 701 OFFCURVE",
"198 709 OFFCURVE",
"181 709 CURVE SMOOTH"
);
}
);
width = 373;
}
);
unicode = 002A;
},
{
color = 11;
glyphname = backslash;
lastChange = "2014-11-19 04:29:10 +0000";
layers = (
{
layerId = "166CCA77-1BE6-4372-BC61-BAE07403C72D";
name = Regular;
paths = (
{
closed = 1;
nodes = (
"36 702 LINE SMOOTH",
"14 702 OFFCURVE",
"4 694 OFFCURVE",
"4 683 CURVE SMOOTH",
"4 679 OFFCURVE",
"5 674 OFFCURVE",
"7 669 CURVE SMOOTH",
"269 5 LINE SMOOTH",
"276 -13 OFFCURVE",
"290 -21 OFFCURVE",
"313 -21 CURVE SMOOTH",
"326 -21 LINE SMOOTH",
"348 -21 OFFCURVE",
"359 -14 OFFCURVE",
"359 -3 CURVE SMOOTH",
"359 2 OFFCURVE",
"358 7 OFFCURVE",
"356 12 CURVE SMOOTH",
"94 676 LINE SMOOTH",
"87 695 OFFCURVE",
"72 702 OFFCURVE",
"49 702 CURVE SMOOTH"
);
}
);
width = 361;
}
);
unicode = 005C;
},
{
color = 11;
glyphname = periodcentered;
lastChange = "2014-11-19 04:29:11 +0000";
layers = (
{
anchors = (
{
name = _center;
position = "{140, 335}";
}
);
layerId = "166CCA77-1BE6-4372-BC61-BAE07403C72D";
name = Regular;
paths = (
{
closed = 1;
nodes = (
"108 419 OFFCURVE",
"82 393 OFFCURVE",
"82 360 CURVE SMOOTH",
"82 326 OFFCURVE",
"108 300 OFFCURVE",
"141 300 CURVE SMOOTH",
"175 300 OFFCURVE",
"201 326 OFFCURVE",
"201 360 CURVE SMOOTH",
"201 393 OFFCURVE",
"175 419 OFFCURVE",
"141 419 CURVE SMOOTH"
);
}
);
width = 267;
}
);
unicode = 00B7;
},
{
color = 11;
glyphname = bullet;
lastChange = "2014-11-19 04:29:11 +0000";
layers = (
{
layerId = "166CCA77-1BE6-4372-BC61-BAE07403C72D";
name = Regular;
paths = (
{
closed = 1;
nodes = (
"96 455 OFFCURVE",
"39 397 OFFCURVE",
"39 326 CURVE SMOOTH",
"39 255 OFFCURVE",
"96 198 OFFCURVE",
"167 198 CURVE SMOOTH",
"238 198 OFFCURVE",
"296 255 OFFCURVE",
"296 326 CURVE SMOOTH",
"296 397 OFFCURVE",
"238 455 OFFCURVE",
"167 455 CURVE SMOOTH"
);
}
);
width = 336;
}
);
unicode = 2022;
},
{
color = 11;
glyphname = colon;
lastChange = "2014-11-19 04:29:11 +0000";
layers = (
{
layerId = "166CCA77-1BE6-4372-BC61-BAE07403C72D";
name = Regular;
paths = (
{
closed = 1;
nodes = (
"87 525 LINE SMOOTH",
"53 525 OFFCURVE",
"38 516 OFFCURVE",
"38 499 CURVE SMOOTH",
"38 421 LINE SMOOTH",
"38 404 OFFCURVE",
"53 395 OFFCURVE",
"87 395 CURVE",
"110 395 LINE SMOOTH",
"144 395 OFFCURVE",
"159 404 OFFCURVE",
"159 421 CURVE SMOOTH",
"159 499 LINE SMOOTH",
"159 516 OFFCURVE",
"144 525 OFFCURVE",
"110 525 CURVE SMOOTH"
);
},
{
closed = 1;
nodes = (
"87 128 LINE SMOOTH",
"53 128 OFFCURVE",
"38 119 OFFCURVE",
"38 102 CURVE SMOOTH",
"38 24 LINE SMOOTH",
"38 7 OFFCURVE",
"53 -2 OFFCURVE",
"87 -2 CURVE SMOOTH",
"110 -2 LINE SMOOTH",
"144 -2 OFFCURVE",
"159 7 OFFCURVE",
"159 24 CURVE SMOOTH",
"159 102 LINE SMOOTH",
"159 119 OFFCURVE",
"144 128 OFFCURVE",
"110 128 CURVE SMOOTH"
);
}
);
width = 198;
}
);
unicode = 003A;
},
{
color = 11;
glyphname = comma;
lastChange = "2014-11-19 04:29:10 +0000";
layers = (
{
layerId = "166CCA77-1BE6-4372-BC61-BAE07403C72D";
name = Regular;
paths = (
{
closed = 1;
nodes = (
"95 128 LINE SMOOTH",
"62 128 OFFCURVE",
"46 113 OFFCURVE",
"46 91 CURVE SMOOTH",
"46 13 OFFCURVE",
"30 -35 OFFCURVE",
"12 -74 CURVE SMOOTH",
"8 -84 OFFCURVE",
"3 -95 OFFCURVE",
"3 -102 CURVE SMOOTH",
"3 -116 OFFCURVE",
"25 -120 OFFCURVE",
"39 -120 CURVE SMOOTH",
"77 -120 OFFCURVE",
"157 -23 OFFCURVE",
"157 93 CURVE SMOOTH",
"157 114 OFFCURVE",
"141 128 OFFCURVE",
"109 128 CURVE SMOOTH"
);
}
);
width = 198;
}
);
unicode = 002C;
},
{
color = 11;
glyphname = ellipsis;
lastChange = "2014-11-19 04:29:11 +0000";
layers = (
{
layerId = "166CCA77-1BE6-4372-BC61-BAE07403C72D";
name = Regular;
paths = (
{
closed = 1;
nodes = (
"507 128 LINE SMOOTH",
"473 128 OFFCURVE",
"458 119 OFFCURVE",
"458 102 CURVE SMOOTH",
"458 24 LINE SMOOTH",
"458 7 OFFCURVE",
"473 -2 OFFCURVE",
"507 -2 CURVE SMOOTH",
"530 -2 LINE SMOOTH",
"564 -2 OFFCURVE",
"579 7 OFFCURVE",
"579 24 CURVE SMOOTH",
"579 102 LINE SMOOTH",
"579 119 OFFCURVE",
"564 128 OFFCURVE",
"530 128 CURVE SMOOTH"
);
},
{
closed = 1;
nodes = (
"88 128 LINE SMOOTH",
"54 128 OFFCURVE",
"39 119 OFFCURVE",
"39 102 CURVE SMOOTH",
"39 24 LINE SMOOTH",
"39 7 OFFCURVE",
"54 -2 OFFCURVE",
"88 -2 CURVE SMOOTH",
"111 -2 LINE SMOOTH",
"145 -2 OFFCURVE",
"160 7 OFFCURVE",
"160 24 CURVE SMOOTH",
"160 102 LINE SMOOTH",
"160 119 OFFCURVE",
"145 128 OFFCURVE",
"111 128 CURVE SMOOTH"
);
},
{
closed = 1;
nodes = (
"298 128 LINE SMOOTH",
"264 128 OFFCURVE",
"249 119 OFFCURVE",
"249 102 CURVE SMOOTH",
"249 24 LINE SMOOTH",
"249 7 OFFCURVE",
"264 -2 OFFCURVE",
"298 -2 CURVE SMOOTH",
"321 -2 LINE SMOOTH",
"355 -2 OFFCURVE",
"370 7 OFFCURVE",
"370 24 CURVE SMOOTH",
"370 102 LINE SMOOTH",
"370 119 OFFCURVE",
"355 128 OFFCURVE",
"321 128 CURVE SMOOTH"
);
}
);
width = 617;
}
);
unicode = 2026;
},
{
color = 11;
glyphname = exclam;
lastChange = "2014-11-19 04:29:11 +0000";
layers = (
{
layerId = "166CCA77-1BE6-4372-BC61-BAE07403C72D";
name = Regular;
paths = (
{
closed = 1;
nodes = (
"153 702 LINE SMOOTH",
"119 702 OFFCURVE",
"104 693 OFFCURVE",
"104 676 CURVE SMOOTH",
"104 237 LINE SMOOTH",
"104 220 OFFCURVE",
"113 211 OFFCURVE",
"143 211 CURVE",
"154 211 LINE SMOOTH",
"184 211 OFFCURVE",
"192 220 OFFCURVE",
"194 237 CURVE SMOOTH",
"206 384 OFFCURVE",
"218 531 OFFCURVE",
"231 677 CURVE",
"231 693 OFFCURVE",
"216 702 OFFCURVE",
"183 702 CURVE SMOOTH"
);
},
{
closed = 1;
nodes = (
"138 128 LINE SMOOTH",
"104 128 OFFCURVE",
"89 119 OFFCURVE",
"89 102 CURVE SMOOTH",
"89 24 LINE SMOOTH",
"89 7 OFFCURVE",
"104 -2 OFFCURVE",
"138 -2 CURVE SMOOTH",
"161 -2 LINE SMOOTH",
"195 -2 OFFCURVE",
"210 7 OFFCURVE",
"210 24 CURVE SMOOTH",
"210 102 LINE SMOOTH",
"210 119 OFFCURVE",
"195 128 OFFCURVE",
"161 128 CURVE SMOOTH"
);
}
);
width = 294;
}
);
unicode = 0021;
},
{
color = 11;
glyphname = exclamdown;
lastChange = "2014-11-19 04:29:10 +0000";
layers = (
{
layerId = "166CCA77-1BE6-4372-BC61-BAE07403C72D";
name = Regular;
paths = (
{
closed = 1;
nodes = (
"144 312 LINE SMOOTH",
"114 312 OFFCURVE",
"106 303 OFFCURVE",
"104 285 CURVE SMOOTH",
"92 139 OFFCURVE",
"67 -132 OFFCURVE",
"67 -155 CURVE",
"67 -171 OFFCURVE",
"82 -179 OFFCURVE",
"115 -179 CURVE SMOOTH",
"145 -179 LINE SMOOTH",
"179 -179 OFFCURVE",
"194 -170 OFFCURVE",
"194 -153 CURVE SMOOTH",
"194 285 LINE SMOOTH",
"194 303 OFFCURVE",
"184 312 OFFCURVE",
"155 312 CURVE SMOOTH"
);
},
{
closed = 1;
nodes = (
"137 525 LINE SMOOTH",
"103 525 OFFCURVE",
"88 516 OFFCURVE",
"88 499 CURVE SMOOTH",
"88 421 LINE SMOOTH",
"88 404 OFFCURVE",
"103 395 OFFCURVE",
"137 395 CURVE",
"160 395 LINE SMOOTH",
"194 395 OFFCURVE",
"209 404 OFFCURVE",
"209 421 CURVE SMOOTH",
"209 499 LINE SMOOTH",
"209 516 OFFCURVE",
"194 525 OFFCURVE",
"160 525 CURVE SMOOTH"
);
}
);
width = 294;
}
);
unicode = 00A1;
},
{
color = 11;
glyphname = numbersign;
lastChange = "2014-11-19 04:29:11 +0000";
layers = (
{
layerId = "166CCA77-1BE6-4372-BC61-BAE07403C72D";
name = Regular;
paths = (
{
closed = 1;
nodes = (
"431 686 LINE SMOOTH",
"395 686 OFFCURVE",
"384 677 OFFCURVE",
"381 660 CURVE SMOOTH",
"353 504 LINE",
"245 504 LINE",
"275 668 LINE",
"275 679 OFFCURVE",
"264 686 OFFCURVE",
"240 686 CURVE SMOOTH",
"232 686 LINE SMOOTH",
"196 686 OFFCURVE",
"186 677 OFFCURVE",
"183 660 CURVE SMOOTH",
"154 504 LINE",
"71 504 LINE SMOOTH",
"54 504 OFFCURVE",
"47 492 OFFCURVE",
"47 465 CURVE SMOOTH",
"47 451 LINE SMOOTH",
"47 424 OFFCURVE",
"54 413 OFFCURVE",
"71 413 CURVE SMOOTH",
"138 413 LINE",
"114 282 LINE",
"35 282 LINE SMOOTH",
"18 282 OFFCURVE",
"11 270 OFFCURVE",
"11 243 CURVE SMOOTH",
"11 229 LINE SMOOTH",
"11 202 OFFCURVE",
"18 190 OFFCURVE",
"35 190 CURVE SMOOTH",
"97 190 LINE",
"70 45 OFFCURVE",
"66 24 OFFCURVE",
"66 18 CURVE SMOOTH",
"66 3 OFFCURVE",
"77 -2 OFFCURVE",
"102 -2 CURVE SMOOTH",
"110 -2 LINE SMOOTH",
"144 -2 OFFCURVE",
"154 7 OFFCURVE",
"158 24 CURVE SMOOTH",
"189 190 LINE",
"296 190 LINE",
"270 45 OFFCURVE",
"265 24 OFFCURVE",
"265 18 CURVE SMOOTH",
"265 3 OFFCURVE",
"276 -2 OFFCURVE",
"301 -2 CURVE SMOOTH",
"309 -2 LINE SMOOTH",
"342 -2 OFFCURVE",
"354 7 OFFCURVE",
"357 24 CURVE SMOOTH",
"387 190 LINE",
"466 190 LINE SMOOTH",
"483 190 OFFCURVE",
"490 202 OFFCURVE",
"490 229 CURVE SMOOTH",
"490 243 LINE SMOOTH",
"490 270 OFFCURVE",
"483 282 OFFCURVE",
"466 282 CURVE SMOOTH",
"405 282 LINE",
"428 413 LINE",
"498 413 LINE SMOOTH",
"515 413 OFFCURVE",
"522 424 OFFCURVE",
"522 451 CURVE SMOOTH",
"522 465 LINE SMOOTH",
"522 492 OFFCURVE",
"515 504 OFFCURVE",
"498 504 CURVE SMOOTH",
"445 504 LINE",
"475 668 LINE",
"475 679 OFFCURVE",
"463 686 OFFCURVE",
"439 686 CURVE SMOOTH"
);
},
{
closed = 1;
nodes = (
"314 282 LINE",
"206 282 LINE",
"230 413 LINE",
"337 413 LINE"
);
}
);
width = 534;
}
);
unicode = 0023;
},
{
color = 11;
glyphname = period;
lastChange = "2014-11-19 04:29:11 +0000";
layers = (
{
layerId = "166CCA77-1BE6-4372-BC61-BAE07403C72D";
name = Regular;
paths = (
{
closed = 1;
nodes = (
"87 128 LINE SMOOTH",
"53 128 OFFCURVE",
"38 119 OFFCURVE",
"38 102 CURVE SMOOTH",
"38 24 LINE SMOOTH",
"38 7 OFFCURVE",
"53 -2 OFFCURVE",
"87 -2 CURVE SMOOTH",
"110 -2 LINE SMOOTH",
"144 -2 OFFCURVE",
"159 7 OFFCURVE",
"159 24 CURVE SMOOTH",
"159 102 LINE SMOOTH",
"159 119 OFFCURVE",
"144 128 OFFCURVE",
"110 128 CURVE SMOOTH"
);
}
);
width = 198;
}
);
unicode = 002E;
},
{
color = 11;
glyphname = question;
lastChange = "2014-11-19 04:29:11 +0000";
layers = (
{
layerId = "166CCA77-1BE6-4372-BC61-BAE07403C72D";
name = Regular;
paths = (
{
closed = 1;
nodes = (
"145 707 OFFCURVE",
"41 684 OFFCURVE",
"41 639 CURVE SMOOTH",
"41 622 OFFCURVE",
"69 575 OFFCURVE",
"87 575 CURVE SMOOTH",
"101 575 OFFCURVE",
"144 608 OFFCURVE",
"205 608 CURVE SMOOTH",
"274 608 OFFCURVE",
"309 579 OFFCURVE",
"309 525 CURVE SMOOTH",
"309 482 OFFCURVE",
"264 441 OFFCURVE",
"217 391 CURVE SMOOTH",
"171 341 OFFCURVE",
"139 287 OFFCURVE",
"139 236 CURVE SMOOTH",
"139 219 OFFCURVE",
"150 211 OFFCURVE",
"177 211 CURVE SMOOTH",
"196 211 LINE SMOOTH",
"224 211 OFFCURVE",
"234 217 OFFCURVE",
"237 234 CURVE SMOOTH",
"254 341 OFFCURVE",
"430 392 OFFCURVE",
"430 535 CURVE SMOOTH",
"430 633 OFFCURVE",
"353 707 OFFCURVE",
"220 707 CURVE SMOOTH"
);
},
{
closed = 1;
nodes = (
"174 128 LINE SMOOTH",
"140 128 OFFCURVE",
"125 119 OFFCURVE",
"125 102 CURVE SMOOTH",
"125 24 LINE SMOOTH",
"125 7 OFFCURVE",
"140 -2 OFFCURVE",
"174 -2 CURVE SMOOTH",
"197 -2 LINE SMOOTH",
"231 -2 OFFCURVE",
"246 7 OFFCURVE",
"246 24 CURVE SMOOTH",
"246 102 LINE SMOOTH",
"246 119 OFFCURVE",
"231 128 OFFCURVE",
"197 128 CURVE SMOOTH"
);
}
);
width = 445;
}
);
unicode = 003F;
},
{
color = 11;
glyphname = questiondown;
lastChange = "2014-11-19 04:29:11 +0000";
layers = (
{
layerId = "166CCA77-1BE6-4372-BC61-BAE07403C72D";
name = Regular;
paths = (
{
closed = 1;
nodes = (
"253 312 LINE SMOOTH",
"226 312 OFFCURVE",
"216 306 OFFCURVE",
"212 289 CURVE SMOOTH",
"195 182 OFFCURVE",
"19 131 OFFCURVE",
"19 -12 CURVE SMOOTH",
"19 -110 OFFCURVE",
"96 -184 OFFCURVE",
"229 -184 CURVE SMOOTH",
"304 -184 OFFCURVE",
"408 -161 OFFCURVE",
"408 -116 CURVE SMOOTH",
"408 -99 OFFCURVE",
"381 -52 OFFCURVE",
"363 -52 CURVE SMOOTH",
"348 -52 OFFCURVE",
"305 -85 OFFCURVE",
"244 -85 CURVE SMOOTH",
"175 -85 OFFCURVE",
"141 -56 OFFCURVE",
"141 -2 CURVE SMOOTH",
"141 42 OFFCURVE",
"185 83 OFFCURVE",
"233 133 CURVE SMOOTH",
"279 182 OFFCURVE",
"310 236 OFFCURVE",
"310 287 CURVE SMOOTH",
"310 304 OFFCURVE",
"299 312 OFFCURVE",
"272 312 CURVE SMOOTH"
);
},
{
closed = 1;
nodes = (
"253 525 LINE SMOOTH",
"219 525 OFFCURVE",
"204 516 OFFCURVE",
"204 499 CURVE SMOOTH",
"204 421 LINE SMOOTH",
"204 404 OFFCURVE",
"219 395 OFFCURVE",
"253 395 CURVE",
"276 395 LINE SMOOTH",
"310 395 OFFCURVE",
"325 404 OFFCURVE",
"325 421 CURVE SMOOTH",
"325 499 LINE SMOOTH",
"325 516 OFFCURVE",
"310 525 OFFCURVE",
"276 525 CURVE SMOOTH"
);
}
);
width = 425;
}
);
unicode = 00BF;
},
{
color = 11;
glyphname = quotedbl;
lastChange = "2014-11-19 04:29:11 +0000";
layers = (
{
layerId = "166CCA77-1BE6-4372-BC61-BAE07403C72D";
name = Regular;
paths = (
{
closed = 1;
nodes = (
"224 702 LINE SMOOTH",
"190 702 OFFCURVE",
"175 693 OFFCURVE",
"175 676 CURVE SMOOTH",
"175 667 LINE",
"197 488 LINE",
"199 475 OFFCURVE",
"208 469 OFFCURVE",
"224 469 CURVE",
"233 469 LINE",
"249 469 OFFCURVE",
"257 475 OFFCURVE",
"260 488 CURVE",
"267 551 OFFCURVE",
"282 667 OFFCURVE",
"282 676 CURVE",
"282 693 OFFCURVE",
"268 702 OFFCURVE",
"234 702 CURVE SMOOTH"
);
},
{
closed = 1;
nodes = (
"85 702 LINE SMOOTH",
"51 702 OFFCURVE",
"36 693 OFFCURVE",
"36 676 CURVE SMOOTH",
"36 667 LINE",
"58 488 LINE",
"60 475 OFFCURVE",
"69 469 OFFCURVE",
"85 469 CURVE",
"94 469 LINE",
"110 469 OFFCURVE",
"118 475 OFFCURVE",
"121 488 CURVE",
"128 551 OFFCURVE",
"143 667 OFFCURVE",
"143 676 CURVE",
"143 693 OFFCURVE",
"129 702 OFFCURVE",
"95 702 CURVE SMOOTH"
);
}
);
width = 319;
}
);
unicode = 0022;
},
{
color = 11;
glyphname = quotesingle;
lastChange = "2014-11-19 04:29:10 +0000";
layers = (
{
layerId = "166CCA77-1BE6-4372-BC61-BAE07403C72D";
name = Regular;
paths = (
{
closed = 1;
nodes = (
"90 702 LINE SMOOTH",
"56 702 OFFCURVE",
"41 693 OFFCURVE",
"41 676 CURVE SMOOTH",
"41 667 LINE",
"63 488 LINE",
"65 475 OFFCURVE",
"74 469 OFFCURVE",
"90 469 CURVE",
"99 469 LINE",
"115 469 OFFCURVE",
"123 475 OFFCURVE",
"126 488 CURVE",
"133 551 OFFCURVE",
"148 667 OFFCURVE",
"148 676 CURVE",
"148 693 OFFCURVE",
"134 702 OFFCURVE",
"100 702 CURVE SMOOTH"
);
}
);
width = 183;
}
);
unicode = 0027;
},
{
color = 11;
glyphname = semicolon;
lastChange = "2014-11-19 04:29:10 +0000";
layers = (
{
components = (
{
name = comma;
transform = "{1, 0, 0, 1, 0, 0}";
}
);
layerId = "166CCA77-1BE6-4372-BC61-BAE07403C72D";
name = Regular;
paths = (
{
closed = 1;
nodes = (
"87 525 LINE SMOOTH",
"53 525 OFFCURVE",
"38 516 OFFCURVE",
"38 499 CURVE SMOOTH",
"38 421 LINE SMOOTH",
"38 404 OFFCURVE",
"53 395 OFFCURVE",
"87 395 CURVE",
"110 395 LINE SMOOTH",
"144 395 OFFCURVE",
"159 404 OFFCURVE",
"159 421 CURVE SMOOTH",
"159 499 LINE SMOOTH",
"159 516 OFFCURVE",
"144 525 OFFCURVE",
"110 525 CURVE SMOOTH"
);
}
);
width = 198;
}
);
unicode = 003B;
},
{
color = 11;
glyphname = slash;
lastChange = "2014-11-19 04:29:11 +0000";
layers = (
{
layerId = "166CCA77-1BE6-4372-BC61-BAE07403C72D";
name = Regular;
paths = (
{
closed = 1;
nodes = (
"333 703 LINE SMOOTH",
"310 703 OFFCURVE",
"295 695 OFFCURVE",
"287 677 CURVE SMOOTH",
"-15 -44 LINE SMOOTH",
"-17 -50 OFFCURVE",
"-18 -55 OFFCURVE",
"-18 -59 CURVE SMOOTH",
"-18 -70 OFFCURVE",
"-7 -77 OFFCURVE",
"15 -77 CURVE SMOOTH",
"28 -77 LINE SMOOTH",
"51 -77 OFFCURVE",
"65 -70 OFFCURVE",
"73 -51 CURVE SMOOTH",
"375 670 LINE SMOOTH",
"377 675 OFFCURVE",
"378 680 OFFCURVE",
"378 684 CURVE SMOOTH",
"378 695 OFFCURVE",
"368 703 OFFCURVE",
"346 703 CURVE SMOOTH"
);
}
);
width = 370;
}
);
unicode = 002F;
},
{
color = 11;
glyphname = underscore;
lastChange = "2014-11-19 04:29:10 +0000";
layers = (
{
layerId = "166CCA77-1BE6-4372-BC61-BAE07403C72D";
name = Regular;
paths = (
{
closed = 1;
nodes = (
"4 -66 LINE SMOOTH",
"-13 -66 OFFCURVE",
"-20 -76 OFFCURVE",
"-20 -100 CURVE SMOOTH",
"-20 -107 LINE SMOOTH",
"-20 -130 OFFCURVE",
"-13 -140 OFFCURVE",
"4 -140 CURVE SMOOTH",
"531 -140 LINE SMOOTH",
"548 -140 OFFCURVE",
"555 -130 OFFCURVE",
"555 -107 CURVE SMOOTH",
"555 -100 LINE SMOOTH",
"555 -76 OFFCURVE",
"548 -66 OFFCURVE",
"531 -66 CURVE SMOOTH"
);
}
);
width = 534;
}
);
unicode = 005F;
},
{
color = 11;
glyphname = braceleft;
lastChange = "2014-11-19 04:29:11 +0000";
layers = (
{
layerId = "166CCA77-1BE6-4372-BC61-BAE07403C72D";
name = Regular;
paths = (
{
closed = 1;
nodes = (
"182 768 LINE SMOOTH",
"142 768 OFFCURVE",
"95 735 OFFCURVE",
"95 652 CURVE SMOOTH",
"95 485 LINE SMOOTH",
"95 418 OFFCURVE",
"86 380 OFFCURVE",
"46 363 CURVE SMOOTH",
"28 354 OFFCURVE",
"19 343 OFFCURVE",
"19 322 CURVE SMOOTH",
"19 308 LINE SMOOTH",
"19 287 OFFCURVE",
"28 276 OFFCURVE",
"46 267 CURVE SMOOTH",
"86 250 OFFCURVE",
"95 211 OFFCURVE",
"95 145 CURVE SMOOTH",
"95 -22 LINE SMOOTH",
"95 -106 OFFCURVE",
"142 -138 OFFCURVE",
"182 -138 CURVE SMOOTH",
"227 -138 LINE SMOOTH",
"244 -138 OFFCURVE",
"252 -128 OFFCURVE",
"252 -104 CURVE SMOOTH",
"252 -96 LINE SMOOTH",
"252 -72 OFFCURVE",
"244 -62 OFFCURVE",
"228 -62 CURVE SMOOTH",
"215 -62 LINE SMOOTH",
"192 -62 OFFCURVE",
"186 -44 OFFCURVE",
"186 -11 CURVE SMOOTH",
"186 161 LINE SMOOTH",
"186 251 OFFCURVE",
"140 300 OFFCURVE",
"112 314 CURVE",
"141 332 OFFCURVE",
"186 381 OFFCURVE",
"186 469 CURVE SMOOTH",
"186 642 LINE SMOOTH",
"186 675 OFFCURVE",
"193 692 OFFCURVE",
"218 692 CURVE SMOOTH",
"229 692 LINE SMOOTH",
"245 692 OFFCURVE",
"252 703 OFFCURVE",
"252 726 CURVE SMOOTH",
"252 734 LINE SMOOTH",
"252 758 OFFCURVE",
"244 768 OFFCURVE",
"227 768 CURVE SMOOTH"
);
}
);
width = 274;
}
);
unicode = 007B;
},
{
color = 11;
glyphname = braceright;
lastChange = "2014-11-19 04:29:11 +0000";
layers = (
{
layerId = "166CCA77-1BE6-4372-BC61-BAE07403C72D";
name = Regular;
paths = (
{
closed = 1;
nodes = (
"49 768 LINE SMOOTH",
"32 768 OFFCURVE",
"25 758 OFFCURVE",
"25 734 CURVE SMOOTH",
"25 726 LINE SMOOTH",
"25 703 OFFCURVE",
"31 692 OFFCURVE",
"47 692 CURVE SMOOTH",
"60 692 LINE SMOOTH",
"85 692 OFFCURVE",
"91 675 OFFCURVE",
"91 642 CURVE SMOOTH",
"91 469 LINE SMOOTH",
"91 381 OFFCURVE",
"136 332 OFFCURVE",
"165 314 CURVE",
"137 300 OFFCURVE",
"91 251 OFFCURVE",
"91 161 CURVE SMOOTH",
"91 -11 LINE SMOOTH",
"91 -43 OFFCURVE",
"85 -62 OFFCURVE",
"61 -62 CURVE SMOOTH",
"48 -62 LINE SMOOTH",
"32 -62 OFFCURVE",
"25 -72 OFFCURVE",
"25 -96 CURVE SMOOTH",
"25 -104 LINE SMOOTH",
"25 -128 OFFCURVE",
"32 -138 OFFCURVE",
"49 -138 CURVE SMOOTH",
"95 -138 LINE SMOOTH",
"135 -138 OFFCURVE",
"182 -106 OFFCURVE",
"182 -22 CURVE SMOOTH",
"182 145 LINE SMOOTH",
"182 211 OFFCURVE",
"191 250 OFFCURVE",
"231 267 CURVE SMOOTH",
"248 276 OFFCURVE",
"258 287 OFFCURVE",
"258 308 CURVE SMOOTH",
"258 322 LINE SMOOTH",
"258 343 OFFCURVE",
"248 354 OFFCURVE",
"231 363 CURVE SMOOTH",
"191 380 OFFCURVE",
"182 418 OFFCURVE",
"182 485 CURVE SMOOTH",
"182 652 LINE SMOOTH",
"182 735 OFFCURVE",
"135 768 OFFCURVE",
"95 768 CURVE SMOOTH"
);
}
);
width = 274;
}
);
unicode = 007D;
},
{
color = 11;
glyphname = bracketleft;
lastChange = "2014-11-19 04:29:11 +0000";
layers = (
{
layerId = "166CCA77-1BE6-4372-BC61-BAE07403C72D";
name = Regular;
paths = (
{
closed = 1;
nodes = (
"113 768 LINE SMOOTH",
"89 768 OFFCURVE",
"79 758 OFFCURVE",
"79 734 CURVE SMOOTH",
"79 -104 LINE SMOOTH",
"79 -128 OFFCURVE",
"89 -138 OFFCURVE",
"113 -138 CURVE SMOOTH",
"237 -138 LINE SMOOTH",
"254 -138 OFFCURVE",
"261 -128 OFFCURVE",
"261 -104 CURVE SMOOTH",
"261 -95 LINE SMOOTH",
"261 -71 OFFCURVE",
"254 -62 OFFCURVE",
"237 -62 CURVE SMOOTH",
"171 -62 LINE",
"171 691 LINE",
"237 691 LINE SMOOTH",
"254 691 OFFCURVE",
"261 701 OFFCURVE",
"261 725 CURVE SMOOTH",
"261 734 LINE SMOOTH",
"261 758 OFFCURVE",
"254 768 OFFCURVE",
"237 768 CURVE SMOOTH"
);
}
);
width = 291;
}
);
unicode = 005B;
},
{
color = 11;
glyphname = bracketright;
lastChange = "2014-11-19 04:29:10 +0000";
layers = (
{
layerId = "166CCA77-1BE6-4372-BC61-BAE07403C72D";
name = Regular;
paths = (
{
closed = 1;
nodes = (
"54 768 LINE SMOOTH",
"37 768 OFFCURVE",
"30 758 OFFCURVE",
"30 734 CURVE SMOOTH",
"30 725 LINE SMOOTH",
"30 701 OFFCURVE",
"37 691 OFFCURVE",
"54 691 CURVE SMOOTH",
"120 691 LINE",
"120 -62 LINE",
"54 -62 LINE SMOOTH",
"37 -62 OFFCURVE",
"30 -71 OFFCURVE",
"30 -95 CURVE SMOOTH",
"30 -104 LINE SMOOTH",
"30 -128 OFFCURVE",
"37 -138 OFFCURVE",
"54 -138 CURVE SMOOTH",
"178 -138 LINE SMOOTH",
"202 -138 OFFCURVE",
"212 -128 OFFCURVE",
"212 -104 CURVE SMOOTH",
"212 734 LINE SMOOTH",
"212 758 OFFCURVE",
"202 768 OFFCURVE",
"178 768 CURVE SMOOTH"
);
}
);
width = 291;
}
);
unicode = 005D;
},
{
color = 11;
glyphname = parenleft;
lastChange = "2014-11-19 04:29:10 +0000";
layers = (
{
layerId = "166CCA77-1BE6-4372-BC61-BAE07403C72D";
name = Regular;
paths = (
{
closed = 1;
nodes = (
"237 783 OFFCURVE",
"230 779 OFFCURVE",
"222 770 CURVE SMOOTH",
"117 652 OFFCURVE",
"53 478 OFFCURVE",
"53 286 CURVE SMOOTH",
"53 95 OFFCURVE",
"117 -79 OFFCURVE",
"222 -197 CURVE SMOOTH",
"230 -206 OFFCURVE",
"238 -210 OFFCURVE",
"246 -210 CURVE SMOOTH",
"264 -210 OFFCURVE",
"287 -190 OFFCURVE",
"287 -174 CURVE SMOOTH",
"287 -168 OFFCURVE",
"285 -161 OFFCURVE",
"280 -154 CURVE SMOOTH",
"195 -28 OFFCURVE",
"150 119 OFFCURVE",
"150 286 CURVE SMOOTH",
"150 454 OFFCURVE",
"195 602 OFFCURVE",
"280 728 CURVE SMOOTH",
"285 735 OFFCURVE",
"288 742 OFFCURVE",
"288 749 CURVE SMOOTH",
"288 767 OFFCURVE",
"261 783 OFFCURVE",
"246 783 CURVE SMOOTH"
);
}
);
width = 301;
}
);
unicode = 0028;
},
{
color = 11;
glyphname = parenright;
lastChange = "2014-11-19 04:29:10 +0000";
layers = (
{
layerId = "166CCA77-1BE6-4372-BC61-BAE07403C72D";
name = Regular;
paths = (
{
closed = 1;
nodes = (
"36 784 OFFCURVE",
"13 763 OFFCURVE",
"13 748 CURVE SMOOTH",
"13 742 OFFCURVE",
"15 735 OFFCURVE",
"20 728 CURVE SMOOTH",
"105 602 OFFCURVE",
"150 454 OFFCURVE",
"150 286 CURVE SMOOTH",
"150 117 OFFCURVE",
"104 -32 OFFCURVE",
"17 -158 CURVE SMOOTH",
"13 -164 OFFCURVE",
"11 -170 OFFCURVE",
"11 -175 CURVE SMOOTH",
"11 -192 OFFCURVE",
"37 -210 OFFCURVE",
"54 -210 CURVE SMOOTH",
"62 -210 OFFCURVE",
"70 -206 OFFCURVE",
"78 -197 CURVE SMOOTH",
"182 -79 OFFCURVE",
"247 95 OFFCURVE",
"247 286 CURVE SMOOTH",
"247 478 OFFCURVE",
"182 652 OFFCURVE",
"78 770 CURVE SMOOTH",
"70 779 OFFCURVE",
"62 784 OFFCURVE",
"53 784 CURVE SMOOTH"
);
}
);
width = 301;
}
);
unicode = 0029;
},
{
color = 11;
glyphname = emdash;
lastChange = "2014-11-19 04:29:11 +0000";
layers = (
{
layerId = "166CCA77-1BE6-4372-BC61-BAE07403C72D";
name = Regular;
paths = (
{
closed = 1;
nodes = (
"24 308 LINE SMOOTH",
"7 308 OFFCURVE",
"0 297 OFFCURVE",
"0 270 CURVE SMOOTH",
"0 261 LINE SMOOTH",
"0 234 OFFCURVE",
"7 222 OFFCURVE",
"24 222 CURVE",
"976 222 LINE SMOOTH",
"993 222 OFFCURVE",
"1000 234 OFFCURVE",
"1000 261 CURVE SMOOTH",
"1000 270 LINE SMOOTH",
"1000 297 OFFCURVE",
"993 308 OFFCURVE",
"976 308 CURVE SMOOTH"
);
}
);
width = 1000;
}
);
unicode = 2014;
},
{
color = 11;
glyphname = endash;
lastChange = "2014-11-19 04:29:11 +0000";
layers = (
{
layerId = "166CCA77-1BE6-4372-BC61-BAE07403C72D";
name = Regular;
paths = (
{
closed = 1;
nodes = (
"24 308 LINE SMOOTH",
"7 308 OFFCURVE",
"0 297 OFFCURVE",
"0 270 CURVE SMOOTH",
"0 261 LINE SMOOTH",
"0 234 OFFCURVE",
"7 222 OFFCURVE",
"24 222 CURVE",
"476 222 LINE SMOOTH",
"493 222 OFFCURVE",
"500 234 OFFCURVE",
"500 261 CURVE SMOOTH",
"500 270 LINE SMOOTH",
"500 297 OFFCURVE",
"493 308 OFFCURVE",
"476 308 CURVE SMOOTH"
);
}
);
width = 500;
}
);
unicode = 2013;
},
{
color = 11;
glyphname = hyphen;
lastChange = "2014-11-19 04:29:11 +0000";
layers = (
{
layerId = "166CCA77-1BE6-4372-BC61-BAE07403C72D";
name = Regular;
paths = (
{
closed = 1;
nodes = (
"61 308 LINE SMOOTH",
"44 308 OFFCURVE",
"37 297 OFFCURVE",
"37 270 CURVE SMOOTH",
"37 261 LINE SMOOTH",
"37 234 OFFCURVE",
"44 222 OFFCURVE",
"61 222 CURVE",
"257 222 LINE SMOOTH",
"274 222 OFFCURVE",
"281 234 OFFCURVE",
"281 261 CURVE SMOOTH",
"281 270 LINE SMOOTH",
"281 297 OFFCURVE",
"274 308 OFFCURVE",
"257 308 CURVE SMOOTH"
);
}
);
width = 320;
}
);
unicode = 002D;
},
{
color = 11;
glyphname = softhyphen;
lastChange = "2014-11-19 04:29:11 +0000";
layers = (
{
layerId = "166CCA77-1BE6-4372-BC61-BAE07403C72D";
name = Regular;
paths = (
{
closed = 1;
nodes = (
"62 308 LINE SMOOTH",
"45 308 OFFCURVE",
"38 297 OFFCURVE",
"38 270 CURVE SMOOTH",
"38 261 LINE SMOOTH",
"38 234 OFFCURVE",
"45 222 OFFCURVE",
"62 222 CURVE",
"254 222 LINE SMOOTH",
"271 222 OFFCURVE",
"278 234 OFFCURVE",
"278 261 CURVE SMOOTH",
"278 270 LINE SMOOTH",
"278 297 OFFCURVE",
"271 308 OFFCURVE",
"254 308 CURVE SMOOTH"
);
}
);
width = 320;
}
);
unicode = 00AD;
},
{
color = 11;
glyphname = guillemetleft;
lastChange = "2014-11-19 04:29:10 +0000";
layers = (
{
layerId = "166CCA77-1BE6-4372-BC61-BAE07403C72D";
name = Regular;
paths = (
{
closed = 1;
nodes = (
"378 461 OFFCURVE",
"371 457 OFFCURVE",
"363 448 CURVE SMOOTH",
"234 293 LINE SMOOTH",
"224 281 OFFCURVE",
"220 271 OFFCURVE",
"220 258 CURVE SMOOTH",
"220 245 OFFCURVE",
"224 235 OFFCURVE",
"234 223 CURVE",
"363 68 LINE SMOOTH",
"371 59 OFFCURVE",
"379 54 OFFCURVE",
"387 54 CURVE SMOOTH",
"406 54 OFFCURVE",
"433 79 OFFCURVE",
"433 94 CURVE SMOOTH",
"433 101 OFFCURVE",
"430 108 OFFCURVE",
"424 115 CURVE SMOOTH",
"314 258 LINE",
"424 400 LINE SMOOTH",
"430 408 OFFCURVE",
"433 415 OFFCURVE",
"433 421 CURVE SMOOTH",
"433 441 OFFCURVE",
"402 461 OFFCURVE",
"387 461 CURVE SMOOTH"
);
},
{
closed = 1;
nodes = (
"195 461 OFFCURVE",
"188 457 OFFCURVE",
"180 448 CURVE SMOOTH",
"51 293 LINE SMOOTH",
"41 281 OFFCURVE",
"37 271 OFFCURVE",
"37 258 CURVE SMOOTH",
"37 245 OFFCURVE",
"41 235 OFFCURVE",
"51 223 CURVE SMOOTH",
"180 68 LINE SMOOTH",
"188 59 OFFCURVE",
"196 54 OFFCURVE",
"204 54 CURVE SMOOTH",
"223 54 OFFCURVE",
"250 79 OFFCURVE",
"250 94 CURVE SMOOTH",
"250 101 OFFCURVE",
"247 108 OFFCURVE",
"241 115 CURVE SMOOTH",
"131 258 LINE",
"241 400 LINE SMOOTH",
"247 408 OFFCURVE",
"250 415 OFFCURVE",
"250 421 CURVE SMOOTH",
"250 441 OFFCURVE",
"219 461 OFFCURVE",
"204 461 CURVE SMOOTH"
);
}
);
width = 471;
}
);
unicode = 00AB;
},
{
color = 11;
glyphname = guillemetright;
lastChange = "2014-11-19 04:29:10 +0000";
layers = (
{
layerId = "166CCA77-1BE6-4372-BC61-BAE07403C72D";
name = Regular;
paths = (
{
closed = 1;
nodes = (
"263 461 OFFCURVE",
"233 441 OFFCURVE",
"233 421 CURVE SMOOTH",
"233 415 OFFCURVE",
"236 408 OFFCURVE",
"241 400 CURVE SMOOTH",
"352 258 LINE",
"241 115 LINE SMOOTH",
"236 108 OFFCURVE",
"233 101 OFFCURVE",
"233 94 CURVE SMOOTH",
"233 79 OFFCURVE",
"260 54 OFFCURVE",
"278 54 CURVE SMOOTH",
"287 54 OFFCURVE",
"295 59 OFFCURVE",
"303 68 CURVE SMOOTH",
"431 223 LINE SMOOTH",
"442 235 OFFCURVE",
"446 245 OFFCURVE",
"446 258 CURVE SMOOTH",
"446 271 OFFCURVE",
"442 281 OFFCURVE",
"431 293 CURVE SMOOTH",
"303 448 LINE SMOOTH",
"295 457 OFFCURVE",
"287 461 OFFCURVE",
"278 461 CURVE SMOOTH"
);
},
{
closed = 1;
nodes = (
"79 461 OFFCURVE",
"49 441 OFFCURVE",
"49 421 CURVE SMOOTH",
"49 415 OFFCURVE",
"52 408 OFFCURVE",
"57 400 CURVE SMOOTH",
"168 258 LINE",
"57 115 LINE SMOOTH",
"52 108 OFFCURVE",
"49 101 OFFCURVE",
"49 94 CURVE SMOOTH",
"49 79 OFFCURVE",
"76 54 OFFCURVE",
"94 54 CURVE SMOOTH",
"103 54 OFFCURVE",
"111 59 OFFCURVE",
"119 68 CURVE SMOOTH",
"247 223 LINE SMOOTH",
"258 235 OFFCURVE",
"262 245 OFFCURVE",
"262 258 CURVE SMOOTH",
"262 271 OFFCURVE",
"258 281 OFFCURVE",
"247 293 CURVE SMOOTH",
"119 448 LINE SMOOTH",
"111 457 OFFCURVE",
"103 461 OFFCURVE",
"94 461 CURVE SMOOTH"
);
}
);
width = 471;
}
);
unicode = 00BB;
},
{
color = 11;
glyphname = guilsinglleft;
lastChange = "2014-11-19 04:29:11 +0000";
layers = (
{
layerId = "166CCA77-1BE6-4372-BC61-BAE07403C72D";
name = Regular;
paths = (
{
closed = 1;
nodes = (
"196 461 OFFCURVE",
"189 457 OFFCURVE",
"181 448 CURVE SMOOTH",
"52 293 LINE SMOOTH",
"42 281 OFFCURVE",
"38 271 OFFCURVE",
"38 258 CURVE SMOOTH",
"38 245 OFFCURVE",
"42 235 OFFCURVE",
"52 223 CURVE SMOOTH",
"181 68 LINE SMOOTH",
"189 59 OFFCURVE",
"197 54 OFFCURVE",
"205 54 CURVE SMOOTH",
"224 54 OFFCURVE",
"251 79 OFFCURVE",
"251 94 CURVE SMOOTH",
"251 101 OFFCURVE",
"248 108 OFFCURVE",
"242 115 CURVE SMOOTH",
"132 258 LINE",
"242 400 LINE SMOOTH",
"248 408 OFFCURVE",
"251 415 OFFCURVE",
"251 421 CURVE SMOOTH",
"251 441 OFFCURVE",
"220 461 OFFCURVE",
"205 461 CURVE SMOOTH"
);
}
);
width = 300;
}
);
unicode = 2039;
},
{
color = 11;
glyphname = guilsinglright;
lastChange = "2014-11-19 04:29:11 +0000";
layers = (
{
layerId = "166CCA77-1BE6-4372-BC61-BAE07403C72D";
name = Regular;
paths = (
{
closed = 1;
nodes = (
"78 461 OFFCURVE",
"48 441 OFFCURVE",
"48 421 CURVE SMOOTH",
"48 415 OFFCURVE",
"51 408 OFFCURVE",
"56 400 CURVE SMOOTH",
"167 258 LINE",
"56 115 LINE SMOOTH",
"51 108 OFFCURVE",
"48 101 OFFCURVE",
"48 94 CURVE SMOOTH",
"48 79 OFFCURVE",
"75 54 OFFCURVE",
"93 54 CURVE SMOOTH",
"102 54 OFFCURVE",
"110 59 OFFCURVE",
"118 68 CURVE SMOOTH",
"246 223 LINE SMOOTH",
"257 235 OFFCURVE",
"261 245 OFFCURVE",
"261 258 CURVE SMOOTH",
"261 271 OFFCURVE",
"257 281 OFFCURVE",
"246 293 CURVE SMOOTH",
"118 448 LINE SMOOTH",
"110 457 OFFCURVE",
"102 461 OFFCURVE",
"93 461 CURVE SMOOTH"
);
}
);
width = 300;
}
);
unicode = 203A;
},
{
color = 11;
glyphname = quoteleft;
lastChange = "2014-11-19 04:29:11 +0000";
layers = (
{
layerId = "166CCA77-1BE6-4372-BC61-BAE07403C72D";
name = Regular;
paths = (
{
closed = 1;
nodes = (
"117 747 OFFCURVE",
"37 650 OFFCURVE",
"37 534 CURVE SMOOTH",
"37 513 OFFCURVE",
"53 499 OFFCURVE",
"86 499 CURVE",
"99 499 LINE SMOOTH",
"133 499 OFFCURVE",
"148 514 OFFCURVE",
"148 536 CURVE SMOOTH",
"148 617 OFFCURVE",
"165 665 OFFCURVE",
"184 704 CURVE SMOOTH",
"188 713 OFFCURVE",
"191 722 OFFCURVE",
"191 729 CURVE SMOOTH",
"191 743 OFFCURVE",
"169 747 OFFCURVE",
"155 747 CURVE SMOOTH"
);
}
);
width = 212;
}
);
unicode = 2018;
},
{
color = 11;
glyphname = quoteright;
lastChange = "2014-11-19 04:29:10 +0000";
layers = (
{
layerId = "166CCA77-1BE6-4372-BC61-BAE07403C72D";
name = Regular;
paths = (
{
closed = 1;
nodes = (
"118 755 LINE SMOOTH",
"85 755 OFFCURVE",
"69 741 OFFCURVE",
"69 718 CURVE SMOOTH",
"69 639 OFFCURVE",
"52 590 OFFCURVE",
"34 552 CURVE SMOOTH",
"30 542 OFFCURVE",
"26 532 OFFCURVE",
"26 525 CURVE SMOOTH",
"26 512 OFFCURVE",
"48 507 OFFCURVE",
"62 507 CURVE SMOOTH",
"100 507 OFFCURVE",
"180 604 OFFCURVE",
"180 720 CURVE SMOOTH",
"180 741 OFFCURVE",
"164 755 OFFCURVE",
"132 755 CURVE SMOOTH"
);
}
);
width = 212;
}
);
unicode = 2019;
},
{
color = 11;
glyphname = .notdef;
lastChange = "2014-11-19 04:29:11 +0000";
layers = (
{
layerId = "166CCA77-1BE6-4372-BC61-BAE07403C72D";
name = Regular;
paths = (
{
closed = 1;
nodes = (
"507 0 LINE",
"507 700 LINE",
"7 700 LINE",
"7 0 LINE"
);
},
{
closed = 1;
nodes = (
"86 650 LINE",
"426 650 LINE",
"257 395 LINE"
);
},
{
closed = 1;
nodes = (
"227 350 LINE",
"56 95 LINE",
"56 605 LINE"
);
},
{
closed = 1;
nodes = (
"456 605 LINE",
"456 95 LINE",
"287 350 LINE"
);
},
{
closed = 1;
nodes = (
"256 305 LINE",
"427 50 LINE",
"87 50 LINE"
);
}
);
width = 514;
}
);
},
{
color = 11;
glyphname = Euro;
lastChange = "2014-11-19 04:29:11 +0000";
layers = (
{
layerId = "166CCA77-1BE6-4372-BC61-BAE07403C72D";
name = Regular;
paths = (
{
closed = 1;
nodes = (
"205 707 OFFCURVE",
"100 626 OFFCURVE",
"72 461 CURVE",
"24 461 LINE SMOOTH",
"7 461 OFFCURVE",
"0 452 OFFCURVE",
"0 430 CURVE SMOOTH",
"0 423 LINE SMOOTH",
"0 400 OFFCURVE",
"7 391 OFFCURVE",
"24 391 CURVE SMOOTH",
"65 391 LINE",
"64 378 OFFCURVE",
"64 365 OFFCURVE",
"64 351 CURVE SMOOTH",
"64 335 OFFCURVE",
"64 320 OFFCURVE",
"65 305 CURVE",
"24 305 LINE SMOOTH",
"7 305 OFFCURVE",
"0 296 OFFCURVE",
"0 273 CURVE SMOOTH",
"0 266 LINE SMOOTH",
"0 244 OFFCURVE",
"7 235 OFFCURVE",
"24 235 CURVE",
"72 235 LINE",
"98 70 OFFCURVE",
"196 -7 OFFCURVE",
"363 -7 CURVE SMOOTH",
"454 -7 OFFCURVE",
"557 29 OFFCURVE",
"557 70 CURVE SMOOTH",
"557 84 OFFCURVE",
"534 137 OFFCURVE",
"512 137 CURVE SMOOTH",
"500 137 OFFCURVE",
"449 91 OFFCURVE",
"359 91 CURVE SMOOTH",
"277 91 OFFCURVE",
"215 135 OFFCURVE",
"193 235 CURVE",
"453 235 LINE SMOOTH",
"470 235 OFFCURVE",
"478 244 OFFCURVE",
"478 266 CURVE SMOOTH",
"478 273 LINE SMOOTH",
"478 296 OFFCURVE",
"470 305 OFFCURVE",
"453 305 CURVE SMOOTH",
"183 305 LINE",
"182 319 OFFCURVE",
"182 334 OFFCURVE",
"182 350 CURVE SMOOTH",
"182 364 OFFCURVE",
"182 378 OFFCURVE",
"183 391 CURVE",
"453 391 LINE SMOOTH",
"470 391 OFFCURVE",
"478 400 OFFCURVE",
"478 423 CURVE SMOOTH",
"478 430 LINE SMOOTH",
"478 452 OFFCURVE",
"470 461 OFFCURVE",
"453 461 CURVE SMOOTH",
"192 461 LINE",
"213 565 OFFCURVE",
"272 609 OFFCURVE",
"364 609 CURVE SMOOTH",
"449 609 OFFCURVE",
"489 570 OFFCURVE",
"498 570 CURVE SMOOTH",
"516 570 OFFCURVE",
"546 620 OFFCURVE",
"546 641 CURVE SMOOTH",
"546 675 OFFCURVE",
"452 707 OFFCURVE",
"367 707 CURVE SMOOTH"
);
}
);
width = 600;
}
);
unicode = 20AC;
},
{
color = 11;
glyphname = cent;
lastChange = "2014-11-19 04:29:10 +0000";
layers = (
{
layerId = "166CCA77-1BE6-4372-BC61-BAE07403C72D";
name = Regular;
paths = (
{
closed = 1;
nodes = (
"273 585 OFFCURVE",
"266 578 OFFCURVE",
"266 563 CURVE SMOOTH",
"266 529 LINE",
"138 521 OFFCURVE",
"49 446 OFFCURVE",
"49 261 CURVE SMOOTH",
"49 85 OFFCURVE",
"121 2 OFFCURVE",
"266 -6 CURVE",
"266 -54 LINE SMOOTH",
"266 -70 OFFCURVE",
"273 -76 OFFCURVE",
"290 -76 CURVE SMOOTH",
"306 -76 OFFCURVE",
"313 -70 OFFCURVE",
"313 -54 CURVE SMOOTH",
"313 -6 LINE",
"381 -2 OFFCURVE",
"454 20 OFFCURVE",
"454 52 CURVE SMOOTH",
"454 69 OFFCURVE",
"430 114 OFFCURVE",
"413 114 CURVE SMOOTH",
"403 114 OFFCURVE",
"371 90 OFFCURVE",
"313 85 CURVE",
"313 437 LINE",
"365 432 OFFCURVE",
"394 410 OFFCURVE",
"403 410 CURVE SMOOTH",
"417 410 OFFCURVE",
"444 457 OFFCURVE",
"444 474 CURVE SMOOTH",
"444 503 OFFCURVE",
"379 525 OFFCURVE",
"313 529 CURVE",
"313 563 LINE SMOOTH",
"313 578 OFFCURVE",
"306 585 OFFCURVE",
"289 585 CURVE SMOOTH"
);
},
{
closed = 1;
nodes = (
"266 87 LINE",
"193 99 OFFCURVE",
"165 154 OFFCURVE",
"165 264 CURVE SMOOTH",
"165 374 OFFCURVE",
"202 425 OFFCURVE",
"266 435 CURVE"
);
}
);
width = 486;
}
);
unicode = 00A2;
},
{
color = 11;
glyphname = currency;
lastChange = "2014-11-19 04:29:10 +0000";
layers = (
{
layerId = "166CCA77-1BE6-4372-BC61-BAE07403C72D";
name = Regular;
paths = (
{
closed = 1;
nodes = (
"102 507 OFFCURVE",
"95 503 OFFCURVE",
"89 497 CURVE SMOOTH",
"74 481 LINE SMOOTH",
"68 475 OFFCURVE",
"65 467 OFFCURVE",
"65 461 CURVE SMOOTH",
"65 453 OFFCURVE",
"68 445 OFFCURVE",
"76 438 CURVE SMOOTH",
"101 413 LINE",
"80 383 OFFCURVE",
"69 346 OFFCURVE",
"69 308 CURVE SMOOTH",
"69 268 OFFCURVE",
"80 233 OFFCURVE",
"100 203 CURVE",
"77 180 LINE SMOOTH",
"70 173 OFFCURVE",
"66 165 OFFCURVE",
"66 157 CURVE SMOOTH",
"66 150 OFFCURVE",
"69 143 OFFCURVE",
"75 137 CURVE SMOOTH",
"90 122 LINE SMOOTH",
"97 115 OFFCURVE",
"104 112 OFFCURVE",
"111 112 CURVE SMOOTH",
"119 112 OFFCURVE",
"126 115 OFFCURVE",
"134 123 CURVE SMOOTH",
"157 146 LINE",
"187 127 OFFCURVE",
"223 116 OFFCURVE",
"261 116 CURVE SMOOTH",
"300 116 OFFCURVE",
"336 127 OFFCURVE",
"366 147 CURVE",
"390 123 LINE SMOOTH",
"397 115 OFFCURVE",
"405 112 OFFCURVE",
"412 112 CURVE SMOOTH",
"420 112 OFFCURVE",
"427 116 OFFCURVE",
"433 122 CURVE SMOOTH",
"447 136 LINE SMOOTH",
"453 142 OFFCURVE",
"458 151 OFFCURVE",
"458 158 CURVE SMOOTH",
"458 165 OFFCURVE",
"454 173 OFFCURVE",
"447 180 CURVE SMOOTH",
"423 204 LINE",
"442 234 OFFCURVE",
"454 269 OFFCURVE",
"454 308 CURVE SMOOTH",
"454 346 OFFCURVE",
"442 382 OFFCURVE",
"422 412 CURVE",
"448 438 LINE SMOOTH",
"456 446 OFFCURVE",
"459 454 OFFCURVE",
"459 461 CURVE SMOOTH",
"459 468 OFFCURVE",
"456 475 OFFCURVE",
"449 482 CURVE SMOOTH",
"435 496 LINE SMOOTH",
"428 503 OFFCURVE",
"420 506 OFFCURVE",
"413 506 CURVE SMOOTH",
"406 506 OFFCURVE",
"398 502 OFFCURVE",
"391 495 CURVE SMOOTH",
"365 469 LINE",
"335 488 OFFCURVE",
"299 500 OFFCURVE",
"261 500 CURVE SMOOTH",
"223 500 OFFCURVE",
"188 488 OFFCURVE",
"158 469 CURVE",
"132 495 LINE SMOOTH",
"125 503 OFFCURVE",
"117 507 OFFCURVE",
"109 507 CURVE SMOOTH"
);
},
{
closed = 1;
nodes = (
"321 416 OFFCURVE",
"370 367 OFFCURVE",
"370 308 CURVE SMOOTH",
"370 248 OFFCURVE",
"321 200 OFFCURVE",
"262 200 CURVE SMOOTH",
"202 200 OFFCURVE",
"154 248 OFFCURVE",
"154 308 CURVE SMOOTH",
"154 367 OFFCURVE",
"202 416 OFFCURVE",
"262 416 CURVE SMOOTH"
);
}
);
width = 534;
}
);
unicode = 00A4;
},
{
color = 11;
glyphname = dollar;
lastChange = "2014-11-19 04:29:11 +0000";
layers = (
{
layerId = "166CCA77-1BE6-4372-BC61-BAE07403C72D";
name = Regular;
paths = (
{
closed = 1;
nodes = (
"240 762 OFFCURVE",
"233 756 OFFCURVE",
"233 740 CURVE SMOOTH",
"233 703 LINE",
"124 691 OFFCURVE",
"41 626 OFFCURVE",
"41 514 CURVE SMOOTH",
"41 379 OFFCURVE",
"145 342 OFFCURVE",
"233 308 CURVE",
"233 91 LINE",
"144 93 OFFCURVE",
"89 142 OFFCURVE",
"75 142 CURVE SMOOTH",
"59 142 OFFCURVE",
"28 95 OFFCURVE",
"28 73 CURVE SMOOTH",
"28 43 OFFCURVE",
"109 -3 OFFCURVE",
"233 -6 CURVE",
"233 -53 LINE SMOOTH",
"233 -69 OFFCURVE",
"240 -75 OFFCURVE",
"257 -75 CURVE SMOOTH",
"273 -75 OFFCURVE",
"280 -69 OFFCURVE",
"280 -53 CURVE SMOOTH",
"280 -5 LINE",
"389 5 OFFCURVE",
"471 72 OFFCURVE",
"471 201 CURVE SMOOTH",
"471 336 OFFCURVE",
"368 375 OFFCURVE",
"280 409 CURVE",
"280 606 LINE",
"350 604 OFFCURVE",
"383 574 OFFCURVE",
"397 574 CURVE SMOOTH",
"413 574 OFFCURVE",
"439 622 OFFCURVE",
"439 642 CURVE SMOOTH",
"439 674 OFFCURVE",
"354 702 OFFCURVE",
"280 704 CURVE",
"280 740 LINE SMOOTH",
"280 756 OFFCURVE",
"273 762 OFFCURVE",
"256 762 CURVE SMOOTH"
);
},
{
closed = 1;
nodes = (
"322 267 OFFCURVE",
"355 241 OFFCURVE",
"355 193 CURVE SMOOTH",
"355 142 OFFCURVE",
"324 108 OFFCURVE",
"280 97 CURVE",
"280 287 LINE"
);
},
{
closed = 1;
nodes = (
"233 429 LINE",
"189 448 OFFCURVE",
"157 472 OFFCURVE",
"157 518 CURVE SMOOTH",
"157 560 OFFCURVE",
"181 592 OFFCURVE",
"233 602 CURVE"
);
}
);
width = 496;
}
);
unicode = 0024;
},
{
color = 11;
glyphname = florin;
lastChange = "2014-11-19 04:29:11 +0000";
layers = (
{
layerId = "166CCA77-1BE6-4372-BC61-BAE07403C72D";
name = Regular;
paths = (
{
closed = 1;
nodes = (
"202 758 OFFCURVE",
"129 725 OFFCURVE",
"113 609 CURVE SMOOTH",
"101 517 LINE",
"71 517 LINE SMOOTH",
"39 517 OFFCURVE",
"37 465 OFFCURVE",
"37 450 CURVE SMOOTH",
"37 433 OFFCURVE",
"43 426 OFFCURVE",
"58 426 CURVE SMOOTH",
"88 426 LINE",
"60 223 OFFCURVE",
"3 -168 OFFCURVE",
"3 -181 CURVE",
"3 -198 OFFCURVE",
"12 -207 OFFCURVE",
"48 -207 CURVE SMOOTH",
"63 -207 LINE SMOOTH",
"97 -207 OFFCURVE",
"112 -198 OFFCURVE",
"115 -181 CURVE SMOOTH",
"200 426 LINE",
"271 426 LINE SMOOTH",
"302 426 OFFCURVE",
"304 483 OFFCURVE",
"304 493 CURVE SMOOTH",
"304 510 OFFCURVE",
"297 517 OFFCURVE",
"284 517 CURVE SMOOTH",
"213 517 LINE",
"225 606 LINE SMOOTH",
"232 656 OFFCURVE",
"253 666 OFFCURVE",
"280 666 CURVE SMOOTH",
"301 666 OFFCURVE",
"309 662 OFFCURVE",
"317 662 CURVE SMOOTH",
"333 662 OFFCURVE",
"349 708 OFFCURVE",
"350 719 CURVE",
"350 755 OFFCURVE",
"302 758 OFFCURVE",
"271 758 CURVE SMOOTH"
);
}
);
width = 332;
}
);
unicode = 0192;
},
{
color = 11;
glyphname = sterling;
lastChange = "2014-11-19 04:29:11 +0000";
layers = (
{
layerId = "166CCA77-1BE6-4372-BC61-BAE07403C72D";
name = Regular;
paths = (
{
closed = 1;
nodes = (
"173 707 OFFCURVE",
"108 631 OFFCURVE",
"108 500 CURVE SMOOTH",
"108 418 LINE",
"62 418 LINE SMOOTH",
"45 418 OFFCURVE",
"38 407 OFFCURVE",
"38 380 CURVE SMOOTH",
"38 366 LINE SMOOTH",
"38 338 OFFCURVE",
"45 327 OFFCURVE",
"62 327 CURVE SMOOTH",
"108 327 LINE",
"108 166 LINE SMOOTH",
"108 88 OFFCURVE",
"26 94 OFFCURVE",
"26 52 CURVE SMOOTH",
"26 34 LINE SMOOTH",
"26 10 OFFCURVE",
"35 0 OFFCURVE",
"55 0 CURVE SMOOTH",
"423 0 LINE SMOOTH",
"440 0 OFFCURVE",
"448 12 OFFCURVE",
"448 39 CURVE SMOOTH",
"448 53 LINE SMOOTH",
"448 80 OFFCURVE",
"440 92 OFFCURVE",
"423 92 CURVE SMOOTH",
"168 92 LINE",
"192 111 OFFCURVE",
"218 145 OFFCURVE",
"218 250 CURVE SMOOTH",
"218 327 LINE",
"348 327 LINE SMOOTH",
"365 327 OFFCURVE",
"373 338 OFFCURVE",
"373 366 CURVE SMOOTH",
"373 380 LINE SMOOTH",
"373 407 OFFCURVE",
"365 418 OFFCURVE",
"348 418 CURVE SMOOTH",
"218 418 LINE",
"218 505 LINE SMOOTH",
"218 584 OFFCURVE",
"255 617 OFFCURVE",
"335 617 CURVE SMOOTH",
"368 617 OFFCURVE",
"392 609 OFFCURVE",
"399 609 CURVE SMOOTH",
"415 609 OFFCURVE",
"428 651 OFFCURVE",
"428 669 CURVE SMOOTH",
"428 704 OFFCURVE",
"355 707 OFFCURVE",
"324 707 CURVE SMOOTH"
);
}
);
width = 491;
}
);
unicode = 00A3;
},
{
color = 11;
glyphname = yen;
lastChange = "2014-11-19 04:29:11 +0000";
layers = (
{
components = (
{
name = Y;
transform = "{1, 0, 0, 1, 0, 0}";
}
);
layerId = "166CCA77-1BE6-4372-BC61-BAE07403C72D";
name = Regular;
paths = (
{
closed = 1;
nodes = (
"490 345 LINE",
"507 345 OFFCURVE",
"515 355 OFFCURVE",
"515 376 CURVE SMOOTH",
"515 387 LINE SMOOTH",
"515 408 OFFCURVE",
"507 417 OFFCURVE",
"490 417 CURVE",
"69 417 LINE",
"52 417 OFFCURVE",
"45 408 OFFCURVE",
"45 387 CURVE SMOOTH",
"45 376 LINE SMOOTH",
"45 355 OFFCURVE",
"52 346 OFFCURVE",
"69 346 CURVE"
);
},
{
closed = 1;
nodes = (
"490 193 LINE",
"507 193 OFFCURVE",
"515 202 OFFCURVE",
"515 223 CURVE SMOOTH",
"515 234 LINE SMOOTH",
"515 255 OFFCURVE",
"507 264 OFFCURVE",
"490 264 CURVE",
"69 264 LINE",
"52 264 OFFCURVE",
"45 255 OFFCURVE",
"45 234 CURVE SMOOTH",
"45 223 LINE SMOOTH",
"45 202 OFFCURVE",
"52 193 OFFCURVE",
"69 193 CURVE"
);
}
);
width = 559;
}
);
unicode = 00A5;
},
{
color = 11;
glyphname = approxequal;
lastChange = "2014-11-19 04:29:11 +0000";
layers = (
{
layerId = "166CCA77-1BE6-4372-BC61-BAE07403C72D";
name = Regular;
paths = (
{
closed = 1;
nodes = (
"147 383 OFFCURVE",
"72 346 OFFCURVE",
"72 318 CURVE SMOOTH",
"72 301 OFFCURVE",
"87 277 OFFCURVE",
"106 277 CURVE SMOOTH",
"121 277 OFFCURVE",
"139 288 OFFCURVE",
"170 288 CURVE SMOOTH",
"222 288 OFFCURVE",
"265 255 OFFCURVE",
"341 255 CURVE SMOOTH",
"396 255 OFFCURVE",
"475 289 OFFCURVE",
"475 319 CURVE SMOOTH",
"475 340 OFFCURVE",
"458 362 OFFCURVE",
"440 362 CURVE SMOOTH",
"425 362 OFFCURVE",
"403 350 OFFCURVE",
"377 350 CURVE SMOOTH",
"325 350 OFFCURVE",
"281 383 OFFCURVE",
"206 383 CURVE SMOOTH"
);
},
{
closed = 1;
nodes = (
"147 204 OFFCURVE",
"72 168 OFFCURVE",
"72 140 CURVE SMOOTH",
"72 123 OFFCURVE",
"87 99 OFFCURVE",
"106 99 CURVE SMOOTH",
"121 99 OFFCURVE",
"139 110 OFFCURVE",
"170 110 CURVE SMOOTH",
"222 110 OFFCURVE",
"265 77 OFFCURVE",
"341 77 CURVE SMOOTH",
"396 77 OFFCURVE",
"475 110 OFFCURVE",
"475 141 CURVE SMOOTH",
"475 162 OFFCURVE",
"458 184 OFFCURVE",
"440 184 CURVE SMOOTH",
"425 184 OFFCURVE",
"403 171 OFFCURVE",
"377 171 CURVE SMOOTH",
"325 171 OFFCURVE",
"281 204 OFFCURVE",
"206 204 CURVE SMOOTH"
);
}
);
width = 547;
}
);
unicode = 2248;
},
{
color = 11;
glyphname = asciitilde;
lastChange = "2014-11-19 04:29:10 +0000";
layers = (
{
layerId = "166CCA77-1BE6-4372-BC61-BAE07403C72D";
name = Regular;
paths = (
{
closed = 1;
nodes = (
"399 300 OFFCURVE",
"378 291 OFFCURVE",
"352 291 CURVE SMOOTH",
"329 291 OFFCURVE",
"313 296 OFFCURVE",
"296 302 CURVE SMOOTH",
"275 310 OFFCURVE",
"254 320 OFFCURVE",
"209 320 CURVE SMOOTH",
"161 320 OFFCURVE",
"121 301 OFFCURVE",
"87 280 CURVE SMOOTH",
"73 269 OFFCURVE",
"68 255 OFFCURVE",
"81 240 CURVE SMOOTH",
"95 225 OFFCURVE",
"112 220 OFFCURVE",
"130 230 CURVE SMOOTH",
"146 237 OFFCURVE",
"167 247 OFFCURVE",
"193 247 CURVE SMOOTH",
"217 247 OFFCURVE",
"231 241 OFFCURVE",
"250 234 CURVE SMOOTH",
"271 226 OFFCURVE",
"293 218 OFFCURVE",
"336 218 CURVE SMOOTH",
"384 218 OFFCURVE",
"426 236 OFFCURVE",
"459 259 CURVE SMOOTH",
"478 276 OFFCURVE",
"481 289 OFFCURVE",
"464 306 CURVE SMOOTH",
"452 318 OFFCURVE",
"434 319 OFFCURVE",
"419 311 CURVE SMOOTH"
);
}
);
width = 547;
}
);
unicode = 007E;
},
{
color = 11;
glyphname = divide;
lastChange = "2014-11-19 04:29:11 +0000";
layers = (
{
layerId = "166CCA77-1BE6-4372-BC61-BAE07403C72D";
name = Regular;
paths = (
{
closed = 1;
nodes = (
"69 271 LINE SMOOTH",
"49 271 OFFCURVE",
"39 258 OFFCURVE",
"39 232 CURVE SMOOTH",
"39 225 LINE SMOOTH",
"39 199 OFFCURVE",
"49 186 OFFCURVE",
"69 186 CURVE",
"490 186 LINE SMOOTH",
"511 186 OFFCURVE",
"520 199 OFFCURVE",
"520 225 CURVE SMOOTH",
"520 232 LINE SMOOTH",
"520 258 OFFCURVE",
"511 271 OFFCURVE",
"490 271 CURVE SMOOTH"
);
},
{
closed = 1;
nodes = (
"277 110 LINE SMOOTH",
"243 110 OFFCURVE",
"228 101 OFFCURVE",
"228 84 CURVE SMOOTH",
"228 24 LINE SMOOTH",
"228 7 OFFCURVE",
"243 -2 OFFCURVE",
"277 -2 CURVE SMOOTH",
"284 -2 LINE SMOOTH",
"318 -2 OFFCURVE",
"333 7 OFFCURVE",
"333 24 CURVE SMOOTH",
"333 84 LINE SMOOTH",
"333 101 OFFCURVE",
"318 110 OFFCURVE",
"284 110 CURVE SMOOTH"
);
},
{
closed = 1;
nodes = (
"277 459 LINE SMOOTH",
"243 459 OFFCURVE",
"228 449 OFFCURVE",
"228 432 CURVE SMOOTH",
"228 373 LINE SMOOTH",
"228 355 OFFCURVE",
"243 346 OFFCURVE",
"277 346 CURVE SMOOTH",
"284 346 LINE SMOOTH",
"318 346 OFFCURVE",
"333 355 OFFCURVE",
"333 373 CURVE SMOOTH",
"333 432 LINE SMOOTH",
"333 449 OFFCURVE",
"318 459 OFFCURVE",
"284 459 CURVE SMOOTH"
);
}
);
width = 560;
}
);
unicode = 00F7;
},
